<?xml version="1.0" standalone="no"?><!DOCTYPE svg PUBLIC "-//W3C//DTD SVG 1.1//EN" "http://www.w3.org/Graphics/SVG/1.1/DTD/svg11.dtd"><svg t="1523894654011" class="icon" style="" viewBox="0 0 1070 1024" version="1.1" xmlns="http://www.w3.org/2000/svg" p-id="6721" xmlns:xlink="http://www.w3.org/1999/xlink" width="43.88671875" height="42"><defs><style type="text/css"></style></defs><path d="M981.783273 0H85.224727C38.353455 0 0 35.374545 0 83.083636v844.893091c0 47.616 38.353455 86.574545 85.178182 86.574546h903.633454c46.917818 0 81.733818-38.958545 81.733819-86.574546V83.083636C1070.592 35.374545 1028.701091 0 981.783273 0zM335.825455 135.912727c74.193455 0 134.330182 60.974545 134.330181 136.285091 0 75.170909-60.136727 136.192-134.330181 136.192-74.286545 0-134.516364-61.021091-134.516364-136.192 0-75.264 60.229818-136.285091 134.516364-136.285091z m-161.512728 745.937455a41.890909 41.890909 0 0 1-27.648-10.379637 43.752727 43.752727 0 0 1-4.654545-61.067636l198.097454-255.162182a42.123636 42.123636 0 0 1 57.716364-6.702545l116.549818 128.139636 286.906182-352.814545c14.615273-18.711273 90.251636-106.775273 135.866182-6.935273 0.093091-0.093091 0.093091 112.965818 0.232727 247.761455 0.093091 140.8 0.093091 317.067636 0.093091 317.067636-1.024-0.093091-762.740364 0.093091-763.112727 0.093091z" p-id="6722" fill="#DBDBDB"></path></svg>