<?xml version="1.0" encoding="UTF-8"?>
<svg width="127px" height="19px" viewBox="0 0 127 19" version="1.1" xmlns="http://www.w3.org/2000/svg" xmlns:xlink="http://www.w3.org/1999/xlink">
    <!-- Generator: Sketch 47.1 (45422) - http://www.bohemiancoding.com/sketch -->
    <title>brand mini</title>
    <desc>Created with Sketch.</desc>
    <defs></defs>
    <g id="Page-1" stroke="none" stroke-width="1" fill="none" fill-rule="evenodd">
        <g id="brand-mini" transform="translate(0.000000, -4.000000)" fill="#5778E2">
            <path d="M13.7425923,5.06204343 C13.7425923,5.06204343 13.6828486,4.0309499 12.7742182,4.00691508 L2.39907561,4.00691508 C2.39907561,4.00691508 1.34783861,3.88033173 1.84570262,4.71033398 L4.81995365,7.52400956 C4.81995365,7.52400956 0.444587406,9.871982 0.0473262624,14.7692471 C0.0473262624,14.7692471 -0.793434429,20.4519928 4.61245309,22.4365817 C4.61245309,22.4365817 6.17952298,23.0223445 7.37908911,22.9993397 C7.37908911,22.9993397 8.81007616,22.9477221 7.51746097,22.1551455 C7.51746097,22.1551455 4.08231376,20.2617744 5.09658292,18.4270024 C5.09658292,18.4270024 5.44005186,16.2705074 9.59246659,12.518215 L12.8433469,15.8243754 C12.8433469,15.8243754 13.4960638,16.5577806 13.7425923,15.5430536 L13.7425923,5.06204343 Z" id="shortcut-icon-copy-2"></path>
            <text id="anyshortcut" font-family="Poppins-SemiBold, Poppins" font-size="16" font-weight="500" letter-spacing="0.600000024">
                <tspan x="20.6719999" y="18">anyshortcu</tspan>
                <tspan x="121.056" y="18">t</tspan>
            </text>
        </g>
    </g>
</svg>