<?xml version="1.0" standalone="no"?><!DOCTYPE svg PUBLIC "-//W3C//DTD SVG 1.1//EN" "http://www.w3.org/Graphics/SVG/1.1/DTD/svg11.dtd"><svg t="1507626118413" class="icon" style="" viewBox="0 0 1024 1024" version="1.1" xmlns="http://www.w3.org/2000/svg" p-id="3021" xmlns:xlink="http://www.w3.org/1999/xlink" width="32" height="32"><defs><style type="text/css"></style></defs><path d="M852.159772 825.305659 171.839205 825.305659c-59.235103 0-107.419522-48.185442-107.419522-107.419522L64.419683 306.112839c0-59.235103 48.184419-107.419522 107.419522-107.419522l680.320567 0c59.235103 0 107.419522 48.184419 107.419522 107.419522l0 411.773298C959.579293 777.120216 911.394874 825.305659 852.159772 825.305659zM923.771763 306.112839c0-39.48734-32.099069-71.613014-71.611991-71.613014L171.839205 234.499825c-39.47813 0-71.613014 32.126698-71.613014 71.613014l0 69.610404 821.309648 0 0 37.379329L100.225167 413.102572l0 304.782541c0 39.477107 32.134885 71.610968 71.613014 71.610968l680.320567 0c39.512922 0 71.611991-32.133861 71.611991-71.610968L923.770739 306.112839zM815.985898 626.725928 691.031001 626.725928c-9.895371 0-17.902742-8.006348-17.902742-17.901719L673.128259 537.944905c0-9.887184 8.007371-17.901719 17.902742-17.901719l124.954897 0c9.877975 0 17.902742 8.014534 17.902742 17.901719l0 70.880327C833.88864 618.71958 825.864896 626.725928 815.985898 626.725928zM516.160251 554.125423 181.594383 554.125423c-9.388834 0-16.993023-7.605212-16.993023-16.984836 0-9.389858 7.605212-16.994046 16.993023-16.994046l334.565868 0c9.370415 0 16.993023 7.605212 16.993023 16.994046C533.154297 546.520211 525.530666 554.125423 516.160251 554.125423zM181.594383 627.566062l173.437098 0c9.370415 0 16.993023 7.605212 16.993023 16.994046 0 9.371438-7.622608 16.994046-16.993023 16.994046L181.594383 661.554154c-9.388834 0-16.993023-7.622608-16.993023-16.994046C164.60136 635.170251 172.205549 627.566062 181.594383 627.566062z" p-id="3022" fill="#ffffff"></path></svg>