<svg height="72" viewBox="0 0 1024 1024" width="72" xmlns="http://www.w3.org/2000/svg"><path d="m548.798087 693.25311v63.168692c0 4.400217-2.936889 7.347339-7.337105 7.347339h-55.821353c-4.441149 0-7.357572-2.947122-7.357572-7.347339v-63.168692c0-4.400217 2.916423-7.347339 7.357572-7.347339h55.821353c4.400216.000001 7.337105 2.947123 7.337105 7.347339zm102.085026-312.169788c0 35.263132-12.463869 60.978816-37.442774 95.494934l-49.221028 67.568908c-14.674211 19.831674-19.094894 30.105668-19.094894 55.094806v23.49511c0 4.400217-2.926656 7.347339-7.347339 7.347339h-48.474015c-4.420683 0-7.347339-2.947122-7.347339-7.347339v-30.105668c0-29.389354 6.600325-44.800345 22.021549-66.115813l49.241494-67.579141c25.684986-35.252899 34.485419-52.137451 34.485419-77.116355 0-41.863457-29.368888-68.305689-71.242578-68.305689-41.116443 0-67.558675 24.958438-76.379575 69.77925-.747014 4.400217-3.663436 6.610558-8.084119 5.884011l-46.25344-8.094352c-4.420683-.73678-6.620791-3.663436-5.904477-8.073886 11.041474-70.51603 61.715597-116.789936 138.115638-116.789936 79.306233-.000002 132.927478 52.147682 132.927478 124.863821zm373.107673 130.911561c0 91.258447-24.313755 180.859138-70.311369 259.101129-5.730515 9.752108-18.266016 13.006222-28.007891 7.275707-9.752108-5.730515-13.006222-18.266016-7.275707-28.018124 42.303478-71.958892 64.662719-154.386206 64.662719-238.358713 0-63.59848-12.453636-125.293611-37.012985-183.356005-23.720238-56.087413-57.68377-106.464777-100.949156-149.730163s-93.64275-77.239152-149.740396-100.95939c-58.062394-24.559349-119.747291-37.002752-183.356005-37.002752s-125.293611 12.443403-183.356005 37.002752c-56.097646 23.720238-106.47501 57.694003-149.740396 100.95939s-77.228919 93.64275-100.949156 149.730163c-24.559349 58.062394-37.012985 119.757524-37.012985 183.356005 0 63.608713 12.453636 125.293611 37.012985 183.356005 23.720238 56.087413 57.68377 106.464777 100.949156 149.740396 43.265386 43.265386 93.64275 77.228919 149.740396 100.949156 58.062394 24.559349 119.747291 37.012985 183.356005 37.012985 117.946272 0 230.79648-43.797505 317.767274-123.308397 8.339946-7.623631 21.284769-7.040347 28.9084 1.299599s7.05058 21.284769-1.289366 28.9084c-94.533027 86.428442-217.196741 134.032646-345.386308 134.032646-69.114101 0-136.171356-13.538341-199.299115-40.246633-60.978816-25.787316-115.725698-62.697971-162.736385-109.708658s-83.921341-101.767801-109.708658-162.736385c-26.708292-63.127759-40.246633-130.185015-40.246633-199.299115s13.538341-136.161123 40.246633-199.299115c25.787316-60.968583 62.697971-115.715465 109.708658-162.736385 47.010687-47.010687 101.757568-83.921341 162.736385-109.708658 63.127759-26.698059 130.185015-40.2364 199.299115-40.2364s136.171356 13.538341 199.299115 40.2364c60.978816 25.787316 115.725698 62.697971 162.736385 109.708658 47.010687 47.02092 83.921341 101.767801 109.708658 162.736385 26.698058 63.137995 40.246632 130.185017 40.246632 199.299117z" fill="#2b72dc"/></svg>