<svg height="127" viewBox="0 0 164 127" width="164" xmlns="http://www.w3.org/2000/svg" xmlns:xlink="http://www.w3.org/1999/xlink"><mask id="a" fill="#fff"><path d="m0 .09880349v38.71063971h28.3894829v-38.71063971z" fill="#fff" fill-rule="evenodd"/></mask><mask id="b" fill="#fff"><path d="m20.4446004 27.3713846v-27.33926086h-20.44456477v27.33926086z" fill="#fff" fill-rule="evenodd"/></mask><g fill="none" fill-rule="evenodd"><g transform="translate(.696439 41.223272)"><path d="m1.85571011.48622278c-.05289125-.19079894.05734837-.38878653.24662771-.44240193.18927934-.05331587.38569008.05810831.43887847.24890725 4.88263441 17.4453724 1.95073606 26.7307208-.11826245 33.2831815-1.39300086 4.4114391-2.38426597 7.5501863-.21483353 11.1052767.10281107.1689334.05051411.3905837-.11707388.4942201-.16758799.103936-.3871758.0509197-.49028401-.1177142-2.33850614-3.8327522-1.30623545-7.102393.14500521-11.6980414 2.0419586-6.4670953 4.9358228-15.6314347.10994248-32.87342802" fill="#d8d8d8" transform="translate(18.422793 39.6724)"/><path d="m20.3611976 38.1792259c-3.8955293 1.0165959-8.2400398-1.4566016-11.9272727-5.3130164-8.73062101-9.1304928-14.40989265-27.87821021 2.2847235-32.23453624 16.6946161-4.35632602 20.7523848 14.81402454 17.5138361 27.06798864-1.3677438 5.1752339-3.9757576 9.4629681-7.8712869 10.479564" fill="#eaeaea"/><path d="m17.7205874 32.4943462c-3.0944349.8075258-6.5454401-1.1573737-9.47496127-4.2206401-6.93499298-7.2530552-11.44649726-22.14555589 1.81523937-25.60629508 13.2617367-3.46043968 16.4851311 11.76813068 13.9127744 21.50217108-1.0869448 4.1113127-3.1583204 7.5172384-6.2530525 8.3247641" fill="#f4f4f4"/><path d="m6.68833555 5.84737326c1.07595054.284551-.37558726 2.37405391-.98680799 4.72384614-.61122072 2.3497922-.71938035 4.7421172-1.79533088 4.4578658-1.07595054-.284551-1.37784663-2.850602-.7666259-5.20039418.61122072-2.35009172 2.47281424-4.26556923 3.54876477-3.98131776" fill="#fff"/><path d="m19.9337591 37.0334738-.2023536 4.7687752 1.4851149-.3878879 1.1894587-.3103104z" fill="#eaeaea"/></g><g transform="translate(36.035874)"><path d="m13.7191554 41.0643152c-.0544064-.1895353.0538149-.3880391.2412803-.4427473.1874654-.055007.3835058.0541103.4379121.2436456 1.7699809 6.140764.7489745 9.1180226-.2466027 12.0202443-.564466 1.6457284-1.1203571 3.2669427-1.1159218 5.4468974.0053224 2.5497579 1.4674933 5.3500372 2.8628391 8.0220662 1.1363241 2.1763674 2.2297737 4.2702241 2.5053538 6.1509284.329395 2.2493115.187761 4.554826-.1673587 6.6101179-.5068071 2.9342096-1.4571443 5.3775407-2.0916881 6.4155005-.1026033.1677119-.3202287.2197294-.4864047.1159932-.1661759-.1034372-.2176254-.3237645-.1153178-.4917753.6002441-.981458 1.5038628-3.3207539 1.9949985-6.1631854.343588-1.9901205.481378-4.2179075.1644018-6.3826158-.2581345-1.7611236-1.3231982-3.8008701-2.4305451-5.9213335-1.4343764-2.7470659-2.9373521-5.6259695-2.9432658-8.3556962-.004731-2.2986385.5706754-3.9763547 1.1549524-5.6794817.9589121-2.795795 1.9429576-5.6648331.2353667-11.5885583" fill="#d8d8d8"/><path d="m14.1948858 38.8094432c-4.0044856 0-7.57756427-3.4854763-10.17576371-8.1410489-6.15176274-11.0232409-6.98471231-30.56959081 10.17576371-30.56959081 17.1604759 0 16.326935 19.54634991 10.175468 30.56959081-2.5981995 4.6555726-6.1712781 8.1410489-10.175468 8.1410489" fill="#eaeaea" mask="url(#a)" transform="translate(0 .200298)"/><path d="m13.0573197 32.8510396c-3.18070231 0-6.01929507-2.7685904-8.08318855-6.4669201-4.88681485-8.7568892-5.54856179-24.28383531 8.08318855-24.28383531 13.6320461 0 12.9697078 15.52694611 8.0831886 24.28383531-2.0638935 3.6980308-4.9021906 6.4669201-8.0831886 6.4669201" fill="#f3f3f3"/><path d="m9.02193485 4.32245093c.96630429.54588555-.94915445 2.19878873-2.1191869 4.31536578-1.17032815 2.11627809-1.86637474 4.40056699-2.83267903 3.85468139-.9660086-.5461845-.62182923-3.10162241.54820323-5.21819946 1.17003245-2.11657705 3.4376541-3.49803221 4.4036627-2.95184771" fill="#fff"/><path d="m14.0665281 37.7949809-1.3746476 4.5563208h1.5266306 1.2226647z" fill="#eaeaea"/></g><g transform="translate(64.717489 46.93284)"><path d="m11.5969706 29.1706985c.0208043-.138428.1505122-.2337425.2893485-.2130311.1392609.0207113.2350027.1498403.2139862.2882682-.3651352 2.3889916.1834168 3.9998279.8026606 5.8188344.4757373 1.3965372.9920215 2.9129044 1.1869018 4.9943957.176199 1.8809293-.6631875 5.1543803-1.4492896 8.2209291-.6387744 2.4906462-1.2418844 4.8432872-1.2249013 6.1320408.0201673 1.5043208.3356272 2.7258681.7665716 3.7107142.4303077.9837895.9775859 1.7334137 1.4616024 2.2936771.0910715.1060928.0785465.2658662-.028022.3565312-.1065686.0908763-.2670582.0784073-.358342-.0276856-.5092788-.5896396-1.0858528-1.380264-1.5412103-2.4202699-.4542962-1.038738-.7869514-2.3255895-.8079679-3.9070495-.0180444-1.3612433.5922833-3.7422039 1.2387-6.2628605.776337-3.0278735 1.6048967-6.2603245 1.4374016-8.0508001-.188724-2.0166098-.6958799-3.505714-1.1629133-4.8773131-.6406849-1.8813519-1.2081305-3.5477707-.8245263-6.0563809" fill="#d8d8d8"/><path d="m11.6747105 27.3521568c-2.86376406.2508611-5.6362443-1.9802592-7.7837489-5.0962617-5.08493255-7.3778923-6.8959608-21.09071224 5.37704073-22.164744 12.27321377-1.07382042 12.89224537 12.7434017 9.17784367 20.891207-1.5683832 3.4412552-3.9073715 6.1191491-6.7711355 6.3697987" fill="#eaeaea" mask="url(#b)" transform="translate(0 .179217)"/><path d="m10.4783194 23.2655526c-2.27508959.1988713-4.47715219-1.5730064-6.18309791-4.0484361-4.03920226-5.8608912-5.47808978-16.75400788 4.27123295-17.60697762 9.74953506-.85296973 10.24119386 10.12278102 7.29102866 16.59529122-1.2461301 2.7336877-3.104074 4.8610399-5.3791637 5.0601225" fill="#f3f3f3"/><path d="m5.81855714 3.42751813c.72496325.32419613-.54218334 1.60787754-1.24740381 3.17158494s-1.06122732 3.21596642-1.78619056 2.89177029c-.72475096-.32398479-.63771292-2.14510476.06750755-3.70881216.70543276-1.5637074 2.24112358-2.67852786 2.96608682-2.35454307" fill="#fff"/><path d="m11.5074064 26.6840465-.6999133 3.2947964 1.0920091-.0955259.8744139-.0765052z" fill="#eaeaea"/></g><g transform="matrix(.99026807 .1391731 -.1391731 .99026807 97.085007 17.592666)"><path d="m.14684259.83724958c-.08115464-.22611638.03675613-.47553621.26275179-.55637008.22599565-.08083387.47528233.03677577.55607304.26289214 1.49753964 4.17496027 3.9023372 15.46548596 4.12287403 28.36358626.14374924 8.4019892-.63722769 17.4947075-3.19487255 25.766343-.0706009.2301216-.31406481.3590189-.54406361.2887444-.2299988-.0706386-.35882724-.3145967-.28822634-.5447183 2.52780324-8.1755088 3.2993182-17.1757414 3.15702464-25.4968968-.21871721-12.7928706-2.59330923-23.96178137-4.071561-28.08358062" fill="#d8d8d8" transform="translate(18.56003 49.717929)"/><path d="m19.3495951 47.4701285c-4.9180439.3204225-9.58243412-3.6298779-13.14159273-9.0803384-8.4273452-12.9057467-10.99663557-36.59553302 10.07918783-37.96898061 21.0765512-1.37308348 21.5987795 22.45033361 14.9157132 36.34028731-2.8225802 5.8662816-6.9352644 10.3886091-11.8533083 10.7090317" fill="#eaeaea"/><path d="m7.0263905 32.8624646c-6.69471185-10.2517012-8.73522334-29.07033646 8.0066512-30.16122962 16.7422384-1.09089316 17.1574736 17.83370002 11.8485773 28.86752352-2.2421243 4.6603277-5.5094174 8.2523373-9.4161217 8.5068548-3.9063403.2545175-7.61215955-2.8830748-10.4391068-7.2131487z" fill="#f3f3f3"/><path d="m10.2526331 5.72493157c1.229693.58622763-.99205175 2.74835165-2.2614122 5.41441293-1.2700883 2.6656972-1.94407212 5.4981598-3.17376506 4.9115681-1.22969294-.5862277-1.00915612-3.7198146.26020433-6.38587593 1.26972438-2.66569721 3.94528002-4.52633274 5.17497293-3.9401051" fill="#fff"/><path d="m19.0958686 46.004086-1.327588 5.6478117 1.8745629-.1223432 1.5019068-.0979473z" fill="#eaeaea"/></g><g transform="translate(145.982063 54.266096)"><path d="m5.27642326 24.141032c.03430601-.1121419.15278553-.1749556.26454531-.1407097.11158294.0344233.17418257.1533079.14005339.2652724-.65199099 2.1207598.16958486 4.7647894 1.11547579 7.8084133 1.59293054 5.125347 3.53157365 11.3634186-.46136277 18.354722-.05800191.1020278-.18762204.1373383-.28912538.0791381-.10168018-.0582002-.13687036-.188441-.07886845-.2902914 3.90151271-6.8308978 1.99293152-12.9719099.42493473-18.0172316-.96675747-3.1103412-1.80654733-5.8123936-1.11565262-8.0593131" fill="#d8d8d8"/><path d="m5.81157931 22.9181882c-2.34324185-.495944-4.00885161-2.9623565-4.9611086-5.988059-2.2542938-7.16377474-.35614588-18.61875226 9.68578869-16.49408877 10.0419346 2.12484092 7.1685411 13.37363347 2.2235245 19.01391057-2.0885993 2.3821286-4.60496274 3.9640039-6.94820459 3.4682372" fill="#eaeaea"/><path d="m1.95680412 14.4437371c-1.79080902-5.6904926-.28293616-14.79013497 7.694095-13.10232813 7.97703118 1.68798428 5.69444378 10.62367233 1.76622898 15.10420333-1.65924374 1.8922174-3.65801083 3.1486682-5.51937704 2.7549294-1.86136622-.3939162-3.18462324-2.3532059-3.94094694-4.7568046z" fill="#f3f3f3"/><path d="m7.01817822 2.13236437c.49867497.43667921-.82387471 1.15956873-1.76693627 2.24372556-.94306157 1.08433427-1.62918174 2.32481552-2.12785671 1.88813631-.4988518-.43685665.01450048-1.87837712.95756204-2.9627114.94306157-1.08433427 2.43855597-1.60582968 2.93723094-1.16915047" fill="#fff"/><path d="m5.88480673 22.1968247-1.36039239 2.4759942.89319406.1889733.7154748.1513561z" fill="#eaeaea"/></g><g fill="#cfcfcf"><path d="m15.544125 53.5704585c-1.13775 0-2.0295.3219542-2.67525.9811938-.64575.6439085-.968625 1.5177842-.968625 2.6369585h1.614375c0-.6745708.138375-1.19583.415125-1.5637777.3075-.4446035.814875-.6592396 1.50675-.6592396.5535 0 .999375.1533115 1.306875.4599346.292125.3066231.445875.7205642.445875 1.2571546 0 .39861-.15375.7665577-.4305 1.1191742l-.261375.2912919c-.95325.8432135-1.5375 1.4717908-1.737375 1.9010631-.21525.39861-.3075.8892069-.3075 1.4564596v.2606297h1.645125v-.2606297c0-.3679477.076875-.705233.246-1.0118561.138375-.2759608.353625-.5519216.64575-.79722.722625-.6285773 1.153125-1.0271873 1.2915-1.19583.384375-.4905969.58425-1.1191742.58425-1.8704008 0-.9198692-.3075-1.6557646-.9225-2.192355-.615-.5519215-1.4145-.8125511-2.3985-.8125511zm-.27675 8.968725c-.3075 0-.58425.0919869-.7995.306623-.21525.199305-.322875.4599347-.322875.7818889 0 .3066231.107625.5672527.322875.7818888.21525.2146362.492.3219543.7995.3219543s.58425-.1073181.7995-.3066231c.21525-.2146362.33825-.4752658.33825-.79722s-.107625-.5825839-.322875-.7818889c-.21525-.2146361-.492-.306623-.814875-.306623z"/><path d="m48.856625 10.98392c-1.13775 0-2.0295.3219542-2.67525.9811938-.64575.6439085-.968625 1.5177843-.968625 2.6369585h1.614375c0-.6745708.138375-1.19583.415125-1.5637777.3075-.4446034.814875-.6592396 1.50675-.6592396.5535 0 .999375.1533115 1.306875.4599346.292125.3066231.445875.7205642.445875 1.2571546 0 .39861-.15375.7665577-.4305 1.1191743l-.261375.2912919c-.95325.8432134-1.5375 1.4717908-1.737375 1.9010631-.21525.39861-.3075.8892069-.3075 1.4564596v.2606296h1.645125v-.2606296c0-.3679477.076875-.7052331.246-1.0118562.138375-.2759607.353625-.5519215.64575-.79722.722625-.6285773 1.153125-1.0271873 1.2915-1.19583.384375-.4905969.58425-1.1191742.58425-1.8704007 0-.9198693-.3075-1.6557647-.9225-2.192355-.615-.5519216-1.4145-.8125512-2.3985-.8125512zm-.27675 8.968725c-.3075 0-.58425.0919869-.7995.3066231-.21525.199305-.322875.4599346-.322875.7818888 0 .3066231.107625.5672527.322875.7818889.21525.2146361.492.3219542.7995.3219542s.58425-.1073181.7995-.3066231c.21525-.2146361.33825-.4752657.33825-.79722 0-.3219542-.107625-.5825838-.322875-.7818888-.21525-.2146362-.492-.3066231-.814875-.3066231z"/><path d="m109.502458 35.6841123c-1.13775 0-2.0295.3219542-2.67525.9811939-.64575.6439084-.968625 1.5177842-.968625 2.6369584h1.614375c0-.6745708.138375-1.19583.415125-1.5637777.3075-.4446034.814875-.6592396 1.50675-.6592396.5535 0 .999375.1533115 1.306875.4599346.292125.3066231.445875.7205643.445875 1.2571546 0 .39861-.15375.7665577-.4305 1.1191743l-.261375.2912919c-.95325.8432135-1.5375 1.4717908-1.737375 1.9010631-.21525.39861-.3075.8892069-.3075 1.4564596v.2606296h1.645125v-.2606296c0-.3679477.076875-.7052331.246-1.0118562.138375-.2759607.353625-.5519215.64575-.79722.722625-.6285773 1.153125-1.0271873 1.2915-1.19583.384375-.4905969.58425-1.1191742.58425-1.8704007 0-.9198693-.3075-1.6557647-.9225-2.192355-.615-.5519216-1.4145-.8125512-2.3985-.8125512zm-.27675 8.968725c-.3075 0-.58425.0919869-.7995.3066231-.21525.199305-.322875.4599346-.322875.7818888 0 .3066231.107625.5672527.322875.7818889.21525.2146361.492.3219542.7995.3219542s.58425-.1073181.7995-.3066231c.21525-.2146361.33825-.4752657.33825-.79722 0-.3219542-.107625-.5825838-.322875-.7818888-.21525-.2146362-.492-.3066231-.814875-.3066231z"/><path d="m74.0169583 56.0506985c-.8849166 0-1.5785.2504088-2.08075.7631507-.50225.5008177-.753375 1.1804989-.753375 2.0509677h1.255625c0-.5246661.107625-.93009.322875-1.2162715.2391667-.3458027.6337917-.5127419 1.1719167-.5127419.4305 0 .7772917.1192423 1.0164583.3577269.2272084.2384846.3467917.5604388.3467917.9777869 0 .31003-.1195833.5962115-.3348333.8704689l-.2032917.2265603c-.7414167.6558327-1.1958333 1.1447262-1.3512917 1.4786047-.1674166.31003-.2391666.6916053-.2391666 1.1328019v.2027119h1.2795416v-.2027119c0-.2861816.0597917-.5485146.1913334-.7869993.107625-.2146361.2750416-.4292723.50225-.62006.5620416-.4888934.896875-.7989234 1.0045-.93009.2989583-.3815753.4544166-.8704688.4544166-1.4547561 0-.7154539-.2391666-1.2878169-.7175-1.705165-.4783333-.4292723-1.1001666-.6319842-1.8655-.6319842zm-.21525 6.975675c-.2391666 0-.4544166.0715453-.6218333.2384846-.1674167.155015-.251125.3577269-.251125.6081357 0 .2384847.0837083.4411966.251125.6081358s.3826667.2504089.6218333.2504089c.2391667 0 .4544167-.0834697.6218334-.2384847.1674166-.1669392.2630833-.3696511.2630833-.62006 0-.2504088-.0837083-.4531207-.251125-.6081357-.1674167-.1669393-.3826667-.2384846-.6337917-.2384846z"/><path d="m153.801104 60.3093523c-.884916 0-1.5785.2504089-2.08075.7631508-.50225.5008177-.753375 1.1804988-.753375 2.0509677h1.255625c0-.5246662.107625-.93009.322875-1.2162716.239167-.3458027.633792-.5127419 1.171917-.5127419.4305 0 .777292.1192423 1.016458.3577269.227209.2384846.346792.5604389.346792.977787 0 .31003-.119583.5962115-.334833.8704688l-.203292.2265604c-.741417.6558327-1.195833 1.1447261-1.351292 1.4786046-.167416.31003-.239166.6916054-.239166 1.1328019v.2027119h1.279541v-.2027119c0-.2861815.059792-.5485146.191334-.7869992.107625-.2146362.275041-.4292723.50225-.62006.562041-.4888935.896875-.7989235 1.0045-.93009.298958-.3815754.454416-.8704689.454416-1.4547562 0-.7154538-.239166-1.2878169-.7175-1.705165-.478333-.4292723-1.100166-.6319842-1.8655-.6319842zm-.21525 6.975675c-.239166 0-.454416.0715454-.621833.2384846-.167417.155015-.251125.3577269-.251125.6081358 0 .2384846.083708.4411965.251125.6081358.167417.1669392.382667.2504088.621833.2504088.239167 0 .454417-.0834696.621834-.2384846.167416-.1669392.263083-.3696512.263083-.62006 0-.2504089-.083708-.4531208-.251125-.6081358-.167417-.1669392-.382667-.2384846-.633792-.2384846z"/></g></g></svg>