<svg height="801" viewBox="0 0 1500 801" width="1500" xmlns="http://www.w3.org/2000/svg"><g fill="none" fill-rule="evenodd" opacity=".08" transform="translate(-51 -6)"><path d="m1021.5 203.41-16.12-16.12c-.67863-.671374-1.61947-1.008175-2.57-.92h-.16c-.69995.09166-1.35017.411497-1.85.91l-27.07 27.07c-.493449.511912-.802973 1.173168-.88 1.88-.007003.083186-.007003.166814 0 .25-.063014.925194.275911 1.832639.93 2.49l16.07 16.1c1.267329 1.258446 3.312671 1.258446 4.58 0l27.07-27.07c.61005-.607938.95295-1.433749.95295-2.295s-.3429-1.687062-.95295-2.295zm-25.07 6.52-18.15 4.11 22.21-22.21z" fill="#000" fill-rule="nonzero"/><path d="m1019.38 205.88-27.07 27.07c-.045032.045189-.106204.070589-.17.070589s-.124968-.0254-.17-.070589l-15.43-15.43 21.48-4.86c.56266-.127966 1.002034-.56734 1.13-1.13l4.8-21.41 15.43 15.43c.04519.045032.07059.106204.07059.17s-.0254.124968-.07059.17z" fill="#fff" fill-rule="nonzero"/><path d="m957.85 239.54c-.606283-.000533-1.152632-.36599-1.384574-.926153s-.103867-1.204873.324574-1.633847l13.63-13.62c.59102-.550718 1.512019-.534468 2.083244.036756.571224.571225.587474 1.492224.036756 2.083244l-13.63 13.63c-.282664.277721-.663739.432308-1.06.43z" fill="#fff" fill-rule="nonzero"/><path d="m968.08 240.78c-.606283-.000533-1.152632-.36599-1.384574-.926153s-.103867-1.204873.324574-1.633847l9.14-9.14c.59102-.550718 1.512019-.534468 2.083244.036756.571224.571225.587474 1.492224.036756 2.083244l-9.14 9.14c-.281035.281385-.662309.43965-1.06.44z" fill="#fff" fill-rule="nonzero"/><path d="m978.37 241.93c-.606283-.000533-1.152632-.36599-1.384574-.926153s-.103867-1.204873.324574-1.633847l4.57-4.57c.59102-.550718 1.512019-.534468 2.083244.036756.571224.571225.587474 1.492224.036756 2.083244l-4.57 4.57c-.280407.282322-.662089.440756-1.06.44z" fill="#fff" fill-rule="nonzero"/><path d="m943.85 641.35c-.703067-.002565-1.310016-.493112-1.46-1.18l-6.3-28.69c-.086366-.388556-.014755-.795507.199063-1.131239.213819-.335732.55231-.572715.940937-.658761l11-2.42c.528753-.110752 1.076427.068995 1.436718.471532.360291.402538.478462.96671.31 1.48-.168463.51329-.597965.897716-1.126718 1.008468l-9.56 2.1 5.66 25.76 47.78-10.5-5.66-25.76-9.55 2.13c-.809097.179493-1.610507-.330903-1.79-1.14s.330903-1.610507 1.14-1.79l11-2.45c.388556-.086366.795507-.014755 1.131239.199063.335732.213819.572715.55231.658761.940937l6.3 28.7c.086366.388556.014755.795507-.199063 1.131239-.213819.335732-.55231.572715-.940937.658761l-50.71 11.14c-.086497.007679-.173503.007679-.26 0z" fill="#000" fill-rule="nonzero"/><path d="m968.63 596.6c-.703067-.002565-1.310016-.493112-1.46-1.18l-1.45-6.62c-.153991-.799283.357584-1.575519 1.152815-1.749221.795232-.173702 1.583877.318527 1.777185 1.109221l1.13 5.15 5.17-1.13c.529157-.129368 1.086856.038312 1.456932.438045s.494352.96868.324656 1.486315c-.169695.517635-.606684.902585-1.141588 1.00564l-6.63 1.46c-.108555.022156-.21923.032218-.33.03z" fill="#000" fill-rule="nonzero"/><path d="m989.31 598.98c-.568935-.601809-1.517939-.628667-2.12-.06l-7.65 7.21-2.86-13c-.13164-.719858-.555098-1.353236-1.17-1.75l-6.39-4.05c-.622314-.381427-1.371815-.496735-2.08-.32l-21 4.61c-.695599.145612-1.310189.549383-1.72 1.13-.423948.61586-.569132 1.381707-.4 2.11l4 18.27-10-3.36c-.784244-.276142-1.643858.135756-1.92.92s.135756 1.643858.92 1.92l28.77 9.62c.525627.177751 1.106444.050817 1.51-.33l22.06-20.8c.598947-.57174.621327-1.52066.05-2.12z" fill="#000" fill-rule="nonzero"/><path d="m965.79 619.11-14.52-4.9-4.34-19.74 20.72-4.55 6.11 3.88 3.24 14.74z" fill="#fff" fill-rule="nonzero"/><path d="m959.07 610.03c-1.120096-.000216-2.219143-.304355-3.18-.88-1.36345-.798937-2.334031-2.128053-2.68-3.67l-1.47-6.67c-.153991-.799283.357584-1.575519 1.152815-1.749221.795232-.173702 1.583877.318527 1.777185 1.109221l1.47 6.67c.171668.733069.638461 1.362697 1.29 1.74.677498.409729 1.48576.545632 2.26.38 1.568523-.331624 2.599121-1.837883 2.34-3.42l-3.6-16.39c-.107285-.451922-.396884-.83926-.8-1.07-.42711-.253553-.933286-.339104-1.42-.24-.977038.201442-1.623918 1.134358-1.47 2.12l.68 3.1c.153991.799283-.357584 1.575519-1.152815 1.749221-.795232.173702-1.583877-.318527-1.777185-1.109221l-.68-3.1c-.435991-2.571407 1.222817-5.032427 3.769943-5.593115s5.086002.976313 5.770057 3.493115l3.6 16.39c.617358 3.200962-1.43408 6.309201-4.62 7-.413778.091633-.8362.138569-1.26.14z" fill="#000" fill-rule="nonzero"/><path d="m424.02 152.82v12.67" stroke="#fff" stroke-linecap="round" stroke-width="3"/><path d="m430.35 159.16h-12.66" stroke="#fff" stroke-linecap="round" stroke-width="3"/><path d="m1189.55 152.82v12.67" stroke="#fff" stroke-linecap="round" stroke-width="3"/><path d="m1195.88 159.16h-12.66" stroke="#fff" stroke-linecap="round" stroke-width="3"/><path d="m1297.68 299.25v12.66" stroke="#fff" stroke-linecap="round" stroke-width="3"/><path d="m1304.02 305.58h-12.67" stroke="#fff" stroke-linecap="round" stroke-width="3"/><path d="m315.89 299.25v12.66" stroke="#fff" stroke-linecap="round" stroke-width="3"/><path d="m322.22 305.58h-12.67" stroke="#fff" stroke-linecap="round" stroke-width="3"/><path d="m1031.2 237.09v12.67" stroke="#fff" stroke-linecap="round" stroke-width="3"/><path d="m1037.53 243.43h-12.67" stroke="#fff" stroke-linecap="round" stroke-width="3"/><path d="m582.37 237.09v12.67" stroke="#fff" stroke-linecap="round" stroke-width="3"/><path d="m588.71 243.43h-12.67" stroke="#fff" stroke-linecap="round" stroke-width="3"/><path d="m126.28 343.37h12.67" stroke="#fff" stroke-linecap="round" stroke-width="3"/><path d="m132.62 337.04v12.66" stroke="#fff" stroke-linecap="round" stroke-width="3"/><path d="m125.62 499.59 12.66.23" stroke="#fff" stroke-linecap="round" stroke-width="3"/><path d="m132.07 493.37-.24 12.66" stroke="#fff" stroke-linecap="round" stroke-width="3"/><path d="m932.24 129.11v20.16" stroke="#fff" stroke-linecap="round" stroke-width="3"/><path d="m942.32 139.19h-20.16" stroke="#fff" stroke-linecap="round" stroke-width="3"/><path d="m681.33 129.11v20.16" stroke="#fff" stroke-linecap="round" stroke-width="3"/><path d="m691.41 139.19h-20.16" stroke="#fff" stroke-linecap="round" stroke-width="3"/><path d="m806.78 7.5v20.17" stroke="#fff" stroke-linecap="round" stroke-width="3"/><path d="m816.87 17.58h-20.17" stroke="#fff" stroke-linecap="round" stroke-width="3"/><path d="m62.58 414.25v20.17" stroke="#fff" stroke-linecap="round" stroke-width="3"/><path d="m72.67 424.33h-20.17" stroke="#fff" stroke-linecap="round" stroke-width="3"/><path d="m1538.95 414.25v20.17" stroke="#fff" stroke-linecap="round" stroke-width="3"/><path d="m1549.04 424.33h-20.17" stroke="#fff" stroke-linecap="round" stroke-width="3"/><g transform="translate(1309 622)"><path d="m20.26 19.57c6.939884-6.9398844 17.0549856-9.65021795 26.5350438-7.1100441 9.4800582 2.5401738 16.8848265 9.9449421 19.4250003 19.4250003s-.1701597 19.5951598-7.1100441 26.5350438" fill="#fff" fill-rule="nonzero"/><g stroke="#231f20"><circle cx="39.690944" cy="39.00015" r="27.47" stroke-width="3" transform="matrix(.70710678 -.70710678 .70710678 .70710678 -15.952062 39.488615)"/><path d="m45.85 40.51c-.3819448.0006245-.7226854-.2398984-.85-.6l-1.36-3.94c-.4127032-1.3529925-1.4057824-2.4523422-2.71-3-1.75-.55-4.13.32-6.91 2.52-.3880347.237095-.891967.1474896-1.1744838-.2088379-.2825167-.3563274-.2548489-.8674159.0644838-1.1911621 3.32-2.63 6.2-3.58 8.58-2.82 1.8568767.7208445 3.2798943 2.2544593 3.86 4.16l1.34 3.89c.0934295.2744863.0488941.5771734-.1196368.8131166-.1685308.2359432-.4404125.3762401-.7303632.3768834z" fill="#231f20" fill-rule="nonzero"/><path d="m39.85 55.03c-7.8755923-.1198245-14.4925111-5.9536451-15.5981697-13.7521598-1.1056587-7.7985147 3.6288683-15.2417218 11.160777-17.5459925 7.5319086-2.3042708 15.6205108 1.2158986 19.0673927 8.2981523 1.2272952 2.4444927 1.375964 5.2909549.41 7.85-.7006637 1.6854685-2.0978948 2.9842003-3.83 3.56-1.167916.467815-2.4813654.405791-3.6-.17-.456318-.2592721-.8626914-.5979166-1.2-1-1.1077664 2.1228405-2.9644775 3.7585994-5.21 4.59-1.2217756.5342136-2.6078445.5507204-3.8419958.0457546-1.2341513-.5049657-2.2111123-1.4883305-2.7080042-2.7257546-.7323522-1.3006631-.7323522-2.8893369 0-4.19 2.09-3.51 9.45-4 10.29-4.09.4670173.0114147.8476605.378251.8763144.8445282s-.3042088.8769601-.7663144.9454718c-2 .12-7.49.93-8.85 3.22-.4187579.7909774-.392191 1.7435909.07 2.51.3112848.8339088.9588277 1.498523 1.7843559 1.8313973.8255282.3328742 1.7529717.3033352 2.5556441-.0813973 2.54-.89 4.88-3.71 4.48-5.39-.0694844-.4597094.2226211-.8966805.6739739-1.0082217s.9133768.1390646 1.0660261.5782217c.2534948.9437001.8349245 1.7662104 1.64 2.32.6859335.3132276 1.4740665.3132276 2.16 0 1.2484285-.4171194 2.2550461-1.3544409 2.76-2.57.7488885-2.0903813.607925-4.3963989-.39-6.38-2.7650637-5.8421904-9.1073648-9.1009958-15.4670615-7.9472959s-11.1531849 6.4326266-11.6899489 12.873795 3.3168536 12.4406873 9.3978732 14.6311136c6.0810195 2.1904262 12.8752291.0263301 16.5691372-5.2776127.1515369-.3214911.478081-.5236924.8334144-.5160633.3553333.007629.6728979.2236594.8104966.5513583.1375988.3276989.0694579.7056846-.173911.964705-3.0123792 4.3721274-7.9706846 6.9968929-13.28 7.03z" fill="#231f20" fill-rule="nonzero"/></g></g><path d="m1189.55 694.56v-12.67" stroke="#fff" stroke-linecap="round" stroke-width="3"/><path d="m1183.22 688.22h12.66" stroke="#fff" stroke-linecap="round" stroke-width="3"/><path d="m424.02 694.56v-12.67" stroke="#fff" stroke-linecap="round" stroke-width="3"/><path d="m417.69 688.22h12.66" stroke="#fff" stroke-linecap="round" stroke-width="3"/><path d="m1311.36 508.13v-12.66" stroke="#fff" stroke-linecap="round" stroke-width="3"/><path d="m1305.02 501.8h12.67" stroke="#fff" stroke-linecap="round" stroke-width="3"/><path d="m302.21 508.13v-12.66" stroke="#fff" stroke-linecap="round" stroke-width="3"/><path d="m295.88 501.8h12.66" stroke="#fff" stroke-linecap="round" stroke-width="3"/><path d="m582.37 594.55v-12.66" stroke="#fff" stroke-linecap="round" stroke-width="3"/><path d="m576.04 588.22h12.67" stroke="#fff" stroke-linecap="round" stroke-width="3"/><path d="m1031.2 594.55v-12.66" stroke="#fff" stroke-linecap="round" stroke-width="3"/><path d="m1024.86 588.22h12.67" stroke="#fff" stroke-linecap="round" stroke-width="3"/><path d="m1475.2 342.51h12.66" stroke="#fff" stroke-linecap="round" stroke-width="3"/><path d="m1481.53 336.18v12.66" stroke="#fff" stroke-linecap="round" stroke-width="3"/><path d="m1474.53 498.73 12.66.23" stroke="#fff" stroke-linecap="round" stroke-width="3"/><path d="m1480.98 492.51-.24 12.66" stroke="#fff" stroke-linecap="round" stroke-width="3"/><path d="m666.01 694.65v-20.17" stroke="#fff" stroke-linecap="round" stroke-width="3"/><path d="m655.93 684.56h20.16" stroke="#fff" stroke-linecap="round" stroke-width="3"/><path d="m916.92 694.65v-20.17" stroke="#fff" stroke-linecap="round" stroke-width="3"/><path d="m906.84 684.56h20.17" stroke="#fff" stroke-linecap="round" stroke-width="3"/><path d="m806.78 804.88v-20.16" stroke="#fff" stroke-linecap="round" stroke-width="3"/><path d="m796.7 794.8h20.17" stroke="#fff" stroke-linecap="round" stroke-width="3"/><path d="m942.44 482.16v12.66" stroke="#fff" stroke-linecap="round" stroke-width="3"/><path d="m948.77 488.49h-12.66" stroke="#fff" stroke-linecap="round" stroke-width="3"/><g fill-rule="nonzero"><circle cx="1033.27" cy="402.98" fill="#fff" r="3.32"/><path d="m806.78 268.66c-4.445892 0-8.05-3.604108-8.05-8.05s3.604108-8.05 8.05-8.05 8.05 3.604108 8.05 8.05c-.00551 4.443608-3.606392 8.04449-8.05 8.05zm0-13.11c-2.789038 0-5.05 2.260962-5.05 5.05s2.260962 5.05 5.05 5.05 5.05-2.260962 5.05-5.05c-.010994-2.78285-2.267134-5.034522-5.05-5.04z" fill="#000"/><path d="m498.64 91.23c-4.445892 0-8.05-3.6041078-8.05-8.05s3.604108-8.05 8.05-8.05 8.05 3.6041078 8.05 8.05c-.00551 4.443608-3.606392 8.0444903-8.05 8.05zm0-13.11c-2.789038 0-5.05 2.260962-5.05 5.05s2.260962 5.05 5.05 5.05 5.05-2.260962 5.05-5.05c-.005502-2.7867558-2.263244-5.044498-5.05-5.05z" fill="#000"/><path d="m1114.92 91.23c-4.44589 0-8.05-3.6041078-8.05-8.05s3.60411-8.05 8.05-8.05 8.05 3.6041078 8.05 8.05c-.00551 4.443608-3.60639 8.0444903-8.05 8.05zm0-13.11c-2.04253 0-3.88395 1.230393-4.66559 3.1174487-.78165 1.8870556-.34959 4.0591507 1.0947 5.5034405 1.44429 1.4442899 3.61639 1.8763465 5.50344 1.0947024 1.88706-.781644 3.11745-2.6230573 3.11745-4.6655916-.0055-2.7867558-2.26324-5.044498-5.05-5.05z" fill="#000"/><path d="m155.64 421.23c0-4.445892 3.604108-8.05 8.05-8.05s8.05 3.604108 8.05 8.05-3.604108 8.05-8.05 8.05c-4.443608-.00551-8.04449-3.606392-8.05-8.05zm13.11 0c0-2.789038-2.260962-5.05-5.05-5.05s-5.05 2.260962-5.05 5.05 2.260962 5.05 5.05 5.05c2.786756-.005502 5.044498-2.263244 5.05-5.05z" fill="#000"/><path d="m195 262.01c0-4.445892 3.604108-8.05 8.05-8.05s8.05 3.604108 8.05 8.05-3.604108 8.05-8.05 8.05c-4.443608-.00551-8.04449-3.606392-8.05-8.05zm13.11 0c0-2.789038-2.260962-5.05-5.05-5.05s-5.05 2.260962-5.05 5.05 2.260962 5.05 5.05 5.05c2.786756-.005502 5.044498-2.263244 5.05-5.05z" fill="#000"/><path d="m195 580.37c0-4.445892 3.604108-8.05 8.05-8.05s8.05 3.604108 8.05 8.05-3.604108 8.05-8.05 8.05c-4.443608-.00551-8.04449-3.606392-8.05-8.05zm13.11 0c0-2.042534-1.230393-3.883948-3.117449-4.665592-1.887055-.781644-4.05915-.349587-5.50344 1.094703s-1.876347 3.616385-1.094703 5.50344c.781644 1.887056 2.623058 3.117449 4.665592 3.117449 2.786756-.005502 5.044498-2.263244 5.05-5.05z" fill="#000"/><path d="m521.55 312.57c-4.445892 0-8.05-3.604108-8.05-8.05s3.604108-8.05 8.05-8.05 8.05 3.604108 8.05 8.05c-.00551 4.443608-3.606392 8.04449-8.05 8.05zm0-13.11c-2.789038 0-5.05 2.260962-5.05 5.05s2.260962 5.05 5.05 5.05 5.05-2.260962 5.05-5.05c-.005502-2.786756-2.263244-5.044498-5.05-5.05z" fill="#000"/><path d="m1092.02 312.57c-4.44589 0-8.05-3.604108-8.05-8.05s3.60411-8.05 8.05-8.05 8.05 3.604108 8.05 8.05c-.00551 4.443608-3.60639 8.04449-8.05 8.05zm0-13.11c-2.78904 0-5.05 2.260962-5.05 5.05s2.26096 5.05 5.05 5.05 5.05-2.260962 5.05-5.05c-.0055-2.786756-2.26324-5.044498-5.05-5.05z" fill="#000"/><circle cx="1053.48" cy="135.87" fill="#000" r="3.32"/><circle cx="616.69" cy="138.55" fill="#000" r="3.32"/><circle cx="1189.55" cy="290.78" fill="#000" r="3.32"/><circle cx="424.02" cy="290.78" fill="#000" r="3.32"/><circle cx="901.78" cy="60.2" fill="#000" r="3.32"/><circle cx="711.78" cy="60.2" fill="#000" r="3.32"/><circle cx="875.4" cy="195.52" fill="#000" r="3.32"/><circle cx="738.17" cy="195.52" fill="#000" r="3.32"/><path d="m806.79 558.71c3.255921 0 6.191243 1.96132 7.43723 4.969398 1.245987 3.008079.557263 6.470528-1.74502 8.772812-2.302284 2.302283-5.764733 2.991007-8.772812 1.74502-3.008078-1.245987-4.969398-4.181309-4.969398-7.43723.00551-4.443608 3.606392-8.04449 8.05-8.05zm0 13.11c2.042534 0 3.883948-1.230393 4.665592-3.117449.781644-1.887055.349587-4.05915-1.094703-5.50344s-3.616385-1.876347-5.50344-1.094703c-1.887056.781644-3.117449 2.623058-3.117449 4.665592.005502 2.786756 2.263244 5.044498 5.05 5.05z" fill="#000"/><path d="m1114.93 736.15c4.43804.01657 8.02546 3.621897 8.01994 8.059963-.00553 4.438065-3.60191 8.034451-8.03998 8.039975-4.43806.005523-8.04339-3.5819-8.05996-8.019938-.00533-2.144578.84424-4.202855 2.36069-5.719306 1.51645-1.51645 3.57473-2.366022 5.71931-2.360694zm0 13.11c2.78767-.016582 5.03461-2.288893 5.01989-5.076574-.01472-2.78768-2.28553-5.036138-5.07322-5.023283s-5.03766 2.282159-5.02667 5.069857c.03293 2.778911 2.30092 5.01118 5.08 5z" fill="#000"/><path d="m498.65 736.15c4.445892 0 8.05 3.604108 8.05 8.05s-3.604108 8.05-8.05 8.05-8.05-3.604108-8.05-8.05c.00551-4.443608 3.606392-8.04449 8.05-8.05zm0 13.11c2.789038 0 5.05-2.260962 5.05-5.05s-2.260962-5.05-5.05-5.05-5.05 2.260962-5.05 5.05c.021932 2.775033 2.274886 5.014602 5.05 5.02z" fill="#000"/><path d="m1092.02 517.34c4.44589 0 8.05 3.604108 8.05 8.05s-3.60411 8.05-8.05 8.05-8.05-3.604108-8.05-8.05c.00551-4.443608 3.60639-8.04449 8.05-8.05zm0 13.11c2.04253 0 3.88395-1.230393 4.66559-3.117449.78165-1.887055.34959-4.05915-1.0947-5.50344s-3.61639-1.876347-5.50344-1.094703c-1.88706.781644-3.11745 2.623058-3.11745 4.665592.01099 2.78285 2.26713 5.034522 5.05 5.04z" fill="#000"/><path d="m521.55 512.28c4.445892 0 8.05 3.604108 8.05 8.05s-3.604108 8.05-8.05 8.05-8.05-3.604108-8.05-8.05c.00551-4.443608 3.606392-8.04449 8.05-8.05zm0 13.11c2.042534 0 3.883948-1.230393 4.665592-3.117449.781644-1.887055.349587-4.05915-1.094703-5.50344s-3.616385-1.876347-5.50344-1.094703c-1.887056.781644-3.117449 2.623058-3.117449 4.665592.005502 2.786756 2.263244 5.044498 5.05 5.05z" fill="#000"/><path d="m366.27 409.18c4.445892 0 8.05 3.604108 8.05 8.05s-3.604108 8.05-8.05 8.05-8.05-3.604108-8.05-8.05c.00551-4.443608 3.606392-8.04449 8.05-8.05zm0 13.11c2.789038 0 5.05-2.260962 5.05-5.05s-2.260962-5.05-5.05-5.05-5.05 2.260962-5.05 5.05c.010994 2.78285 2.267134 5.034522 5.05 5.04z" fill="#000"/><path d="m1247.3 409.18c4.44589 0 8.05 3.604108 8.05 8.05s-3.60411 8.05-8.05 8.05-8.05-3.604108-8.05-8.05c.00551-4.443608 3.60639-8.04449 8.05-8.05zm0 13.11c2.78904 0 5.05-2.260962 5.05-5.05s-2.26096-5.05-5.05-5.05-5.05 2.260962-5.05 5.05c.01099 2.78285 2.26713 5.034522 5.05 5.04z" fill="#000"/><circle cx="584.48" cy="691.51" fill="#000" r="3.32"/><circle cx="591.59" cy="471.34" fill="#000" r="3.32"/><circle cx="591.59" cy="337.36" fill="#000" r="3.32"/><circle cx="1031.59" cy="471.34" fill="#000" r="3.32"/><circle cx="1031.59" cy="337.36" fill="#000" r="3.32"/><circle cx="1021.27" cy="688.83" fill="#000" r="3.32"/><circle cx="412.6" cy="514.34" fill="#000" r="3.32"/><circle cx="1200.97" cy="517.65" fill="#000" r="3.32"/><circle cx="711.78" cy="756.38" fill="#000" r="3.32"/><circle cx="901.78" cy="756.38" fill="#000" r="3.32"/><circle cx="738.17" cy="631.86" fill="#000" r="3.32"/><circle cx="875.4" cy="631.86" fill="#000" r="3.32"/></g><path d="m673.41 494.82v-12.66" stroke="#fff" stroke-linecap="round" stroke-width="3"/><path d="m667.08 488.49h12.66" stroke="#fff" stroke-linecap="round" stroke-width="3"/><path d="m942.44 312.16v12.66" stroke="#fff" stroke-linecap="round" stroke-width="3"/><path d="m948.77 318.49h-12.66" stroke="#fff" stroke-linecap="round" stroke-width="3"/><path d="m673.41 324.82v-12.66" stroke="#fff" stroke-linecap="round" stroke-width="3"/><path d="m667.08 318.49h12.66" stroke="#fff" stroke-linecap="round" stroke-width="3"/><circle cx="592.49" cy="402.98" fill="#fff" fill-rule="nonzero" r="3.32"/><g fill-rule="nonzero" transform="translate(183 323)"><path d="m54.34 18.07-24-17.28c-1.158761-.83437863-2.721239-.83437863-3.88 0l-24.12 17.28c-.88403726.5942396-1.43044247 1.5755387-1.47 2.64-.01889297.1360137-.01889297.2739863 0 .41v28.3c.09690982 1.8495392 1.64849152 3.2858606 3.5 3.24h48c1.8161546.0286875 3.3243181-1.3951962 3.4-3.21v-28.73c-.0223808-1.062002-.5546101-2.0483011-1.43-2.65zm-26 15.16-24-12.92 23.83-17.08c.1148458-.07739008.2651542-.07739008.38 0l23.68 17z" fill="#000"/><path d="m52.35 49.66h-48c-.19320019-.0053084-.37501385-.092579-.5-.24v-26l23.78 12.81c.445994.2418318.984006.2418318 1.43 0l23.7-12.87v26c-.0507816.182826-.2203788.3069215-.41.3z" fill="#fff"/></g><path d="m833.72 720.75c-.546188-.535591-1.407914-.574369-2-.09l-31.29 26.37h-.05l-5.68 5.68c-4.776195.579854-8.727705 3.990007-10 8.63-1.85 6.78-4.85 9.83-4.85 9.89-.384365.380989-.5337.939484-.390777 1.461463.142922.521979.555939.926497 1.080777 1.058537 1.666969.375552 3.37128.560074 5.08.55 3.514292.097968 6.973793-.886471 9.91-2.82 3.46-2.45 5.51-6.36 6.12-11.61l5.71-5.71.06-.06 26.43-31.32c.492175-.60719.435605-1.49055-.13-2.03zm-27.51 30.1-2.59-2.62 16.52-13.93z" fill="#000" fill-rule="nonzero"/><path d="m1333.8 359.98c-.39769-.00035-.77897-.158615-1.06-.44l-1.47-1.47c-.58491-.585635-.58491-1.534365 0-2.12l1.47-1.47c.58564-.584907 1.53436-.584907 2.12 0l1.47 1.47c.58491.585635.58491 1.534365 0 2.12l-1.47 1.47c-.28103.281385-.66231.43965-1.06.44z" fill="#fff" fill-rule="nonzero"/><path d="m1363.13 389.32c-.39769-.00035-.77897-.158615-1.06-.44l-1.47-1.47c-.58491-.585635-.58491-1.534365 0-2.12l1.47-1.47c.58564-.584907 1.53436-.584907 2.12 0l1.47 1.47c.58491.585635.58491 1.534365 0 2.12l-1.47 1.47c-.28103.281385-.66231.43965-1.06.44z" fill="#fff" fill-rule="nonzero"/><path d="m1352.32 376.91c-.3928-.000324-.7698-.154715-1.05-.43l-1.61-1.59c-.40286-.372095-.57055-.934384-.43731-1.466361.13325-.531977.54619-.948832 1.07689-1.087092s1.09454.024117 1.47042.423453l1.61 1.59c.43434.426721.56763 1.073663.33734 1.637319-.23029.563655-.77846.932179-1.38734.932681z" fill="#fff" fill-rule="nonzero"/><path d="m1358.8 383.32c-.3928-.000324-.7698-.154715-1.05-.43l-.76-.75c.00004-.401314-.16074-.785908-.44639-1.067794-.28564-.281887-.67233-.437557-1.07361-.432206l-.76-.75c-.40286-.372095-.57055-.934384-.43731-1.466361.13325-.531977.54619-.948832 1.07689-1.087092s1.09454.024117 1.47042.423453l.76.75c.28752.281823.44967.667396.45 1.07.40296-.006533.79181.148287 1.08.43l.76.75c.43434.426721.56763 1.073663.33734 1.637319-.23029.563655-.77846.932179-1.38734.932681z" fill="#fff" fill-rule="nonzero"/><path d="m1362.51 386.99c-.3928-.000324-.7698-.154715-1.05-.43l-1.61-1.59c-.40286-.372095-.57055-.934384-.43731-1.466361.13325-.531977.54619-.948832 1.07689-1.087092s1.09454.024117 1.47042.423453l1.61 1.59c.43434.426721.56763 1.073663.33734 1.637319-.23029.563655-.77846.932179-1.38734.932681z" fill="#fff" fill-rule="nonzero"/><path d="m1336.14 360.83c-.39791.000756-.77959-.157678-1.06-.44l-1.59-1.6c-.3787-.380488-.52565-.934108-.38549-1.452317s.54614-.922279 1.065-1.06c.51887-.137721 1.07179.011829 1.45049.392317l1.59 1.6c.42844.428974.55652 1.073684.32457 1.633847-.23194.560163-.77829.92562-1.38457.926153z" fill="#fff" fill-rule="nonzero"/><path d="m1342.37 367.09c-.39769-.00035-.77897-.158615-1.06-.44l-.73-.73c-.01575-.801379-.65875-1.448781-1.46-1.47l-.73-.74c-.39934-.375879-.56171-.939725-.42345-1.470421s.55511-.943638 1.08709-1.076885c.53198-.133248 1.09427.034441 1.46636.437306l.73.74c.01575.801379.65875 1.448781 1.46 1.47l.73.73c.42844.428974.55652 1.073684.32457 1.633847-.23194.560163-.77829.92562-1.38457.926153z" fill="#fff" fill-rule="nonzero"/><path d="m1345.98 370.73c-.39769-.00035-.77897-.158615-1.06-.44l-1.59-1.6c-.58542-.588183-.58318-1.539578.005-2.125s1.53958-.583183 2.125.005l1.59 1.6c.42844.428974.55652 1.073684.32457 1.633847-.23194.560163-.77829.92562-1.38457.926153z" fill="#fff" fill-rule="nonzero"/><path d="m1320.91 372.33c-.63506-.003657-1.199-.406844-1.40789-1.006577-.2089-.599732-.01748-1.266021.47789-1.663423 7.54836-5.898144 18.06008-6.186081 25.92-.71.43944.307248.68158.825594.63521 1.359782s-.3742 1.003061-.86 1.23-1.05577.177467-1.49521-.129782c-6.77126-4.7248-15.83211-4.481446-22.34.6-.26523.208153-.59285.320883-.93.32z" fill="#000" fill-rule="nonzero"/><path d="m1349.06 400.49c-.57947-.000316-1.10693-.334376-1.3549-.858108-.24797-.523733-.1721-1.143452.1949-1.591892 5.22112-6.447757 5.4993-15.586626.68-22.34-.43519-.673382-.26389-1.569946.38889-2.035459.65279-.465513 1.55625-.335371 2.05111.295459 5.61421 7.857975 5.29093 18.497378-.79 26-.29081.343155-.72026.537693-1.17.53z" fill="#000" fill-rule="nonzero"/><path d="m1324.28 372.08-4.66-4.66c-.59421-.563814-1.52579-.563814-2.12 0l-4.66 4.66c-.58491.585635-.58491 1.534365 0 2.12l4.66 4.66c.58564.584907 1.53436.584907 2.12 0l4.66-4.66c.58491-.585635.58491-1.534365 0-2.12zm-5.72 3.6-2.54-2.54 2.54-2.54 2.54 2.54z" fill="#000" fill-rule="nonzero"/><path d="m1353.85 370.71-4.66-4.66c-.58564-.584907-1.53436-.584907-2.12 0l-4.66 4.66c-.58491.585635-.58491 1.534365 0 2.12l4.66 4.66c.58564.584907 1.53436.584907 2.12 0l4.66-4.66c.58491-.585635.58491-1.534365 0-2.12zm-5.72 3.6-2.54-2.54 2.54-2.54 2.54 2.54z" fill="#000" fill-rule="nonzero"/><path d="m1352.53 400.33-4.66-4.66c-.58564-.584907-1.53436-.584907-2.12 0l-4.66 4.66c-.58491.585635-.58491 1.534365 0 2.12l4.66 4.66c.58564.584907 1.53436.584907 2.12 0l4.66-4.66c.58491-.585635.58491-1.534365 0-2.12zm-5.72 3.6-2.54-2.54 2.54-2.54 2.54 2.54z" fill="#000" fill-rule="nonzero"/><g fill-rule="nonzero" transform="translate(255 709)"><path d="m24.62 54.12c-9.4641919.0763843-18.11739904-5.3315836-22.19637576-13.8720001-4.07897672-8.5404164-2.84656324-18.6698422 3.16126869-25.9830302 6.00783197-7.31318808 15.70533637-10.48848615 24.87510707-8.1449697.3877488.09458617.721814.33980307.9282618.68138025.2064477.34157718.2682533.75134662.1717382 1.13861975l-5 20.38c20.17-6.13 20.19-6.12 20.92-5.72.3603932.1969861.6242501.5331326.73.93 1.9437166 7.3161411.3787085 15.1201025-4.235628 21.1210902s-11.7544345 9.518098-19.324372 9.5189098z" fill="#000"/><path d="m24.63 8.36c-9.0181541.00218154-17.06524498 5.6627358-20.11508268 14.1495254-3.04983771 8.4867896-.44654291 17.9746979 6.50738148 23.7166526 6.9539243 5.7419546 16.7630101 6.5031264 24.5194909 1.9026791 7.7564807-4.6004472 11.7922953-13.5731696 10.0882103-22.4288571-3.66 1-13.75 4.08-20.73 6.2-.5148909.1549601-1.0733383.0224655-1.46374-.3472801-.3904018-.3697455-.5530288-.9201733-.42626-1.4427199l5.29-21.43c-1.2117765-.21260483-2.4397143-.31967297-3.67-.32z" fill="#fff"/><path d="m54.04 14.7c-2.1046409-7.22896254-7.8871148-12.79825764-15.19-14.63-.3858912-.09682711-.7944421-.03638209-1.1357641.16803604-.3413221.20441814-.5874517.53606202-.6842359.92196396l-4.74 19c-.1277157.5195308.0309451 1.0677582.4163917 1.4387764.3854467.3710181.9393256.5086578 1.4536083.3612236l18.85-5.41c.3874554-.115072.7120761-.3816358.9003225-.7393039.1882464-.3576682.2241862-.7761694.0996775-1.1606961zm-18.19 3.7 3.74-15c5.1185235 1.74960553 9.1935511 5.6853786 11.12 10.74z" fill="#000"/></g><g fill-rule="nonzero" transform="translate(393 644)"><path d="m43.85 46.43-1.82-6.26c.0044199-.0665934.0044199-.1334066 0-.2l-9.45-32.52s0-.06-.05-.1l-.6-2.05c-.9427157-3.22282136-4.3128318-5.07772606-7.54-4.15l-19.37 5.63c-1.55550945.44615948-2.86949005 1.4930624-3.65186494 2.90959248-.78237489 1.41653012-.9688055 3.08619902-.51813506 4.64040752l11.95 41.13c.4481918 1.5510739 1.4949062 2.8601918 2.9093451 3.6386959 1.4144389.7785042 3.0804404.9624594 4.6306549.5113041l19.37-5.63c3.2275806-.9422978 5.0808139-4.3219866 4.14-7.55zm-39.95-32.2-.21-.72c-.47689505-1.6374334.46299935-3.3516217 2.1-3.83l19.37-5.63c.279505-.08067691.5690865-.12108364.86-.12 1.3822292-.00891037 2.6044629.89554257 3 2.22l.21.72zm34.95 36.87-19.37 5.63c-1.6374334.4768951-3.3516217-.4629994-3.83-2.1l-1.46-5 25.3-7.35 1.46 5c.4704705 1.6342639-.4680667 3.3415078-2.1 3.82z" fill="#000"/><g fill="#fff"><path d="m27.05 46.69c-1.3325737.3876564-2.3002306 1.5401224-2.4514738 2.9196715s.543735 2.7142937 1.7606662 3.3814583 2.7159773.5352616 3.7977018-.3341648 1.5329364-2.3050257 1.1431058-3.636965c-.5314963-1.8159701-2.433165-2.858532-4.25-2.33z"/><path d="m30.04 9.74-25.28 7.34 8.61 29.64 25.28-7.34zm-21.33 11.62c-.29163254-.6686296.00063-1.4479964.66-1.76l18-5.32c.6-.18 1.27.32 1.51 1.12.2916325.6686296-.00063 1.4479964-.66 1.76l-18 5.32c-.6.17-1.28-.33-1.51-1.12zm1.94 6.57c-.2916325-.6686296.00063-1.4479964.66-1.76l18-5.32c.6-.18 1.27.32 1.51 1.12.2916325.6686296-.00063 1.4479964-.66 1.76l-18 5.32c-.6.18-1.31-.33-1.51-1.13zm1.94 6.57c-.2916325-.6686296.00063-1.4479964.66-1.76l18-5.32c.6-.18 1.27.32 1.51 1.12.2916325.6686296-.00063 1.4479964-.66 1.76l-18 5.32c-.6.17-1.25-.33-1.51-1.13zm21.45 2.37-18 5.32c-.6.18-1.27-.32-1.51-1.12-.2916325-.6686296.00063-1.4479964.66-1.76l18-5.32c.6-.18 1.27.32 1.51 1.12.2851642.665931-.0061026 1.4382293-.66 1.75z"/></g></g><g fill-rule="nonzero" transform="translate(1015 387)"><path d="m43.85 46.43-1.82-6.26c.0044199-.0665934.0044199-.1334066 0-.2l-9.45-32.52s0-.06-.05-.1l-.6-2.05c-.9427157-3.22282136-4.3128318-5.07772606-7.54-4.15l-19.37 5.63c-1.55550945.44615948-2.86949005 1.4930624-3.65186494 2.90959248-.78237489 1.41653012-.9688055 3.08619902-.51813506 4.64040752l11.95 41.13c.4481918 1.5510739 1.4949062 2.8601918 2.9093451 3.6386959 1.4144389.7785042 3.0804404.9624594 4.6306549.5113041l19.37-5.63c3.2275806-.9422978 5.0808139-4.3219866 4.14-7.55zm-39.95-32.2-.21-.72c-.47689505-1.6374334.46299935-3.3516217 2.1-3.83l19.37-5.63c.279505-.08067691.5690865-.12108364.86-.12 1.3822292-.00891037 2.6044629.89554257 3 2.22l.21.72zm34.95 36.87-19.37 5.63c-1.6374334.4768951-3.3516217-.4629994-3.83-2.1l-1.46-5 25.3-7.35 1.46 5c.4704705 1.6342639-.4680667 3.3415078-2.1 3.82z" fill="#000"/><g fill="#fff"><path d="m27.05 46.69c-1.3325737.3876564-2.3002306 1.5401224-2.4514738 2.9196715s.543735 2.7142937 1.7606662 3.3814583 2.7159773.5352616 3.7977018-.3341648 1.5329364-2.3050257 1.1431058-3.636965c-.5314963-1.8159701-2.433165-2.858532-4.25-2.33z"/><path d="m30.04 9.74-25.28 7.34 8.61 29.64 25.28-7.34zm-21.33 11.62c-.29163254-.6686296.00063-1.4479964.66-1.76l18-5.32c.6-.18 1.27.32 1.51 1.12.2916325.6686296-.00063 1.4479964-.66 1.76l-18 5.32c-.6.17-1.28-.33-1.51-1.12zm1.94 6.57c-.2916325-.6686296.00063-1.4479964.66-1.76l18-5.32c.6-.18 1.27.32 1.51 1.12.2916325.6686296-.00063 1.4479964-.66 1.76l-18 5.32c-.6.18-1.31-.33-1.51-1.13zm1.94 6.57c-.2916325-.6686296.00063-1.4479964.66-1.76l18-5.32c.6-.18 1.27.32 1.51 1.12.2916325.6686296-.00063 1.4479964-.66 1.76l-18 5.32c-.6.17-1.25-.33-1.51-1.13zm21.45 2.37-18 5.32c-.6.18-1.27-.32-1.51-1.12-.2916325-.6686296.00063-1.4479964.66-1.76l18-5.32c.6-.18 1.27.32 1.51 1.12.2851642.665931-.0061026 1.4382293-.66 1.75z"/></g></g><path d="m348.16 169.69h-44.59c-1.375289-.01084-2.697112.532078-3.667736 1.506464s-1.508424 2.298299-1.492264 3.673536v31c-.005556 2.858583 2.30146 5.183482 5.16 5.2h12.37l-1 6c-.006497.079868-.006497.160132 0 .24.059534 1.367672 1.211975 2.430776 2.58 2.38h16.65c1.368025.050776 2.520466-1.012328 2.58-2.38.006542-.079866.006542-.160134 0-.24l-1-6h12.37c2.862451-.011025 5.175537-2.337533 5.17-5.2v-31c.016059-1.37001-.517647-2.6893-1.481747-3.662797s-2.278152-1.519973-3.648253-1.517203zm-16.06 20c.013169-.108435.071209-.206378.16-.27l3.71-2.12-3.71-2.2c-.088791-.063622-.146831-.161565-.16-.27v-1.69c-.006113-.131057.061583-.254526.175366-.319846s.254542-.061519.364634.009846l6.8 4.12c.109047.076464.178621.197303.19.33v.1c-.011379.132697-.080953.253536-.19.33l-6.8 4c-.110092.071365-.250851.075166-.364634.009846s-.181479-.188789-.175366-.319846zm-8.31 3.89 3.81-12.86c.053741-.147695.192859-.247065.35-.25h1.9c.123161-.010516.242737.044712.314583.145298.071847.100585.085309.231609.035417.344702l-3.79 12.86c-.058124.144305-.194644.24182-.35.25h-1.92c-.113898.001321-.221701-.051339-.290673-.141988s-.090975-.208592-.059327-.318012zm-9.56-6.29c.011379-.132697.080953-.253536.19-.33l6.8-4.12c.110092-.071365.250851-.075166.364634-.009846s.181479.188789.175366.319846v1.69c-.013169.108435-.071209.206378-.16.27l-3.71 2.2 3.71 2.12c.088791.063622.146831.161565.16.27v1.69c.006113.131057-.061583.254526-.175366.319846s-.254542.061519-.364634-.009846l-6.8-4c-.109047-.076464-.178621-.197303-.19-.33zm3.84 29.37.91-5.61h13.77l.91 5.61zm32.26-10.81c.010777.581505-.213406 1.142784-.621829 1.556855-.408424.41407-.966573.645937-1.548171.643145h-44.59c-.579866.000099-1.13542-.232954-1.541669-.646725-.406248-.413772-.629069-.973509-.618331-1.553275v-1.57h48.92z" fill="#000" fill-rule="nonzero"/><path d="m348.16 172.69h-44.59c-.577183-.002741-1.131229.226707-1.537479.636718s-.630581.966148-.622521 1.543282v26.42h48.92v-26.41c.01083-.580599-.213659-1.14089-.622389-1.553386-.408729-.412497-.966937-.642117-1.547611-.636614zm-26.39 12.17c-.013169.108435-.071209.206378-.16.27l-3.71 2.2 3.71 2.12c.088791.063622.146831.161565.16.27v1.69c.006113.131057-.061583.254526-.175366.319846s-.254542.061519-.364634-.009846l-6.8-4c-.109047-.076464-.178621-.197303-.19-.33v-.1c.011379-.132697.080953-.253536.19-.33l6.8-4.12c.110092-.071365.250851-.075166.364634-.009846s.181479.188789.175366.319846zm8.43-3.89-3.79 12.86c-.058124.144305-.194644.24182-.35.25h-1.92c-.121262.004856-.236809-.051712-.307348-.150466-.070538-.098754-.086573-.226402-.042652-.339534l3.81-12.86c.053741-.147695.192859-.247065.35-.25h1.9c.125908-.012505.248763.043919.321322.147575.072559.103655.083524.238402.028678.352425zm9.44 6.43c-.011379.132697-.080953.253536-.19.33l-6.8 4c-.110092.071365-.250851.075166-.364634.009846s-.181479-.188789-.175366-.319846v-1.69c.013169-.108435.071209-.206378.16-.27l3.71-2.12-3.71-2.2c-.088791-.063622-.146831-.161565-.16-.27v-1.69c-.006113-.131057.061583-.254526.175366-.319846s.254542-.061519.364634.009846l6.8 4.12c.109047.076464.178621.197303.19.33z" fill="#fff" fill-rule="nonzero"/><path d="m793.85 768.99c-3.3 2.34-7.56 2.42-10.17 2.17 1.778355-2.771706 3.10175-5.810115 3.92-9 .904469-3.388793 3.74717-5.908639 7.22-6.4l3.86 3.86c-.56 4.32-2.18 7.46-4.83 9.37z" fill="#fff" fill-rule="nonzero"/><path d="m798.030614 751.782509h5.58v3.93h-5.58z" fill="#fff" fill-rule="nonzero" transform="matrix(.70735356 -.70685991 .70685991 .70735356 -298.4366 786.64951)"/><path d="m843.18 79.44c-.323854-.7628645-.939685-1.3642903-1.71-1.67l-36.91-14.72c-1.601576-.6367176-3.416536.1411226-4.06 1.74l-10.52 26.58-2.82-1.14c-.369946-.1475688-.783394-.1419464-1.149191.0156277-.365797.157574-.653906.4541608-.800809.8243723l-1 2.52c-.325093.8128717-.313858 1.7216105.031232 2.5261965.345091.804586.995752 1.4390722 1.808768 1.7638035l44.86 17.9c1.695495.67766 3.619509-.14564 4.3-1.84l1-2.52c.147569-.369946.141946-.783394-.015628-1.149191s-.45416-.653906-.824372-.800809l-2.67-1.07 10.51-26.57c.30876-.7688573.297962-1.629135-.03-2.39zm-23.72 11.53c.734946.2930027 1.324389.8644749 1.64 1.59.641806 1.5133845-.05384 3.2614183-1.56 3.92-.730384.3000541-1.549616.3000541-2.28 0-1.126616-.2894261-1.984384-1.2040222-2.201044-2.3468655-.216659-1.1428433.246846-2.3079251 1.189359-2.9896149.942513-.6816897 2.194138-.7571062 3.211685-.1935196zm-7.08-14.05c.607936-1.5404661 2.349136-2.2969257 3.89-1.69 1.126616.2894261 1.984384 1.2040222 2.201044 2.3468655.216659 1.1428433-.246846 2.3079251-1.189359 2.9896149-.942513.6816897-2.194138.7571062-3.211685.1935196-1.514923-.611776-2.261771-2.3233032-1.68-3.85zm-25.22 18.19c-.076909-.0288429-.138627-.0879587-.170755-.163554s-.031855-.1610575.000755-.236446l.45-1.12 18.85 7.52c-.045373.756733.256463 1.49292.82 2zm20.58-14.1c-.623691 1.5247722-2.360239 2.2613543-3.89 1.65-1.131271-.44806-1.87986-1.535055-1.895056-2.7517315-.015195-1.2166764.706013-2.322028 1.825742-2.7982012 1.119728-.4761731 2.416174-.2288447 3.281957.6261128.865783.8549574 1.129404 2.1481889.667357 3.2738199zm25.11 30.7-.45 1.12c-.028193.075945-.085902.13726-.16.17-.07383.029493-.15617.029493-.23 0l-19.95-8c.744682.023971 1.460684-.288132 1.95-.85zm0-22.4c-.623653 1.5193336-2.353053 2.2547743-3.88 1.65-1.525681-.6118777-2.274828-2.337591-1.68-3.87.297546-.7330481.872605-1.31889 1.6-1.63 1.513384-.641806 3.261418.0538401 3.92 1.56.322339.7265429.336769 1.552643.04 2.29z" fill="#000" fill-rule="nonzero"/><path d="m840.36 80.56-36.91-14.73c-.063399-.0212983-.132614.0089829-.16.07l-10.52 26.58 15.9 6.34c.370212.1469027.666798.4350119.824372.8008088s.163197.7792452.015628 1.1491912l-.06.15 2.41 1 .06-.15c.146903-.370212.435012-.666798.800809-.824372s.779245-.163197 1.149191-.015628l16 6.4 10.52-26.58c.041979-.0612653.028813-.1446491-.03-.19zm-32.61.44c-.619781 1.5341529-2.364665 2.2768475-3.9 1.66-1.131271-.44806-1.87986-1.535055-1.895056-2.7517315-.015195-1.2166764.706013-2.322028 1.825742-2.7982012 1.119728-.4761731 2.416174-.2288447 3.281957.6261128.865783.8549574 1.129404 2.1481889.667357 3.2738199zm6.32-.22c-1.525681-.6118777-2.274828-2.337591-1.68-3.87.611898-1.5310969 2.344751-2.2814043 3.88-1.68 1.126616.2894261 1.984384 1.2040222 2.201044 2.3468655.216659 1.1428433-.246846 2.3079251-1.189359 2.9896149-.942513.6816897-2.194138.7571062-3.211685.1935196zm7.07 14.05c-.291856.7367652-.868783 1.3245091-1.6 1.63-.730384.3000541-1.549616.3000541-2.28 0-1.282078-.4857067-2.071765-1.7787667-1.918338-3.1411524.153426-1.3623858 1.210925-2.4474233 2.568917-2.635816 1.357992-.1883926 2.670922.567798 3.189421 1.8369684.323966.7366661.338378 1.5726038.04 2.32zm11.71-5.52c-.623653 1.5193336-2.353053 2.2547743-3.88 1.65-1.525681-.6118777-2.274828-2.337591-1.68-3.87.297546-.7330481.872605-1.31889 1.6-1.63 1.513384-.641806 3.261418.0538401 3.92 1.56.322339.7265429.336769 1.552643.04 2.29z" fill="#fff" fill-rule="nonzero"/><path d="m812.93 79.96c-.700748-.8124496-.914274-1.937275-.56-2.95l-5.15.94c.700748.8124496.914274 1.937275.56 2.95z" fill="#000" fill-rule="nonzero"/><path d="m819.32 90.92-2.17-10.69c-.80155.7143039-1.929584.9330046-2.94.57l2.17 10.68c.810266-.6970757 1.930215-.9103994 2.94-.56z" fill="#000" fill-rule="nonzero"/><path d="m828.35 90.65c-.883444-.6078512-1.375255-1.6410338-1.29-2.71l-7 3.33c.470515.3169175.84153.760748 1.07 1.28.194718.4500279.273784.9416116.23 1.43z" fill="#000" fill-rule="nonzero"/><g fill-rule="nonzero" transform="translate(1262 110)"><path d="m55.31 13.94c-.2810347-.281385-.6623093-.4396499-1.06-.44h-5.33v-5.4c0-.82842712-.6715729-1.5-1.5-1.5h-5.1l.24-1.83c.0533587-.40782911-.0630894-.8196774-.3220992-1.13918585s-.6378559-.51864353-1.0479008-.55081415l-32.12-2.57c-.40297818-.03299578-.80221123.09808942-1.10719681.36353983-.30498559.26545042-.48989217.64278305-.51280319 1.04646017l-.27 4.68h-4.92c-.82842712 0-1.5.67157288-1.5 1.5v33.86c0 .8284271.67157288 1.5 1.5 1.5h1.74l-.51 4.07c-.05634404.4078137.05740293.8208603.31458215 1.1423343s.63518258.5231154 1.04541785.5576657l32.12 2.6h.12c.7798977-.0027 1.4276125-.602597 1.49-1.38v-.22h15.49c.8245375.0000183 1.4945031-.6654808 1.5-1.49l.14-33.7c.0211282-.405705-.123208-.8026296-.4-1.1zm-32 11.66c-.4011429 3.3111279-3.3315689 5.7238394-6.6581163 5.4818357-3.3265475-.2420037-5.8769209-3.053439-5.7946125-6.3877618.0823083-3.3343229 2.7682925-6.0164978 6.1027288-6.0940739l-.65 5.33c-.0628129.5336331.1646027 1.0601037.5961849 1.3801765.4315821.3200729 1.0014003.3848523 1.4938151.1698235 1.84-.81 3.73-1.64 4.8-2.09.1200254.7303186.1469067 1.4729146.08 2.21zm17.33 6.56h-9c-.8284271 0-1.5-.6715729-1.5-1.5s.6715729-1.5 1.5-1.5h9c.8284271 0 1.5.6715729 1.5 1.5s-.6715729 1.5-1.5 1.5zm0-6.77h-9c-.8284271 0-1.5-.6715729-1.5-1.5s.6715729-1.5 1.5-1.5h9c.8284271 0 1.5.6715729 1.5 1.5s-.6715729 1.5-1.5 1.5zm0-6.77h-9c-.8284271 0-1.5-.6715729-1.5-1.5s.6715729-1.5 1.5-1.5h9c.8284271 0 1.5.6715729 1.5 1.5s-.6715729 1.5-1.5 1.5z" fill="#000"/><g fill="#fff"><path d="m10.36 3.61 29.02 2.32-.09.66h-29.1z"/><path d="m6.67 46.34.36-2.89h29.13l-.43 5.24z"/><path d="m52.61 47.23h-13.76l.31-3.75h8.24c.8284271 0 1.5-.6715729 1.5-1.5v-25.49h3.82z"/><path d="m3.76 9.58v30.86h42.15v-30.86zm19.52 16c-.4011429 3.3111279-3.3315689 5.7238394-6.6581163 5.4818357-3.3265475-.2420037-5.8769209-3.053439-5.7946125-6.3877618.0823083-3.3343229 2.7682925-6.0164978 6.1027288-6.0940739l-.65 5.33c-.0628129.5336331.1646027 1.0601037.5961849 1.3801765.4315821.3200729 1.0014003.3848523 1.4938151.1698235 1.84-.81 3.73-1.64 4.8-2.09.1317424.7355863.1687099 1.4850192.11 2.23zm17.33 6.56h-9c-.8284271 0-1.5-.6715729-1.5-1.5s.6715729-1.5 1.5-1.5h9c.8284271 0 1.5.6715729 1.5 1.5s-.6715729 1.5-1.5 1.5zm0-6.77h-9c-.8284271 0-1.5-.6715729-1.5-1.5s.6715729-1.5 1.5-1.5h9c.8284271 0 1.5.6715729 1.5 1.5s-.6715729 1.5-1.5 1.5zm0-6.77h-9c-.8284271 0-1.5-.6715729-1.5-1.5s.6715729-1.5 1.5-1.5h9c.8284271 0 1.5.6715729 1.5 1.5s-.6715729 1.5-1.5 1.5z"/></g><path d="m23.72 23.1v-1.5z" fill="#000"/><path d="m23.72 20.1c-.45 0-.54 0-4.14 1.58l.45-3.67c.0871512-.5843921-.0885588-1.1774131-.48-1.62-.6721098-.6120376-1.5777211-.9005186-2.48-.79-4.962042.0043216-9.03675986 3.9231135-9.23458944 8.8812123-.19782957 4.9580987 3.55170994 9.1890807 8.49763324 9.588733 4.9459234.3996524 9.3261447-3.1744092 9.9269562-8.0999453 0 0 .35-3.64-1-5.15-.3857523-.450498-.9469548-.7128784-1.54-.72zm-.44 5.51c-.4011429 3.3111279-3.3315689 5.7238394-6.6581163 5.4818357-3.3265475-.2420037-5.8769209-3.053439-5.7946125-6.3877618.0823083-3.3343229 2.7682925-6.0164978 6.1027288-6.0940739l-.65 5.33c-.0628129.5336331.1646027 1.0601037.5961849 1.3801765.4315821.3200729 1.0014003.3848523 1.4938151.1698235 1.84-.81 3.73-1.64 4.8-2.09.1291945.7257717.1661539 1.4649609.11 2.2z" fill="#000"/></g><path d="m1439.52 423.82c0 4.445892-3.60411 8.05-8.05 8.05s-8.05-3.604108-8.05-8.05 3.60411-8.05 8.05-8.05c4.44361.00551 8.04449 3.606392 8.05 8.05zm-13.11 0c0 2.789038 2.26096 5.05 5.05 5.05s5.05-2.260962 5.05-5.05-2.26096-5.05-5.05-5.05c-2.78676.005502-5.0445 2.263244-5.05 5.05z" fill="#000" fill-rule="nonzero"/><path d="m1400.16 583c0 4.445892-3.60411 8.05-8.05 8.05s-8.05-3.604108-8.05-8.05 3.60411-8.05 8.05-8.05c4.44361.00551 8.04449 3.606392 8.05 8.05zm-13.11 0c0 2.042534 1.23039 3.883948 3.11745 4.665592 1.88705.781644 4.05915.349587 5.50344-1.094703s1.87635-3.616385 1.0947-5.50344c-.78164-1.887056-2.62306-3.117449-4.66559-3.117449-2.78676.005502-5.0445 2.263244-5.05 5.05z" fill="#000" fill-rule="nonzero"/><path d="m1400.16 264.64c0 4.445892-3.60411 8.05-8.05 8.05s-8.05-3.604108-8.05-8.05 3.60411-8.05 8.05-8.05c4.44361.00551 8.04449 3.606392 8.05 8.05zm-13.11 0c0 2.042534 1.23039 3.883948 3.11745 4.665592 1.88705.781644 4.05915.349587 5.50344-1.094703s1.87635-3.616385 1.0947-5.50344c-.78164-1.887056-2.62306-3.117449-4.66559-3.117449-2.78676.005502-5.0445 2.263244-5.05 5.05z" fill="#000" fill-rule="nonzero"/><path d="m1006.2 68.09v12.67" stroke="#fff" stroke-linecap="round" stroke-width="3"/><path d="m1012.53 74.43h-12.67" stroke="#fff" stroke-linecap="round" stroke-width="3"/><path d="m605.37 68.09v12.67" stroke="#fff" stroke-linecap="round" stroke-width="3"/><path d="m611.7 74.43h-12.66" stroke="#fff" stroke-linecap="round" stroke-width="3"/><path d="m1006.2 738.09v12.67" stroke="#fff" stroke-linecap="round" stroke-width="3"/><path d="m1012.53 744.43h-12.67" stroke="#fff" stroke-linecap="round" stroke-width="3"/><path d="m605.37 738.09v12.67" stroke="#fff" stroke-linecap="round" stroke-width="3"/><path d="m611.7 744.43h-12.66" stroke="#fff" stroke-linecap="round" stroke-width="3"/></g></svg>