<?xml version="1.0" encoding="UTF-8"?>
<svg width="160px" height="24px" viewBox="0 0 160 24" version="1.1" xmlns="http://www.w3.org/2000/svg" xmlns:xlink="http://www.w3.org/1999/xlink">
    <!-- Generator: Sketch 39.1 (31720) - http://www.bohemiancoding.com/sketch -->
    <title>logo</title>
    <desc>Created with Sketch.</desc>
    <defs></defs>
    <g id="Features" stroke="none" stroke-width="1" fill="none" fill-rule="evenodd">
        <g transform="translate(-269.000000, -25.000000)" id="white-logo" fill="#FFFFFF">
            <g transform="translate(269.000000, 24.000000)">
                <path d="M18.4558735,2.26324462 C18.4558735,2.34161227 18.3799956,1.0392282 17.209168,1.00013509 L3.49540739,1.00013509 C4.04895941,1.0088696 2.71382839,0.848980957 3.49540739,2.26324462 L7.23552392,6.05257321 C7.12361281,5.45134515 1.56664777,8.41709153 1.00199637,14.8943399 C1.06210342,14.6028737 -0.00571067646,21.7808039 7.23552392,23.7361066 C6.86007524,24.2875572 8.8503435,25.0274397 10.9756405,24.9992162 C10.373861,24.9983822 12.1912963,24.9331834 10.9756405,23.7361066 C10.5496012,23.9320724 6.18676801,21.5405373 7.23552392,18.6836685 C7.47494778,19.2230194 7.91117295,16.4991299 13.4690515,12.3681209 L17.209168,16.1574495 C17.3137805,15.9356164 18.1427682,16.8619875 18.4558735,16.1574495 L18.4558735,2.26324462 Z" id="箭头"></path>
                <path d="M39.9011374,13.376843 C39.9011374,12.4971399 39.6545577,11.8207117 39.1613908,11.3475381 C38.6682239,10.8743644 38.101757,10.6377812 37.4619729,10.6377812 C36.8221889,10.6377812 36.2557219,10.8776966 35.762555,11.3575346 C35.2693881,11.8373727 35.0228084,12.517133 35.0228084,13.3968361 C35.0228084,14.2765392 35.2693881,14.9529674 35.762555,15.426141 C36.2557219,15.8993146 36.8221889,16.1358979 37.4619729,16.1358979 C38.101757,16.1358979 38.6682239,15.8959825 39.1613908,15.4161444 C39.6545577,14.9363064 39.9011374,14.256546 39.9011374,13.376843 L39.9011374,13.376843 Z M31.544,13.3968361 C31.544,11.7307318 32.0371595,10.3612146 33.0234932,9.28824342 C34.009827,8.21527225 35.2127362,7.67879471 36.6322571,7.67879471 C38.051778,7.67879471 39.1413939,8.20527577 39.9011374,9.2582537 L39.9011374,7.79875362 L43.3199664,7.79875362 L43.3199664,18.9549323 L39.9011374,18.9549323 L39.9011374,17.335487 C39.0747497,18.5084244 37.968473,19.0948844 36.5822742,19.0948844 C35.1960755,19.0948844 34.009827,18.561739 33.0234932,17.4954322 C32.0371595,16.4291255 31.544,15.0629404 31.544,13.3968361 L31.544,13.3968361 Z M49.7377681,7.79875362 L49.7377681,9.43819206 C50.4441963,8.26525463 51.5704659,7.67879471 53.1166107,7.67879471 C54.3961788,7.67879471 55.4324802,8.10531101 56.2255458,8.95835642 C57.0186115,9.81140183 57.4151384,10.970993 57.4151384,12.4371648 L57.4151384,18.9549323 L54.0163026,18.9549323 L54.0163026,12.8970073 C54.0163026,12.1772503 53.8263695,11.6207798 53.4464977,11.2275791 C53.066626,10.8343785 52.5434771,10.6377812 51.8770353,10.6377812 C51.2105936,10.6377812 50.6874447,10.8343785 50.3075729,11.2275791 C49.9277011,11.6207798 49.7377681,12.1772503 49.7377681,12.8970073 L49.7377681,18.9549323 L46.3189391,18.9549323 L46.3189391,7.79875362 L49.7377681,7.79875362 Z M63.2331455,18.7350076 L58.8946316,7.79875362 L62.773303,7.79875362 L65.2524539,15.096254 L67.9715225,7.79875362 L71.5502967,7.79875362 L64.4327346,24.2731107 L60.8539605,24.2731107 L63.2331455,18.7350076 Z M72.3700159,11.1576031 C72.3700159,10.1712694 72.7898679,9.34489402 73.6295844,8.6784523 C74.469301,8.01201057 75.6055671,7.67879471 77.0384168,7.67879471 C78.4712665,7.67879471 79.6275256,8.00534625 80.5072286,8.65845914 C81.3869317,9.31157203 81.8534339,10.2045905 81.9067493,11.3375415 L78.4079477,11.3375415 C78.3679612,10.9510053 78.2346749,10.6877647 78.0080847,10.547812 C77.7814945,10.4078592 77.4416143,10.3378839 76.9884339,10.3378839 C76.095402,10.3378839 75.6488928,10.6111209 75.6488928,11.1576031 C75.6488928,11.65077 76.1953668,11.9906502 77.2883312,12.1772539 C78.3946245,12.3638575 79.4009364,12.6504232 80.3072971,13.0369594 C80.7738063,13.2235631 81.1636689,13.5334538 81.4768965,13.9666409 C81.7901241,14.3998281 81.9467356,14.9296413 81.9467356,15.5560965 C81.9467356,16.5957456 81.5002263,17.445446 80.6071944,18.1052233 C79.7141625,18.7650007 78.5878929,19.0948844 77.2283518,19.0948844 C75.8688106,19.0948844 74.7358767,18.7849936 73.829516,18.1652028 C72.9231552,17.545412 72.4299957,16.6290684 72.3500227,15.4161444 L75.8488243,15.4161444 C75.9421261,16.095915 76.421957,16.4357952 77.2883312,16.4357952 C77.6881962,16.4357952 78.0180799,16.3424947 78.2779922,16.1558911 C78.5379045,15.9692874 78.6678587,15.7293719 78.6678587,15.4361376 C78.6678587,15.1429032 78.4512684,14.9096521 78.0180812,14.7363773 C77.5848941,14.5631024 77.0617452,14.4164874 76.4486188,14.2965279 C75.8354924,14.1765684 75.2190431,14.0266213 74.5992523,13.846682 C73.9794615,13.6667428 73.4529804,13.3535198 73.0197933,12.9070039 C72.5866062,12.4604879 72.3700159,11.8773602 72.3700159,11.1576031 L72.3700159,11.1576031 Z M87.6447838,4.16 L87.6447838,9.43819206 C88.351212,8.26525463 89.4774817,7.67879471 91.0236265,7.67879471 C92.3031946,7.67879471 93.3394959,8.10531101 94.1325616,8.95835642 C94.9256272,9.81140183 95.3221541,10.970993 95.3221541,12.4371648 L95.3221541,18.9549323 L91.9233183,18.9549323 L91.9233183,12.8970073 C91.9233183,12.1772503 91.7333852,11.6207798 91.3535135,11.2275791 C90.9736417,10.8343785 90.4504928,10.6377812 89.7840511,10.6377812 C89.1176093,10.6377812 88.5944604,10.8343785 88.2145886,11.2275791 C87.8347169,11.6207798 87.6447838,12.1772503 87.6447838,12.8970073 L87.6447838,18.9549323 L84.2259549,18.9549323 L84.2259549,4.16 L87.6447838,4.16 Z M105.598634,13.376843 C105.598634,12.4704822 105.365383,11.7807254 104.898874,11.3075518 C104.432365,10.8343781 103.879226,10.5977949 103.239442,10.5977949 C102.599658,10.5977949 102.049852,10.8343781 101.590007,11.3075518 C101.130162,11.7807254 100.900243,12.4704822 100.900243,13.376843 C100.900243,14.2832037 101.136827,14.9762927 101.61,15.4561307 C102.083174,15.9359688 102.639644,16.1758842 103.279428,16.1758842 C103.919213,16.1758842 104.465687,15.9359688 104.918867,15.4561307 C105.372047,14.9762927 105.598634,14.2832037 105.598634,13.376843 L105.598634,13.376843 Z M97.421435,13.3568498 C97.421435,11.6374302 97.9812377,10.2612486 99.1008598,9.22826397 C100.220482,8.1952793 101.60666,7.67879471 103.259435,7.67879471 C104.912211,7.67879471 106.295057,8.1952793 107.408014,9.22826397 C108.520972,10.2612486 109.077442,11.6374302 109.077442,13.3568498 C109.077442,15.0762695 108.524304,16.4624474 107.418011,17.5154254 C106.311718,18.5684033 104.932204,19.0948844 103.279428,19.0948844 C101.626653,19.0948844 100.237143,18.5684033 99.1108563,17.5154254 C97.9845698,16.4624474 97.421435,15.0762695 97.421435,13.3568498 L97.421435,13.3568498 Z M114.695518,7.79875362 L114.695518,9.8780414 C115.495248,8.41186961 116.561539,7.67879471 117.894422,7.67879471 L117.894422,11.1576031 L117.05471,11.1576031 C116.268309,11.1576031 115.678517,11.344204 115.285316,11.7174114 C114.892115,12.0906187 114.695518,12.7437218 114.695518,13.6767402 L114.695518,18.9549323 L111.276689,18.9549323 L111.276689,7.79875362 L114.695518,7.79875362 Z M124.492162,16.0559253 L125.711745,16.0559253 L125.711745,18.9549323 L123.972341,18.9549323 C122.71943,18.9549323 121.749772,18.6783631 121.063337,18.1252165 C120.376902,17.5720699 120.03369,16.6224047 120.03369,15.2761924 L120.03369,10.6377812 L118.994046,10.6377812 L118.994046,7.79875362 L120.03369,7.79875362 L120.03369,5.07968498 L123.452519,5.07968498 L123.452519,7.79875362 L125.691752,7.79875362 L125.691752,10.6377812 L123.452519,10.6377812 L123.452519,15.2761924 C123.452519,15.7960169 123.799063,16.0559253 124.492162,16.0559253 L124.492162,16.0559253 Z M127.231224,13.376843 C127.231224,11.6440945 127.747709,10.2612486 128.780694,9.22826397 C129.813678,8.1952793 131.149874,7.67879471 132.78932,7.67879471 C134.148862,7.67879471 135.301788,8.01534273 136.248136,8.68844887 C137.194483,9.36155501 137.820929,10.3245489 138.127492,11.5774593 L134.428759,11.5774593 C134.108867,10.9110176 133.585718,10.5778017 132.859296,10.5778017 C132.132875,10.5778017 131.593065,10.8343779 131.239851,11.3475381 C130.886637,11.8606982 130.710033,12.5371264 130.710033,13.376843 C130.710033,14.2165595 130.886637,14.8929877 131.239851,15.4061479 C131.593065,15.919308 132.10955,16.1758842 132.78932,16.1758842 C133.215843,16.1758842 133.549059,16.1025767 133.788978,15.9559595 C134.028897,15.8093424 134.242155,15.549434 134.428759,15.1762266 L138.127492,15.1762266 C137.820929,16.3758217 137.187819,17.3288191 136.228143,18.0352473 C135.268466,18.7416755 134.122204,19.0948844 132.78932,19.0948844 C131.149874,19.0948844 129.813678,18.5750676 128.780694,17.5354185 C127.747709,16.4957694 127.231224,15.1095914 127.231224,13.376843 L127.231224,13.376843 Z M147.624239,7.79875362 L151.043068,7.79875362 L151.043068,18.9549323 L147.624239,18.9549323 L147.624239,17.3154939 C146.917811,18.4884313 145.791541,19.0748912 144.245396,19.0748912 C142.965828,19.0748912 141.929527,18.6483749 141.136461,17.7953295 C140.343396,16.9422841 139.946869,15.7826929 139.946869,14.3165211 L139.946869,7.79875362 L143.345705,7.79875362 L143.345705,13.8566786 C143.345705,14.5764357 143.535638,15.1329062 143.915509,15.5261068 C144.295381,15.9193074 144.81853,16.1159047 145.484972,16.1159047 C146.151414,16.1159047 146.674562,15.9193074 147.054434,15.5261068 C147.434306,15.1329062 147.624239,14.5764357 147.624239,13.8566786 L147.624239,7.79875362 Z M158.780418,16.0559253 L160,16.0559253 L160,18.9549323 L158.260596,18.9549323 C157.007685,18.9549323 156.038027,18.6783631 155.351592,18.1252165 C154.665157,17.5720699 154.321945,16.6224047 154.321945,15.2761924 L154.321945,10.6377812 L153.282301,10.6377812 L153.282301,7.79875362 L154.321945,7.79875362 L154.321945,5.07968498 L157.740774,5.07968498 L157.740774,7.79875362 L159.980007,7.79875362 L159.980007,10.6377812 L157.740774,10.6377812 L157.740774,15.2761924 C157.740774,15.7960169 158.087318,16.0559253 158.780418,16.0559253 L158.780418,16.0559253 Z" id="anyshortcut"></path>
            </g>
        </g>
    </g>
</svg>