<svg height="24" viewBox="0 0 160 24" width="160" xmlns="http://www.w3.org/2000/svg"><g fill="#5778e2" fill-rule="evenodd" transform="translate(0 -1)"><path d="m18.4558735 2.26324462c0 .07836765-.0758779-1.22401642-1.2467055-1.26310953h-13.71376061c.55355202.00873451-.781579-.15115413 0 1.26310953l3.74011653 3.78932859c-.11191111-.60122806-5.66887615 2.36451832-6.23352755 8.84176669.06010705-.2914662-1.00770705 6.886464 6.23352755 8.8417667-.37544868.5514506 1.61481958 1.2913331 3.74011658 1.2631096-.6017795-.000834 1.2156558-.0660328 0-1.2631096-.4260393.1959658-4.78887249-2.1955693-3.74011658-5.0524381.23942386.5393509.67564903-2.1845386 6.23352758-6.3155476l3.7401165 3.7893286c.1046125-.2218331.9336002.704538 1.2467055 0z"/><path d="m39.9011374 13.376843c0-.8797031-.2465797-1.5561313-.7397466-2.0293049-.4931669-.4731737-1.0596338-.7097569-1.6994179-.7097569-.639784 0-1.206251.2399154-1.6994179.7197534-.4931669.4798381-.7397466 1.1595984-.7397466 2.0393015s.2465797 1.5561313.7397466 2.0293049 1.0596339.7097569 1.6994179.7097569c.6397841 0 1.206251-.2399154 1.6994179-.7197535.4931669-.479838.7397466-1.1595984.7397466-2.0393014zm-8.3571374.0199931c0-1.6661043.4931595-3.0356215 1.4794932-4.10859268.9863338-1.07297117 2.189243-1.60944871 3.6087639-1.60944871s2.5091368.52648106 3.2688803 1.57945899v-1.45950008h3.418829v11.15617868h-3.418829v-1.6194453c-.8263877 1.1729374-1.9326644 1.7593974-3.3188632 1.7593974-1.3861987 0-2.5724472-.5331454-3.558781-1.5994522-.9863337-1.0663067-1.4794932-2.4324918-1.4794932-4.0985961zm18.1937681-5.59808248v1.63943844c.7064282-1.17293743 1.8326978-1.75939735 3.3788426-1.75939735 1.2795681 0 2.3158695.4265163 3.1089351 1.27956171.7930657.85304541 1.1895926 2.01263658 1.1895926 3.47880838v6.5177675h-3.3988358v-6.057925c0-.719757-.1899331-1.2762275-.5698049-1.6694282-.3798717-.3932006-.9030206-.5897979-1.5694624-.5897979-.6664417 0-1.1895906.1965973-1.5694624.5897979-.3798718.3932007-.5698048.9496712-.5698048 1.6694282v6.057925h-3.418829v-11.15617868zm13.4953774 10.93625398-4.3385139-10.93625398h3.8786714l2.4791509 7.29750038 2.7190686-7.29750038h3.5787742l-7.1175621 16.47435708h-3.5787741zm9.1368704-7.5774045c0-.9863337.419852-1.81270908 1.2595685-2.4791508.8397166-.66644173 1.9759827-.99965759 3.4088324-.99965759s2.5891088.32655154 3.4688118.97966443c.8797031.65311289 1.3462053 1.54613136 1.3995207 2.67908236h-3.4988016c-.0399865-.3865362-.1732728-.6497768-.399863-.7897295-.2265902-.1399528-.5664704-.2099281-1.0196508-.2099281-.8930319 0-1.3395411.273237-1.3395411.8197192 0 .4931669.546474.8330471 1.6394384 1.0196508 1.1062933.1866036 2.1126052.4731693 3.0189659.8597055.4665092.1866037.8563718.4964944 1.1695994.9296815.3132276.4331872.4698391.9630004.4698391 1.5894556 0 1.0396491-.4465093 1.8893495-1.3395412 2.5491268-.8930319.6597774-2.0193015.9896611-3.3788426.9896611-1.3595412 0-2.4924751-.3098908-3.3988358-.9296816-.9063608-.6197908-1.3995203-1.5361344-1.4794933-2.7490584h3.4988016c.0933018.6797706.5731327 1.0196508 1.4395069 1.0196508.399865 0 .7297487-.0933005.989661-.2799041.2599123-.1866037.3898665-.4265192.3898665-.7197535 0-.2932344-.2165903-.5264855-.6497775-.6997603-.4331871-.1732749-.956336-.3198899-1.5694624-.4398494s-1.2295757-.2699066-1.8493665-.4498459c-.6197908-.1799392-1.1462719-.4931622-1.579459-.9396781-.4331871-.446516-.6497774-1.0296437-.6497774-1.7494008zm15.2747679-6.9976031v5.27819206c.7064282-1.17293743 1.8326979-1.75939735 3.3788427-1.75939735 1.2795681 0 2.3158694.4265163 3.1089351 1.27956171.7930656.85304541 1.1895925 2.01263658 1.1895925 3.47880838v6.5177675h-3.3988358v-6.057925c0-.719757-.1899331-1.2762275-.5698048-1.6694282-.3798718-.3932006-.9030207-.5897979-1.5694624-.5897979-.6664418 0-1.1895907.1965973-1.5694625.5897979-.3798717.3932007-.5698048.9496712-.5698048 1.6694282v6.057925h-3.4188289v-14.7949323zm17.9538502 9.216843c0-.9063608-.233251-1.5961176-.69976-2.0692912-.466509-.4731737-1.019648-.7097569-1.659432-.7097569s-1.18959.2365832-1.649435.7097569c-.459845.4731736-.689764 1.1629304-.689764 2.0692912 0 .9063607.236584 1.5994497.709757 2.0792877.473174.4798381 1.029644.7197535 1.669428.7197535.639785 0 1.186259-.2399154 1.639439-.7197535.45318-.479838.679767-1.172927.679767-2.0792877zm-8.177199-.0199932c0-1.7194196.5598027-3.0956012 1.6794248-4.12858583 1.1196222-1.03298467 2.5058002-1.54946926 4.1585752-1.54946926 1.652776 0 3.035622.51648459 4.148579 1.54946926 1.112958 1.03298463 1.669428 2.40916623 1.669428 4.12858583 0 1.7194197-.553138 3.1055976-1.659431 4.1585756-1.106293 1.0529779-2.485807 1.579459-4.138583 1.579459-1.652775 0-3.042285-.5264811-4.1685717-1.579459-1.1262865-1.052978-1.6894213-2.4391559-1.6894213-4.1585756zm17.274083-5.55809618v2.07928778c.79973-1.46617179 1.866021-2.19924669 3.198904-2.19924669v3.47880839h-.839712c-.786401 0-1.376193.1866009-1.769394.5598083-.393201.3732073-.589798 1.0263104-.589798 1.9593288v5.2781921h-3.418829v-11.15617868zm9.796644 8.25717168h1.219583v2.899007h-1.739404c-1.252911 0-2.222569-.2765692-2.909004-.8297158s-1.029647-1.5028118-1.029647-2.8490241v-4.6384112h-1.039644v-2.83902758h1.039644v-2.71906864h3.418829v2.71906864h2.239233v2.83902758h-2.239233v4.6384112c0 .5198245.346544.7797329 1.039643.7797329zm2.739062-2.6790823c0-1.7327485.516485-3.1155944 1.54947-4.14857903 1.032984-1.03298467 2.36918-1.54946926 4.008626-1.54946926 1.359542 0 2.512468.33654802 3.458816 1.00965416.946347.67310614 1.572793 1.63610003 1.879356 2.88901043h-3.698733c-.319892-.6664417-.843041-.9996576-1.569463-.9996576-.726421 0-1.266231.2565762-1.619445.7697364-.353214.5131601-.529818 1.1895883-.529818 2.0293049 0 .8397165.176604 1.5161447.529818 2.0293049.353214.5131601.869699.7697363 1.549469.7697363.426523 0 .759739-.0733075.999658-.2199247.239919-.1466171.453177-.4065255.639781-.7797329h3.698733c-.306563 1.1995951-.939673 2.1525925-1.899349 2.8590207-.959677.7064282-2.105939 1.0596371-3.438823 1.0596371-1.639446 0-2.975642-.5198168-4.008626-1.5594659-1.032985-1.0396491-1.54947-2.4258271-1.54947-4.1585755zm20.393015-5.57808938h3.418829v11.15617868h-3.418829v-1.6394384c-.706428 1.1729374-1.832698 1.7593973-3.378843 1.7593973-1.279568 0-2.315869-.4265163-3.108935-1.2795617-.793065-.8530454-1.189592-2.0126366-1.189592-3.4788084v-6.51776748h3.398836v6.05792498c0 .7197571.189933 1.2762276.569804 1.6694282.379872.3932006.903021.5897979 1.569463.5897979s1.18959-.1965973 1.569462-.5897979.569805-.9496711.569805-1.6694282zm11.156179 8.25717168h1.219582v2.899007h-1.739404c-1.252911 0-2.222569-.2765692-2.909004-.8297158s-1.029647-1.5028118-1.029647-2.8490241v-4.6384112h-1.039644v-2.83902758h1.039644v-2.71906864h3.418829v2.71906864h2.239233v2.83902758h-2.239233v4.6384112c0 .5198245.346544.7797329 1.039644.7797329z"/></g></svg>