<?xml version="1.0" standalone="no"?><!DOCTYPE svg PUBLIC "-//W3C//DTD SVG 1.1//EN" "http://www.w3.org/Graphics/SVG/1.1/DTD/svg11.dtd"><svg t="1508996900266" class="icon" style="" viewBox="0 0 1536 1024" version="1.1" xmlns="http://www.w3.org/2000/svg" p-id="25566" xmlns:xlink="http://www.w3.org/1999/xlink" width="108" height="72"><defs><style type="text/css"></style></defs><path d="M1407.911994 1023.967998 127.991999 1023.967998C57.27642 1023.967998 0 966.691578 0 895.975998L0 512 0 448.004 0 320.012001 0 256.016001 0 128.024002C0 57.308422 57.27642 0.032002 127.991999 0.032002L1407.911994 0.032002C1478.627574 0.032002 1535.903994 57.308422 1535.903994 128.024002L1535.903994 256.016001 1535.903994 320.012001 1535.903994 448.004 1535.903994 512 1535.903994 895.975998C1535.903994 966.691578 1478.627574 1023.967998 1407.911994 1023.967998ZM1476.835686 128.024002C1476.835686 92.69821 1448.165478 64.028002 1412.839686 64.028002L123.064308 64.028002C87.738516 64.028002 59.068308 92.69821 59.068308 128.024002L59.068308 256.016001 1476.835686 256.016001 1476.835686 128.024002ZM1476.835686 320.012001 59.068308 320.012001 59.068308 448.004 1476.835686 448.004 1476.835686 320.012001ZM1476.835686 512 59.068308 512 59.068308 895.975998C59.068308 931.30179 87.738516 959.971998 123.064308 959.971998L1412.839686 959.971998C1448.165478 959.971998 1476.835686 931.30179 1476.835686 895.975998L1476.835686 512ZM1023.935996 831.979999 1407.911994 831.979999 1407.911994 895.975998 1023.935996 895.975998 1023.935996 831.979999Z" p-id="25567" fill="#2b72dc"></path></svg>