<?xml version="1.0" standalone="no"?><!DOCTYPE svg PUBLIC "-//W3C//DTD SVG 1.1//EN" "http://www.w3.org/Graphics/SVG/1.1/DTD/svg11.dtd"><svg t="1508997357549" class="icon" style="" viewBox="0 0 1088 1024" version="1.1" xmlns="http://www.w3.org/2000/svg" p-id="39411" xmlns:xlink="http://www.w3.org/1999/xlink" width="76.5" height="72"><defs><style type="text/css"></style></defs><path d="M855.552 0.512H173.76A173.312 173.312 0 0 0 0.256 173.12v677.76a173.248 173.248 0 0 0 173.504 172.608h681.792a173.248 173.248 0 0 0 173.504-172.544V173.12A173.248 173.248 0 0 0 855.552 0.512z m123.904 850.432a123.648 123.648 0 0 1-123.904 123.072H173.76A123.648 123.648 0 0 1 49.92 850.944V173.12A123.712 123.712 0 0 1 173.76 49.984h681.792c68.288 0 123.712 55.04 123.904 123.136v677.76z" fill="#2b72dc" p-id="39412"></path><path d="M850.56 266.816a56.704 56.704 0 0 0-55.68 57.408 56.256 56.256 0 0 0 33.6 50.176 291.84 291.84 0 0 1-582.464-3.968 55.872 55.872 0 0 0 30.4-49.152 56.512 56.512 0 0 0-56.576-56.448 56.192 56.192 0 1 0-23.296 107.52 341.44 341.44 0 0 0 340.8 322.368 341.44 341.44 0 0 0 340.864-322.496 55.872 55.872 0 0 0 29.888-49.984 56.32 56.32 0 0 0-57.6-55.424z" fill="#2b72dc" p-id="39413"></path></svg>