<svg enable-background="new 0 0 2500 810" viewBox="0 0 2500 810" xmlns="http://www.w3.org/2000/svg"><circle cx="406.6" cy="405.6" fill="#ff4500" r="402.3"/><path d="m674.9 405.6c-1.2-32.4-28.4-57.7-60.9-56.6-14.4.5-28.1 6.4-38.5 16.3-45.8-31.2-99.6-48.3-154.9-49.5l26.1-125.5 86.1 18.1c2.4 22.1 22.2 38.1 44.3 35.7s38.1-22.2 35.7-44.3-22.2-38.1-44.3-35.7c-12.7 1.3-24.1 8.7-30.4 19.7l-98.6-19.7c-6.7-1.5-13.4 2.7-14.9 9.5v.2l-29.7 139.6c-56 .9-110.5 18.1-156.9 49.5-23.6-22.2-60.8-21.1-83 2.6-22.2 23.6-21.1 60.8 2.6 83 4.6 4.3 9.9 8 15.8 10.6-.4 5.9-.4 11.8 0 17.7 0 90.1 105 163.4 234.5 163.4s234.5-73.2 234.5-163.4c.4-5.9.4-11.8 0-17.7 20.2-10.1 32.9-30.9 32.5-53.5zm-402.3 40.3c0-22.2 18.1-40.3 40.3-40.3s40.3 18.1 40.3 40.3-18.1 40.3-40.3 40.3c-22.3-.2-40.3-18.1-40.3-40.3zm233.7 110.6c-28.6 21.5-63.6 32.5-99.4 31-35.8 1.5-70.8-9.5-99.4-31-3.8-4.6-3.1-11.5 1.5-15.3 4-3.3 9.7-3.3 13.8 0 24.2 17.7 53.7 26.7 83.7 25.3 30 1.6 59.6-7 84.1-24.5 4.4-4.3 11.6-4.2 15.9.2s4.2 11.6-.2 15.9zm-7.2-68.9c-22.2 0-40.3-18.1-40.3-40.3s18.1-40.3 40.3-40.3 40.3 18.1 40.3 40.3c.9 22.2-16.4 40.9-38.6 41.8-.7 0-1.3 0-2 0z" fill="#fff"/><circle cx="2248.8" cy="228.1" fill="#ff4500" r="54.8"/><path d="m1472.2 461.3c21.2 1.5 39.6-14.5 41.2-35.8.1-1.2.1-2.6.1-3.9-.3-7.4-1.2-14.9-2.7-22.2-13-69.4-72.3-120.5-142.8-123.3-80.3 0-147.4 73.8-147.4 164.4s66 164.5 147.3 164.5c43.1 1.7 84.9-15.7 113.9-47.6 11.9-13 10.9-33.1-2.1-45-1-.9-1.9-1.7-2.9-2.4-13-8.1-29.9-6.4-40.9 4.2-18.1 18-42.4 28.3-68 29.1-44.2-3.5-79.6-38.1-84-82.4h187.1zm-104.6-123.3c38.9 2.6 71.6 30.4 80.3 68.5h-160.4c8.6-38.2 41.1-66 80.1-68.5z"/><path d="m1223.8 308c0-15.4-11.4-28.5-26.7-30.4-41.3-6.9-83.3 8.4-110.4 40.4v-4c0-17.1-13.8-30.9-30.9-30.9s-30.9 13.8-30.9 30.9v253c-.4 16.6 12.3 30.7 28.9 32.1 16.9 1.2 31.7-11.6 32.8-28.5.1-1.2.1-2.4 0-3.6v-129.8c-2.7-51.8 37-95.9 88.8-98.7 4.6-.3 9.3-.2 13.9.3h6.2c16-1.4 28.3-14.7 28.3-30.8z"/><path d="m2279.6 341.2c0-17.1-13.8-30.9-30.9-30.9s-30.9 13.8-30.9 30.9v225.7c0 17.1 13.8 30.9 30.9 30.9s30.9-13.8 30.9-30.9z"/><path d="m1823.6 169.7c0-17-13.8-30.8-30.8-30.8-17 0-30.8 13.8-30.8 30.8v138c-20.8-21-49.4-32.4-78.9-31.6-80.3 0-147.4 73.8-147.4 164.4s66.1 164.5 147.4 164.5c30 .9 59-10.6 80.3-31.9 4.8 16.3 21.9 25.6 38.2 20.8 12.3-3.6 21.1-14.4 21.9-27.3zm-140.7 374.4c-47.3 0-85.8-46-85.8-102.9s38.2-102.9 85.8-102.9 85.8 46 85.8 102.9-38.2 102.4-85.6 102.4z"/><path d="m2145.8 169.7c0-17-13.8-30.8-30.8-30.8-17 0-30.8 13.8-30.8 30.8v138c-20.8-21-49.4-32.4-78.9-31.6-80.3 0-147.4 73.8-147.4 164.4s66.1 164.5 147.4 164.5c30 .9 59-10.6 80.3-31.9 4.8 16.3 21.9 25.6 38.2 20.8 12.3-3.6 21.1-14.4 21.9-27.3zm-140.6 374.4c-47.3 0-85.8-46-85.8-102.9s38.2-102.9 85.8-102.9 85.8 46 85.8 102.9-38.2 102.4-85.6 102.4z"/><path d="m2439.7 566.8v-228.8h26.7c14.8.9 27.4-10.4 28.3-25.1 0-.5.1-1.1.1-1.7 1.3-14.7-9.6-27.7-24.2-29-.8-.1-1.7-.1-2.5-.1h-28.3v-42.5c.2-16.5-12.4-30.4-28.9-31.9-16.9-1.2-31.6 11.6-32.8 28.5-.1.7-.1 1.5-.1 2.2v44.4h-26.8c-14.8-.9-27.4 10.4-28.3 25.1 0 .5-.1 1.1-.1 1.7-1.3 14.7 9.6 27.7 24.2 29 .8.1 1.7.1 2.5.1h26.7v228.2c0 17 13.8 30.8 30.8 30.8 17 1.1 31.5-11.9 32.6-28.9.1-.6.1-1.3.1-2z"/></svg>