<?xml version="1.0" standalone="no"?><!DOCTYPE svg PUBLIC "-//W3C//DTD SVG 1.1//EN" "http://www.w3.org/Graphics/SVG/1.1/DTD/svg11.dtd"><svg t="1508997521421" class="icon" style="" viewBox="0 0 1024 1024" version="1.1" xmlns="http://www.w3.org/2000/svg" p-id="41664" xmlns:xlink="http://www.w3.org/1999/xlink" width="72" height="72"><defs><style type="text/css"></style></defs><path d="M883.565714 557.348571c-4.388571 0-10.24-1.462857-13.165714-4.388571l-92.16-74.605714c-8.777143-7.314286-10.24-21.942857-2.925714-30.72 7.314286-8.777143 21.942857-10.24 30.72-2.925715l74.605714 61.44 61.44-74.605714c7.314286-8.777143 21.942857-10.24 30.72-2.925714 8.777143 7.314286 10.24 21.942857 2.925714 30.72l-74.605714 92.16c-4.388571 4.388571-8.777143 7.314286-14.628571 7.314286-1.462857-1.462857-1.462857-1.462857-2.925715-1.462858z" fill="#2b72dc" p-id="41665"></path><path d="M473.965714 942.08C236.982857 942.08 43.885714 748.982857 43.885714 512S236.982857 81.92 473.965714 81.92 904.045714 275.017143 904.045714 512c0 11.702857-10.24 21.942857-21.942857 21.942857s-21.942857-10.24-21.942857-21.942857C860.16 298.422857 687.542857 125.805714 473.965714 125.805714S87.771429 298.422857 87.771429 512c0 213.577143 172.617143 386.194286 386.194285 386.194286 106.788571 0 204.8-42.422857 279.405715-118.491429 8.777143-8.777143 21.942857-8.777143 30.72 0 8.777143 8.777143 8.777143 21.942857 0 30.72-81.92 84.845714-191.634286 131.657143-310.125715 131.657143z" fill="#2b72dc" p-id="41666"></path><path d="M495.908571 492.982857V308.662857c65.828571 10.24 90.697143 49.737143 99.474286 81.92l5.851429 21.942857 42.422857-10.24-5.851429-21.942857c-8.777143-32.182857-38.034286-103.862857-141.897143-115.565714V234.057143h-43.885714v29.257143c-43.885714 1.462857-78.994286 14.628571-105.325714 39.497143-38.034286 36.571429-39.497143 84.845714-39.497143 90.697142-1.462857 16.091429 0 111.177143 144.822857 137.508572v184.32c-81.92-11.702857-98.011429-70.217143-102.4-95.085714l-2.925714-21.942858-43.885714 5.851429 2.925714 21.942857c7.314286 58.514286 49.737143 122.88 144.822857 134.582857v29.257143h43.885714v-29.257143c43.885714-1.462857 78.994286-14.628571 105.325715-39.497143 36.571429-35.108571 39.497143-80.457143 39.497142-89.234285 0-7.314286 1.462857-40.96-24.868571-74.605715-21.942857-33.645714-62.902857-54.125714-118.491429-64.365714zM351.085714 396.434286v-2.925715s0-35.108571 26.331429-59.977142c17.554286-16.091429 42.422857-24.868571 74.605714-27.794286v178.468571c-106.788571-20.48-100.937143-84.845714-100.937143-87.771428z m247.222857 229.668571v2.925714s0 35.108571-26.331428 59.977143c-17.554286 16.091429-42.422857 26.331429-74.605714 27.794286V536.868571c105.325714 21.942857 100.937143 86.308571 100.937142 89.234286z" fill="#2b72dc" p-id="41667"></path></svg>