<?xml version="1.0" standalone="no"?><!DOCTYPE svg PUBLIC "-//W3C//DTD SVG 1.1//EN" "http://www.w3.org/Graphics/SVG/1.1/DTD/svg11.dtd"><svg t="1511690498136" class="icon" style="" viewBox="0 0 1024 1024" version="1.1" xmlns="http://www.w3.org/2000/svg" p-id="2613" xmlns:xlink="http://www.w3.org/1999/xlink" width="16" height="16"><defs><style type="text/css"></style></defs><path d="M636.831 932.94h-0.005c-15.232-0.006-30.039-6.711-39.603-17.945-13.029-15.203-54.315-54.744-88.11-54.744-33.561 0-75.487 39.772-87.526 53.702-9.541 11.039-24.245 17.635-39.332 17.635-7.189 0-13.967-1.471-20.159-4.364l-1.084-0.505-102.719-61.149-1.021-0.755c-18.7-13.93-25.817-41.188-16.55-63.394 0.071-0.171 9.473-23.267 9.473-44.326 0-63.907-48.848-115.903-108.885-115.903h-3.642c-0.221 0.006-0.443 0.009-0.66 0.009-17.2 0-31.203-16.262-35.679-41.429-0.357-2.017-8.764-49.753-8.764-87.366 0-37.613 8.407-85.356 8.764-87.37 4.529-25.487 18.839-41.86 36.339-41.42h3.642c60.038 0 108.885-51.998 108.885-115.903 0-21.053-9.398-44.146-9.497-44.377-9.254-22.186-2.091-49.437 16.689-63.324l1.063-0.787 108.407-63.385 1.128-0.511c6.107-2.771 12.791-4.173 19.873-4.173 15.055 0 29.787 6.448 39.416 17.25 12.833 14.299 53.388 51.489 86.213 51.489 32.515 0 72.825-36.455 85.614-50.504 9.574-10.582 24.203-16.919 39.105-16.919 7.226 0 14.037 1.454 20.241 4.324l1.099 0.511 104.707 61.917 1.030 0.773c18.732 13.912 25.868 41.168 16.597 63.389-0.071 0.171-9.475 23.268-9.475 44.327 0 63.907 48.849 115.903 108.886 115.903h3.642c17.478-0.416 31.806 15.928 36.338 41.42 0.358 2.015 8.765 49.753 8.765 87.365s-8.407 85.355-8.769 87.371c-4.528 25.487-18.856 41.799-36.337 41.42h-3.638c-60.038 0-108.886 51.997-108.886 115.903 0 21.053 9.4 44.14 9.494 44.371 9.25 22.171 2.104 49.427-16.643 63.331l-1.051 0.781-106.471 62.64-1.111 0.508c-6.091 2.796-12.752 4.215-19.793 4.215M633.598 879.546c0.475 0.331 1.821 0.892 3.233 0.892 0.057 0 0.113 0 0.159-0.007l99.478-58.521c-2.401-5.936-13.381-34.756-13.381-64.81 0-89.895 66.518-163.569 149.911-168.177 1.201-7.055 7.715-46.745 7.715-76.519 0-29.77-6.514-69.442-7.715-76.518-83.393-4.611-149.911-78.281-149.911-168.176 0-30.102 11.014-58.957 13.395-64.849l-97.863-57.874c-0.112-0.006-0.248-0.014-0.41-0.014-1.666 0-3.223 0.647-3.741 1.018-1.643 1.799-15.831 17.108-36.206 32.365-30.163 22.587-58.682 34.041-84.772 34.041-26.345 0-55.094-11.678-85.45-34.711-20.502-15.552-34.752-31.159-36.398-32.988-0.522-0.376-2.099-1.043-3.781-1.043-0.13 0-0.249 0.006-0.348 0.010l-101.364 59.262c2.429 6.013 13.369 34.78 13.369 64.783 0 89.895-66.518 163.566-149.912 168.176-1.2 7.058-7.714 46.742-7.714 76.518 0 29.768 6.514 69.437 7.718 76.514 83.389 4.613 149.907 78.281 149.907 168.176 0 30.162-11.057 59.066-13.411 64.883l95.936 57.1c0.063 0.005 0.134 0.005 0.213 0.005 1.403 0 2.73-0.543 3.204-0.869 1.796-2.049 16.122-18.192 36.762-34.298 30.763-24 60-36.169 86.891-36.169 27.15 0 56.604 12.399 87.548 36.86 20.759 16.409 35.149 32.854 36.937 34.939M509.464 666.17c-79.955 0-145.004-69.241-145.004-154.353 0-85.11 65.048-154.352 145.004-154.352 79.959 0 145.014 69.242 145.014 154.352 0 85.112-65.055 154.353-145.014 154.353M509.464 409.969c-52.761 0-95.68 45.689-95.68 101.849 0 56.161 42.922 101.856 95.68 101.856 52.762 0 95.689-45.695 95.689-101.856 0-56.161-42.922-101.849-95.689-101.849z" p-id="2614"></path></svg>