<svg height="157" viewBox="0 0 328 157" width="328" xmlns="http://www.w3.org/2000/svg"><g fill="none" fill-rule="evenodd"><path d="m235.007089 116.040142h-141.7918347v-59.83111l67.0086147-54.24231988c2.146898-1.73787685 5.62219-1.74234271 7.774605 0l67.008615 54.24231988z" fill="#b3d7eb"/><path d="m111.935464 16h-8.935464v100h120v-100h-10.901901c-.530585 3.0510006-3.55164 5.6603774-6.803017 5.6603774-4.144088 0-7.247639-2.6093768-7.785848-5.6603774h-7.050479c-.530585 3.0510006-3.551641 5.6603774-6.803017 5.6603774-4.144088 0-7.247639-2.6093768-7.785848-5.6603774h-7.050479c-.530585 3.0510006-3.551641 5.6603774-6.803018 5.6603774-4.144088 0-7.247639-2.6093768-7.785847-5.6603774h-7.050479c-.530586 3.0510006-3.551641 5.6603774-6.803018 5.6603774-4.144088 0-7.247639-2.6093768-7.785848-5.6603774h-6.066872c-.530585 3.0510006-3.551641 5.6603774-6.803018 5.6603774-4.144088 0-7.247639-2.6093768-7.785847-5.6603774z" fill="#1793db"/><path d="m111.550405 69.5817651 51.949594 31.7408149 51.949596-31.7408149v37.8612869h-103.89919z" fill="#3c3c3c" fill-opacity=".15"/><path d="m93.2152543 57.2000095c0-.5473018.3645424-.7335579.8207119-.4114363l69.2544918 48.9036848c.453267.320072 1.185255.322122 1.641424 0l69.254495-48.9036848c.453267-.3200718.820712-.1331388.820712.4114363v98.1435765c0 .547302-.445334.990978-1.000545.990978h-139.7907444c-.5525859 0-1.0005453-.446403-1.0005453-.990978z" fill="#d2ecf9"/><path d="m161.792645 99.6412361c1.280487-1.0585862 3.348062-1.0656167 4.637054 0l67.805358 56.0550839c.426382.352492.326698.638244-.228513.638244h-139.7907444c-.5525859 0-.6525282-.287708-.2285134-.638244z" fill="#eefaff"/><g fill="#00b6e3"><path d="m277.202632 106.946574 5.546611 5.54661c1.008474 1.008475 2.664041 1.011043 3.68358-.008496 1.026647-1.026647 1.023342-2.668734.008496-3.68358l-5.546611-5.546611 5.546611-5.5466102c1.008475-1.0084748 1.011042-2.6640414-.008496-3.6835801-1.026647-1.0266467-2.668734-1.0233426-3.68358-.0084962l-5.546611 5.5466107-5.546611-5.5466107c-1.008474-1.0084748-2.664041-1.0110425-3.68358.0084962-1.026646 1.0266468-1.023342 2.6687337-.008496 3.6835801l5.546611 5.5466102-5.546611 5.546611c-1.008475 1.008475-1.011042 2.664041.008496 3.68358 1.026647 1.026647 2.668734 1.023343 3.68358.008496z" fill-opacity=".64555"/><ellipse cx="296.682767" cy="128.808487" fill-opacity=".501019" rx="3.003195" ry="3"/><path d="m317.12535 95.7457211c-5.522848 0-10-4.4771525-10-10s4.477152-10 10-10c5.522847 0 10 4.4771525 10 10s-4.477153 10-10 10zm0-3.75c3.45178 0 6.25-2.7982204 6.25-6.25 0-3.4517797-2.79822-6.25-6.25-6.25s-6.25 2.7982203-6.25 6.25c0 3.4517796 2.79822 6.25 6.25 6.25z" fill-opacity=".6"/><path d="m57.6572191 104.840324h-6.0092048c-1.0925828 0-1.9907952-.89543-1.9907952-2 0-1.11227.8913094-2 1.9907952-2h6.0092048v-6.0092048c0-1.0925828.8954305-1.9907952 2-1.9907952 1.1122704 0 2 .8913094 2 1.9907952v6.0092048h6.0092049c1.0925827 0 1.9907951.895431 1.9907951 2 0 1.11227-.8913093 2-1.9907951 2h-6.0092049v6.009205c0 1.092583-.8954305 1.990795-2 1.990795-1.1122703 0-2-.891309-2-1.990795z" fill-opacity=".65"/></g><ellipse cx="31.019634" cy="119.040142" fill="#0091de" fill-opacity=".5" rx="3.003195" ry="3"/><path d="m10.3278051 92.0825918c-5.52872899 0-10.01064938-4.4771525-10.01064938-10s4.48192039-10 10.01064938-10c5.528729 0 10.0106494 4.4771525 10.0106494 10s-4.4819204 10-10.0106494 10zm0-3.75c3.4554556 0 6.2566559-2.7982203 6.2566559-6.25 0-3.4517796-2.8012003-6.25-6.2566559-6.25-3.45545562 0-6.25665586 2.7982204-6.25665586 6.25 0 3.4517797 2.80120024 6.25 6.25665586 6.25z" fill="#00b6e3" fill-opacity=".6"/><path d="m153 53.6079347 9.184242 12.3920653 20.815758-20" stroke="#fff" stroke-linecap="round" stroke-linejoin="round" stroke-width="5"/></g></svg>