<?xml version="1.0" encoding="UTF-8"?>
<svg width="328px" height="157px" viewBox="0 0 328 157" version="1.1" xmlns="http://www.w3.org/2000/svg" xmlns:xlink="http://www.w3.org/1999/xlink">
    <!-- Generator: Sketch 47 (45396) - http://www.bohemiancoding.com/sketch -->
    <title>thank</title>
    <desc>Created with Sketch.</desc>
    <defs></defs>
    <g id="Page-1" stroke="none" stroke-width="1" fill="none" fill-rule="evenodd">
        <g id="Artboard" transform="translate(-37.000000, -49.000000)">
            <g id="thank" transform="translate(37.000000, 49.000000)">
                <path d="M235.007089,116.040142 L93.2152543,116.040142 L93.2152543,56.209032 L160.223869,1.96671212 C162.370767,0.228835269 165.846059,0.22436941 167.998474,1.96671212 L235.007089,56.209032 L235.007089,116.040142 Z" id="Envelope" fill="#B3D7EB"></path>
                <path d="M111.935464,16 L103,16 L103,116 L223,116 L223,16 L212.098099,16 C211.567514,19.0510006 208.546459,21.6603774 205.295082,21.6603774 C201.150994,21.6603774 198.047443,19.0510006 197.509234,16 L190.458755,16 C189.92817,19.0510006 186.907114,21.6603774 183.655738,21.6603774 C179.51165,21.6603774 176.408099,19.0510006 175.86989,16 L168.819411,16 C168.288826,19.0510006 165.26777,21.6603774 162.016393,21.6603774 C157.872305,21.6603774 154.768754,19.0510006 154.230546,16 L147.180067,16 C146.649481,19.0510006 143.628426,21.6603774 140.377049,21.6603774 C136.232961,21.6603774 133.12941,19.0510006 132.591201,16 L126.524329,16 C125.993744,19.0510006 122.972688,21.6603774 119.721311,21.6603774 C115.577223,21.6603774 112.473672,19.0510006 111.935464,16 Z" id="Ticket" fill="#1793DB"></path>
                <polygon id="Rectangle-5" fill-opacity="0.150000006" fill="#3C3C3C" points="111.550405 69.5817651 163.499999 101.32258 215.449595 69.5817651 215.449595 107.443052 111.550405 107.443052"></polygon>
                <path d="M93.2152543,57.2000095 C93.2152543,56.6527077 93.5797967,56.4664516 94.0359662,56.7885732 L163.290458,105.692258 C163.743725,106.01233 164.475713,106.01438 164.931882,105.692258 L234.186377,56.7885732 C234.639644,56.4685014 235.007089,56.6554344 235.007089,57.2000095 L235.007089,155.343586 C235.007089,155.890888 234.561755,156.334564 234.006544,156.334564 L94.2157996,156.334564 C93.6632137,156.334564 93.2152543,155.888161 93.2152543,155.343586 L93.2152543,57.2000095 Z" id="Envelope" fill="#D2ECF9"></path>
                <path d="M161.792645,99.6412361 C163.073132,98.5826499 165.140707,98.5756194 166.429699,99.6412361 L234.235057,155.69632 C234.661439,156.048812 234.561755,156.334564 234.006544,156.334564 L94.2157996,156.334564 C93.6632137,156.334564 93.5632714,156.046856 93.9872862,155.69632 L161.792645,99.6412361 Z" id="Envelope" fill="#EEFAFF"></path>
                <path d="M277.202632,106.946574 L282.749243,112.493184 C283.757717,113.501659 285.413284,113.504227 286.432823,112.484688 C287.45947,111.458041 287.456165,109.815954 286.441319,108.801108 L280.894708,103.254497 L286.441319,97.7078868 C287.449794,96.699412 287.452361,95.0438454 286.432823,94.0243067 C285.406176,92.99766 283.764089,93.0009641 282.749243,94.0158105 L277.202632,99.5624212 L271.656021,94.0158105 C270.647547,93.0073357 268.99198,93.004768 267.972441,94.0243067 C266.945795,95.0509535 266.949099,96.6930404 267.963945,97.7078868 L273.510556,103.254497 L267.963945,108.801108 C266.95547,109.809583 266.952903,111.465149 267.972441,112.484688 C268.999088,113.511335 270.641175,113.508031 271.656021,112.493184 L277.202632,106.946574 L277.202632,106.946574 Z" id="Plus-tight" fill-opacity="0.645550272" fill="#00B6E3"></path>
                <ellipse id="Small-Oval-right" fill-opacity="0.501019022" fill="#00B6E3" cx="296.682767" cy="128.808487" rx="3.00319481" ry="3"></ellipse>
                <path d="M317.12535,95.7457211 C311.602502,95.7457211 307.12535,91.2685686 307.12535,85.7457211 C307.12535,80.2228736 311.602502,75.7457211 317.12535,75.7457211 C322.648197,75.7457211 327.12535,80.2228736 327.12535,85.7457211 C327.12535,91.2685686 322.648197,95.7457211 317.12535,95.7457211 Z M317.12535,91.9957211 C320.57713,91.9957211 323.37535,89.1975007 323.37535,85.7457211 C323.37535,82.2939414 320.57713,79.4957211 317.12535,79.4957211 C313.67357,79.4957211 310.87535,82.2939414 310.87535,85.7457211 C310.87535,89.1975007 313.67357,91.9957211 317.12535,91.9957211 Z" id="Oval-right" fill-opacity="0.6" fill="#00B6E3"></path>
                <path d="M57.6572191,104.840324 L51.6480143,104.840324 C50.5554315,104.840324 49.6572191,103.944894 49.6572191,102.840324 C49.6572191,101.728054 50.5485285,100.840324 51.6480143,100.840324 L57.6572191,100.840324 L57.6572191,94.8311192 C57.6572191,93.7385364 58.5526496,92.840324 59.6572191,92.840324 C60.7694895,92.840324 61.6572191,93.7316334 61.6572191,94.8311192 L61.6572191,100.840324 L67.666424,100.840324 C68.7590067,100.840324 69.6572191,101.735755 69.6572191,102.840324 C69.6572191,103.952594 68.7659098,104.840324 67.666424,104.840324 L61.6572191,104.840324 L61.6572191,110.849529 C61.6572191,111.942112 60.7617886,112.840324 59.6572191,112.840324 C58.5449488,112.840324 57.6572191,111.949015 57.6572191,110.849529 L57.6572191,104.840324 L57.6572191,104.840324 Z" id="Plus-left" fill-opacity="0.65" fill="#00B6E3"></path>
                <ellipse id="Small-Oval-left" fill-opacity="0.5" fill="#0091DE" cx="31.0196343" cy="119.040142" rx="3.00319481" ry="3"></ellipse>
                <path d="M10.3278051,92.0825918 C4.79907611,92.0825918 0.317155722,87.6054393 0.317155722,82.0825918 C0.317155722,76.5597443 4.79907611,72.0825918 10.3278051,72.0825918 C15.8565341,72.0825918 20.3384545,76.5597443 20.3384545,82.0825918 C20.3384545,87.6054393 15.8565341,92.0825918 10.3278051,92.0825918 Z M10.3278051,88.3325918 C13.7832607,88.3325918 16.584461,85.5343715 16.584461,82.0825918 C16.584461,78.6308122 13.7832607,75.8325918 10.3278051,75.8325918 C6.87234948,75.8325918 4.07114924,78.6308122 4.07114924,82.0825918 C4.07114924,85.5343715 6.87234948,88.3325918 10.3278051,88.3325918 Z" id="Oval-left" fill-opacity="0.6" fill="#00B6E3"></path>
                <polyline id="right" stroke="#FFFFFF" stroke-width="5" stroke-linecap="round" stroke-linejoin="round" points="153 53.6079347 162.184242 66 183 46"></polyline>
            </g>
        </g>
    </g>
</svg>