<?xml version="1.0" encoding="UTF-8"?>
<svg width="192px" height="178px" viewBox="0 0 192 178" version="1.1" xmlns="http://www.w3.org/2000/svg" xmlns:xlink="http://www.w3.org/1999/xlink">
    <!-- Generator: Sketch 39.1 (31720) - http://www.bohemiancoding.com/sketch -->
    <title>气球们 copy</title>
    <desc>Created with Sketch.</desc>
    <defs>
        <polygon id="path-1" points="6.34828893e-05 16.673647 90.8244995 16.673647 90.8244995 0.146390874 6.34828893e-05 0.146390874 6.34828893e-05 16.673647"></polygon>
        <polygon id="path-3" points="0 65.2415452 90.8245266 65.2415452 90.8245266 0.187344348 0 0.187344348"></polygon>
        <polygon id="path-5" points="1.17286907e-20 0.116003195 1.17286907e-20 45.5653882 33.2364678 45.5653882 33.2364678 0.116003195 0 0.116003195"></polygon>
        <polygon id="path-7" points="23.935142 32.1361933 23.935142 0.037715834 4.17175775e-05 0.037715834 4.17175775e-05 32.1361933 23.935142 32.1361933"></polygon>
        <polygon id="path-9" points="2.52691206e-13 55.522508 2.52691206e-13 122.693052 40.9754327 122.693052 40.9754327 0.194940877 2.52691206e-13 0.194940877 2.52691206e-13 55.522508 -0.000205095311 0.194754895 40.975421 0.194754895 40.975421 55.522508 2.53163538e-13 55.522508"></polygon>
        <polygon id="path-11" points="-5.00109685e-13 26.8467406 -5.00109685e-13 59.1652773 20.2194456 59.1652773 20.2194456 0.0404157176 -5.00109685e-13 0.0404157176 -5.00109685e-13 26.8467406 -5.32455242e-05 0.04040283 20.2194223 0.04040283 20.2194223 26.8467406 -5.004383e-13 26.8467406"></polygon>
        <polygon id="path-13" points="8.2602478 0.213322581 0 0.213322581 0 5.97915644 8.2602478 5.97915644 8.2602478 0.213322581"></polygon>
        <polygon id="path-15" points="7.8676 7.79205195 7.8676 0.128961039 0 0.128961039 0 7.79205195"></polygon>
        <polygon id="path-17" points="3.36808367e-21 0.153965669 3.36808367e-21 1.30646314 3.47938312 1.30646314 3.47938312 0.153965669 0 0.153965669"></polygon>
        <polygon id="path-19" points="1.3546072 0.115350427 0.00750651618 0.115350427 0.00750651618 3.460759 1.3546072 3.460759 1.3546072 0.115350427"></polygon>
        <polygon id="path-21" points="3.64927811 1.31983109 3.64927811 0.160677842 0.155958101 0.160677842 0.155958101 1.31983109"></polygon>
    </defs>
    <g id="Page-1" stroke="none" stroke-width="1" fill="none" fill-rule="evenodd">
        <g id="Artboard" transform="translate(-4002.000000, -188.000000)">
            <g id="气球们-copy" transform="translate(4002.000000, 188.000000)">
                <g id="Page-1" opacity="0.795912591" transform="translate(53.000000, 112.000000)">
                    <g id="Group-3" transform="translate(0.000000, 48.567898)">
                        <mask id="mask-2" fill="white">
                            <use xlink:href="#path-1"></use>
                        </mask>
                        <g id="Clip-2"></g>
                        <path d="M88.5002225,16.6737219 L2.32415492,16.6737219 C0.621261475,16.6737219 -0.359972131,16.1843785 0.123185656,15.592183 L12.2683291,0.70673782 C12.5224951,0.395371513 13.7028844,0.146390874 14.908448,0.146390874 L75.9159295,0.146390874 C77.121493,0.146390874 78.3020689,0.395371513 78.5560484,0.70673782 L90.7013783,15.592183 C91.1845361,16.1841912 90.2033025,16.6737219 88.5002225,16.6737219" id="Fill-1" fill="#E6E7E8" mask="url(#mask-2)"></path>
                    </g>
                    <g id="Group-6" transform="translate(12.680328, 0.045712)" fill="#FFFFFF">
                        <path d="M64.2996676,46.574723 L1.16412869,46.5749103 C0.54614918,46.5749103 0.0452762295,46.0715161 0.0452762295,45.4508442 L0.0452762295,1.26586703 C0.0452762295,0.645007857 0.54614918,0.141800937 1.16412869,0.141800937 L64.2996676,0.141613593 C64.9176471,0.141613593 65.4185201,0.645007857 65.4185201,1.26567968 L65.4185201,45.4506569 C65.4185201,46.0715161 64.9176471,46.574723 64.2996676,46.574723" id="Fill-4"></path>
                    </g>
                    <path d="M12.9075668,45.3737895 L12.9075668,1.43423339 C12.9075668,0.865268607 13.3666693,0.403839477 13.9331816,0.403839477 L76.8911959,0.403839477 C77.4577082,0.403839477 77.9168107,0.865268607 77.9168107,1.43423339 L77.9168107,45.3737895 C77.9168107,45.9427543 77.4577082,46.4041834 76.8911959,46.4041834 L13.9331816,46.4041834 C13.3666693,46.4041834 12.9075668,45.9429416 12.9075668,45.3737895" id="Fill-7" fill="#D8D8D8"></path>
                    <mask id="mask-4" fill="white">
                        <use xlink:href="#path-3"></use>
                    </mask>
                    <g id="Clip-10"></g>
                    <polygon id="Fill-9" fill="#FFFFFF" mask="url(#mask-4)" points="15.6150779 42.9803531 75.2094488 42.9803531 75.2094488 3.82763238 15.6150779 3.82763238"></polygon>
                    <polygon id="Fill-11" fill="#F7F8F8" mask="url(#mask-4)" points="21.8024811 42.9803905 75.2094115 42.9803905 75.2094115 3.82766985 68.4515426 3.82766985"></polygon>
                    <path d="M90.8236875,61.8364868 L90.2103699,61.8364868 L90.2103699,62.2769333 L78.5560297,47.9932382 C78.3020502,47.6818719 77.1214744,47.4328912 75.9159109,47.4328912 L14.9086158,47.4328912 C13.7028658,47.4328912 12.5224764,47.6818719 12.2683105,47.9932382 L0.953914959,61.8604669 L0.00139856557,61.8604669 L0.00139856557,63.1857408 L0.0019579918,63.1857408 C0.017994877,63.6308709 0.927621926,63.9602223 2.32413627,63.9602223 L88.5002039,63.9602223 C89.9002613,63.9602223 90.8104477,63.6289975 90.8223822,63.1825559 L90.8236875,63.1825559 L90.8236875,61.8364868 Z" id="Fill-12" fill="#EDEDED" mask="url(#mask-4)"></path>
                    <path d="M88.5002225,62.6187993 L2.32415492,62.6187993 C0.621261475,62.6187993 -0.359972131,62.1294559 0.123185656,61.5372604 L12.2683291,46.6518152 C12.5224951,46.3404489 13.7028844,46.0916556 14.908448,46.0916556 L75.9159295,46.0914682 C77.121493,46.0914682 78.3020689,46.3404489 78.5560484,46.6518152 L90.7013783,61.5372604 C91.1845361,62.1294559 90.2033025,62.6187993 88.5002225,62.6187993" id="Fill-13" fill="#FFFFFF" mask="url(#mask-4)"></path>
                    <path d="M81.4514893,55.6965568 L9.3729627,55.6965568 C8.87470041,55.6965568 8.56496475,55.5700993 8.68020656,55.4149782 L14.7723582,47.2242833 C14.8523561,47.1171223 15.2501082,47.0305693 15.6612865,47.0305693 L75.1631656,47.0305693 C75.5743439,47.0305693 75.9722824,47.1171223 76.0519074,47.2242833 L82.1442455,55.4149782 C82.2594873,55.5700993 81.9497516,55.6965568 81.4514893,55.6965568" id="Fill-14" fill="#EDEDED" mask="url(#mask-4)"></path>
                    <path d="M56.2047328,61.7157433 L34.6198311,61.7157433 C34.0611508,61.7157433 33.6419541,61.556688 33.6833516,61.3620372 L34.6405299,56.845727 C34.6752143,56.6825501 35.1138045,56.5512217 35.6206447,56.5512217 L55.2037328,56.5510343 C55.710573,56.5510343 56.1493496,56.6825501 56.1838475,56.845727 L57.1412123,61.3620372 C57.1824234,61.556688 56.7634131,61.7157433 56.2047328,61.7157433" id="Fill-15" fill="#EDEDED" mask="url(#mask-4)"></path>
                    <path d="M16.8504961,51.6499938 L13.1623855,51.6499938 C12.9335801,51.6499938 12.7025371,51.7135035 12.646408,51.7920008 L11.8206949,52.9449179 C11.7615822,53.0277241 11.9047953,53.0951681 12.1408732,53.0951681 L15.9457174,53.0951681 L19.7507482,53.0951681 C19.986826,53.0951681 20.214326,53.0277241 20.2587072,52.9449179 L20.8768732,51.7920008 C20.9190166,51.7135035 20.7674121,51.6499938 20.5386068,51.6499938 L16.8504961,51.6499938 Z" id="Fill-16" fill="#D1D1D1" mask="url(#mask-4)"></path>
                    <path d="M25.2207619,53.0951494 L21.8433193,53.0951494 C21.6072414,53.0951494 21.4448213,53.0381967 21.4804381,52.9683172 L22.091518,51.7698754 C22.1252701,51.7035555 22.3380385,51.6499751 22.5670303,51.6499751 L25.8407926,51.6499751 C26.069598,51.6499751 26.2325775,51.7035555 26.2047926,51.7698754 L25.7014955,52.9683172 C25.6720324,53.0381967 25.4568398,53.0951494 25.2207619,53.0951494" id="Fill-17" fill="#D1D1D1" mask="url(#mask-4)"></path>
                    <path d="M30.6908316,53.0951494 L27.3133889,53.0951494 C27.0773111,53.0951494 26.9081779,53.0381967 26.9357762,52.9683172 L27.407559,51.7698754 C27.4336656,51.7035555 27.6402803,51.6499751 27.8690857,51.6499751 L31.142848,51.6499751 C31.3716533,51.6499751 31.540973,51.7035555 31.5208336,51.7698754 L31.1568336,52.9683172 C31.1355754,53.0381967 30.9269094,53.0951494 30.6908316,53.0951494" id="Fill-18" fill="#D1D1D1" mask="url(#mask-4)"></path>
                    <path d="M36.1609012,53.0951494 L32.7834586,53.0951494 C32.5473807,53.0951494 32.3717209,53.0381967 32.3911143,52.9683172 L32.7236,51.7698754 C32.7420611,51.7035555 32.9423357,51.6499751 33.171141,51.6499751 L36.4449033,51.6499751 C36.6737086,51.6499751 36.849182,51.7035555 36.8368746,51.7698754 L36.6119852,52.9683172 C36.598932,53.0381967 36.3969791,53.0951494 36.1609012,53.0951494" id="Fill-19" fill="#D1D1D1" mask="url(#mask-4)"></path>
                    <path d="M47.1010406,53.0951494 L43.7234115,53.0951494 C43.4873336,53.0951494 43.2986205,53.0381967 43.3016041,52.9683172 L43.355682,51.7698754 C43.3586656,51.7035555 43.5464463,51.6499751 43.7754381,51.6499751 L47.0492004,51.6499751 C47.2780057,51.6499751 47.465973,51.7035555 47.4687701,51.7698754 L47.5226615,52.9683172 C47.5258316,53.0381967 47.3371184,53.0951494 47.1010406,53.0951494" id="Fill-20" fill="#D1D1D1" mask="url(#mask-4)"></path>
                    <path d="M41.6309709,53.0951494 L38.2533418,53.0951494 C38.0174504,53.0951494 37.8350775,53.0381967 37.8464525,52.9683172 L38.039641,51.7698754 C38.0502701,51.7035555 38.244391,51.6499751 38.4731963,51.6499751 L41.7471451,51.6499751 C41.9759504,51.6499751 42.1575775,51.7035555 42.1527291,51.7698754 L42.0675098,52.9683172 C42.062475,53.0381967 41.8670488,53.0951494 41.6309709,53.0951494" id="Fill-21" fill="#D1D1D1" mask="url(#mask-4)"></path>
                    <path d="M52.571017,53.0951494 L49.1935744,53.0951494 C48.9574965,53.0951494 48.7620703,53.0381967 48.7570355,52.9683172 L48.6716297,51.7698754 C48.6667814,51.7035555 48.8485949,51.6499751 49.0774002,51.6499751 L52.3511625,51.6499751 C52.5801543,51.6499751 52.7740887,51.7035555 52.7849043,51.7698754 L52.9780928,52.9683172 C52.9892814,53.0381967 52.8070949,53.0951494 52.571017,53.0951494" id="Fill-22" fill="#D1D1D1" mask="url(#mask-4)"></path>
                    <path d="M58.0410867,53.0951494 L54.6636441,53.0951494 C54.4275662,53.0951494 54.2254268,53.0381967 54.2123736,52.9683172 L53.9876707,51.7698754 C53.9751768,51.7035555 54.1506502,51.6499751 54.3794555,51.6499751 L57.6534043,51.6499751 C57.8822096,51.6499751 58.0824842,51.7035555 58.1009453,51.7698754 L58.4334309,52.9683172 C58.4528244,53.0381967 58.2771645,53.0951494 58.0410867,53.0951494" id="Fill-23" fill="#D1D1D1" mask="url(#mask-4)"></path>
                    <path d="M63.5111377,53.0951494 L60.1335086,53.0951494 C59.8976172,53.0951494 59.6887648,53.0381967 59.667693,52.9683172 L59.303693,51.7698754 C59.2835537,51.7035555 59.4526869,51.6499751 59.6814922,51.6499751 L62.955441,51.6499751 C63.1842463,51.6499751 63.3908611,51.7035555 63.4169676,51.7698754 L63.8885639,52.9683172 C63.9161623,53.0381967 63.7472156,53.0951494 63.5111377,53.0951494" id="Fill-24" fill="#D1D1D1" mask="url(#mask-4)"></path>
                    <path d="M68.9812074,53.0951494 L65.6035783,53.0951494 C65.3676869,53.0951494 65.1523078,53.0381967 65.1230311,52.9683172 L64.619734,51.7698754 C64.5917627,51.7035555 64.7547422,51.6499751 64.983734,51.6499751 L68.2574963,51.6499751 C68.4863016,51.6499751 68.6990701,51.7035555 68.7328221,51.7698754 L69.343902,52.9683172 C69.3797053,53.0381967 69.2172852,53.0951494 68.9812074,53.0951494" id="Fill-25" fill="#D1D1D1" mask="url(#mask-4)"></path>
                    <path d="M19.1087879,55.1041552 L16.0295195,55.1041552 C15.7833719,55.1041552 15.6213248,55.0423316 15.6675707,54.9662698 L16.4585994,53.6649759 C16.5020482,53.593223 16.730667,53.5351463 16.9687961,53.5351463 L19.949792,53.5351463 C20.1881076,53.5351463 20.3507141,53.593223 20.3128596,53.6649759 L19.6270031,54.9662698 C19.5870973,55.0423316 19.3549355,55.1041552 19.1087879,55.1041552" id="Fill-26" fill="#D1D1D1" mask="url(#mask-4)"></path>
                    <path d="M13.8476826,55.1041552 L10.72049,55.1041552 C10.4743424,55.1041552 10.3191949,55.0423316 10.3736457,54.9662698 L11.3052768,53.6649759 C11.3567441,53.593223 11.5915166,53.5351463 11.8296457,53.5351463 L14.8568875,53.5351463 C15.0950166,53.5351463 15.2514695,53.593223 15.2059695,53.6649759 L14.3806293,54.9662698 C14.3325186,55.0423316 14.0938301,55.1041552 13.8476826,55.1041552" id="Fill-27" fill="#D1D1D1" mask="url(#mask-4)"></path>
                    <path d="M24.3589658,55.1041552 L21.2905129,55.1041552 C21.0445518,55.1041552 20.8757916,55.0423316 20.9138326,54.9662698 L21.5653777,53.6649759 C21.6013674,53.593223 21.8234596,53.5351463 22.0617752,53.5351463 L25.0319555,53.5351463 C25.2702711,53.5351463 25.4390314,53.593223 25.4090088,53.6649759 L24.8624494,54.9662698 C24.8305621,55.0423316 24.6051133,55.1041552 24.3589658,55.1041552" id="Fill-28" fill="#D1D1D1" mask="url(#mask-4)"></path>
                    <path d="M74.8537283,55.1041552 L71.7744598,55.1041552 C71.5283123,55.1041552 71.2961504,55.0423316 71.2560582,54.9662698 L70.5687098,53.6649759 C70.5308553,53.593223 70.6932754,53.5351463 70.931591,53.5351463 L73.9124004,53.5351463 C74.150716,53.5351463 74.3793348,53.593223 74.4229701,53.6649759 L75.2154906,54.9662698 C75.2617365,55.0423316 75.0998758,55.1041552 74.8537283,55.1041552" id="Fill-29" fill="#D1D1D1" mask="url(#mask-4)"></path>
                    <path d="M69.592623,55.1041552 L66.4654303,55.1041552 C66.2194693,55.1041552 65.993834,55.0423316 65.9619467,54.9662698 L65.7413463,54.4409562 C65.7102049,54.3667679 65.8813893,54.3068177 66.1234344,54.3068177 L69.1999057,54.3068177 C69.4419508,54.3068177 69.668332,54.3667679 69.7054406,54.4409562 L69.9691168,54.9662698 C70.0073443,55.0423316 69.8387705,55.1041552 69.592623,55.1041552" id="Fill-30" fill="#D1D1D1" mask="url(#mask-4)"></path>
                    <path d="M80.1039061,55.1041552 L77.0356398,55.1041552 C76.7894922,55.1041552 76.5506172,55.0423316 76.5023201,54.9662698 L76.1685291,54.4409562 C76.1215373,54.3667679 76.2796684,54.3068177 76.5219,54.3068177 L79.5403775,54.3068177 C79.7824225,54.3068177 80.0216705,54.3667679 80.074816,54.4409562 L80.4509369,54.9662698 C80.5053877,55.0423316 80.3500537,55.1041552 80.1039061,55.1041552" id="Fill-31" fill="#D1D1D1" mask="url(#mask-4)"></path>
                    <path d="M30.062484,55.1041552 L26.5407094,55.1041552 C26.2945619,55.1041552 26.119275,55.0423316 26.1492975,54.9662698 L26.6615455,53.6649759 C26.6898898,53.593223 26.9058283,53.5351463 27.1441439,53.5351463 L30.5532873,53.5351463 C30.7916029,53.5351463 30.9670762,53.593223 30.9452586,53.6649759 L30.5499307,54.9662698 C30.5269943,55.0423316 30.3086316,55.1041552 30.062484,55.1041552" id="Fill-32" fill="#D1D1D1" mask="url(#mask-4)"></path>
                    <path d="M64.283724,55.1041552 L60.7619494,55.1041552 C60.5158018,55.1041552 60.2976256,55.0423316 60.2745027,54.9662698 L59.8791748,53.6649759 C59.8573572,53.593223 60.033017,53.5351463 60.2711461,53.5351463 L63.6802895,53.5351463 C63.9186051,53.5351463 64.1347301,53.593223 64.1628879,53.6649759 L64.6751359,54.9662698 C64.7051584,55.0423316 64.5298715,55.1041552 64.283724,55.1041552" id="Fill-33" fill="#D1D1D1" mask="url(#mask-4)"></path>
                    <path d="M73.9739746,51.6499938 L70.2858639,51.6499938 C70.0570586,51.6499938 69.9054541,51.7135035 69.9475975,51.7920008 L70.5657635,52.9449179 C70.6101447,53.0277241 70.8376447,53.0951681 71.0737225,53.0951681 L74.8787533,53.0951681 L78.6835975,53.0951681 C78.9196754,53.0951681 79.0628885,53.0277241 79.0035893,52.9449179 L78.1780627,51.7920008 C78.1219336,51.7135035 77.8908906,51.6499938 77.6620852,51.6499938 L73.9739746,51.6499938 Z" id="Fill-34" fill="#D1D1D1" mask="url(#mask-4)"></path>
                    <path d="M16.7854908,49.9088341 L14.3931977,49.9088341 C14.1731568,49.9088341 13.9527428,49.9674729 13.9007162,50.0401625 L13.1378453,51.1055898 C13.083208,51.1820263 13.2225051,51.2442247 13.4492592,51.2442247 L15.9144641,51.2442247 L18.3794826,51.2442247 C18.6062367,51.2442247 18.8266506,51.1820263 18.8717777,51.1055898 L19.4990809,50.0401625 C19.5417838,49.9674729 19.3978248,49.9088341 19.1777838,49.9088341 L16.7854908,49.9088341 Z" id="Fill-35" fill="#D1D1D1" mask="url(#mask-4)"></path>
                    <path d="M28.889274,51.2442059 L25.6446018,51.2442059 C25.4178477,51.2442059 25.2572924,51.1917495 25.2861961,51.1271157 L25.7803559,50.0197233 C25.8077678,49.9584617 26.0082289,49.9088154 26.2282699,49.9088154 L29.3772801,49.9088154 C29.5973211,49.9088154 29.7580629,49.9584617 29.7362453,50.0197233 L29.3416633,51.1271157 C29.3185404,51.1917495 29.1160281,51.2442059 28.889274,51.2442059" id="Fill-36" fill="#D1D1D1" mask="url(#mask-4)"></path>
                    <path d="M23.6343596,51.2442059 L20.3896875,51.2442059 C20.1629334,51.2442059 20.0085318,51.1917495 20.0448945,51.1271157 L20.6677223,50.0197233 C20.7022203,49.9584617 20.9084621,49.9088154 21.1285031,49.9088154 L24.2775133,49.9088154 C24.4975543,49.9088154 24.6525154,49.9584617 24.6236117,50.0197233 L24.1003617,51.1271157 C24.0697797,51.1917495 23.8611137,51.2442059 23.6343596,51.2442059" id="Fill-37" fill="#D1D1D1" mask="url(#mask-4)"></path>
                    <path d="M34.1441883,51.2442059 L30.8995162,51.2442059 C30.6727621,51.2442059 30.5062395,51.1917495 30.5274977,51.1271157 L30.8929895,50.0197233 C30.9133154,49.9584617 31.1079957,49.9088154 31.3280367,49.9088154 L34.4770469,49.9088154 C34.6970879,49.9088154 34.8636105,49.9584617 34.8488789,50.0197233 L34.582965,51.1271157 C34.5674875,51.1917495 34.3709424,51.2442059 34.1441883,51.2442059" id="Fill-38" fill="#D1D1D1" mask="url(#mask-4)"></path>
                    <path d="M39.3991027,51.2442059 L36.1544305,51.2442059 C35.9276764,51.2442059 35.7550002,51.1917495 35.7687994,51.1271157 L36.0056232,50.0197233 C36.0188629,49.9584617 36.2077625,49.9088154 36.4278035,49.9088154 L39.5768137,49.9088154 C39.7968547,49.9088154 39.969158,49.9584617 39.9615125,50.0197233 L39.8242666,51.1271157 C39.8162482,51.1917495 39.6258568,51.2442059 39.3991027,51.2442059" id="Fill-39" fill="#D1D1D1" mask="url(#mask-4)"></path>
                    <path d="M49.9090059,51.2442059 L46.6643338,51.2442059 C46.4373932,51.2442059 46.2525961,51.1917495 46.2514773,51.1271157 L46.2307785,50.0197233 C46.2296596,49.9584617 46.4071842,49.9088154 46.6272252,49.9088154 L49.7762355,49.9088154 C49.9962764,49.9088154 50.1801412,49.9584617 50.1866678,50.0197233 L50.3069445,51.1271157 C50.3138441,51.1917495 50.13576,51.2442059 49.9090059,51.2442059" id="Fill-40" fill="#D1D1D1" mask="url(#mask-4)"></path>
                    <path d="M44.6540916,51.2442059 L41.4094195,51.2442059 C41.1824789,51.2442059 41.0038355,51.1917495 41.0101756,51.1271157 L41.1183314,50.0197233 C41.1242986,49.9584617 41.3074174,49.9088154 41.5274584,49.9088154 L44.6764686,49.9088154 C44.8965096,49.9088154 45.0745936,49.9584617 45.0740342,50.0197233 L45.0656428,51.1271157 C45.0650834,51.1917495 44.8808457,51.2442059 44.6540916,51.2442059" id="Fill-41" fill="#D1D1D1" mask="url(#mask-4)"></path>
                    <path d="M55.1639203,51.2442059 L51.9192482,51.2442059 C51.6923076,51.2442059 51.5013568,51.1917495 51.4927789,51.1271157 L51.3434121,50.0197233 C51.3352072,49.9584617 51.506951,49.9088154 51.726992,49.9088154 L54.8760023,49.9088154 C55.0960432,49.9088154 55.2855023,49.9584617 55.2993014,50.0197233 L55.5482461,51.1271157 C55.5627912,51.1917495 55.3906744,51.2442059 55.1639203,51.2442059" id="Fill-42" fill="#D1D1D1" mask="url(#mask-4)"></path>
                    <path d="M60.418816,51.2442059 L57.1741439,51.2442059 C56.9472033,51.2442059 56.7502852,51.1917495 56.7340619,51.1271157 L56.456027,50.0197233 C56.4407361,49.9584617 56.6066992,49.9088154 56.8267402,49.9088154 L59.9757504,49.9088154 C60.1957914,49.9088154 60.3910311,49.9584617 60.4119164,50.0197233 L60.7895291,51.1271157 C60.8115332,51.1917495 60.6455701,51.2442059 60.418816,51.2442059" id="Fill-43" fill="#D1D1D1" mask="url(#mask-4)"></path>
                    <path d="M65.6737303,51.2442059 L62.4290582,51.2442059 C62.2023041,51.2442059 61.9990459,51.1917495 61.9753635,51.1271157 L61.5686607,50.0197233 C61.5460971,49.9584617 61.706466,49.9088154 61.926507,49.9088154 L65.0753307,49.9088154 C65.2955582,49.9088154 65.4965787,49.9584617 65.52455,50.0197233 L66.0308307,51.1271157 C66.0602939,51.1917495 65.9004844,51.2442059 65.6737303,51.2442059" id="Fill-44" fill="#D1D1D1" mask="url(#mask-4)"></path>
                    <path d="M70.9286447,51.2442059 L67.6839725,51.2442059 C67.4572184,51.2442059 67.247993,51.1917495 67.2166652,51.1271157 L66.6812943,50.0197233 C66.6516447,49.9584617 66.8062328,49.9088154 67.0262738,49.9088154 L70.1750975,49.9088154 C70.3951385,49.9088154 70.6019398,49.9584617 70.6371836,50.0197233 L71.2721324,51.1271157 C71.309241,51.1917495 71.1553988,51.2442059 70.9286447,51.2442059" id="Fill-45" fill="#D1D1D1" mask="url(#mask-4)"></path>
                    <path d="M23.353826,47.9470203 L20.4791211,47.9470203 C20.2689633,47.9470203 20.1257502,47.9020577 20.1593158,47.8466038 L20.3912912,47.4623605 C20.4241109,47.4080306 20.6187912,47.3641921 20.8259654,47.3641921 L23.6605781,47.3641921 C23.8679387,47.3641921 24.0133895,47.4080306 23.9852318,47.4623605 L23.786449,47.8466038 C23.7579182,47.9020577 23.5639838,47.9470203 23.353826,47.9470203" id="Fill-46" fill="#D1D1D1" mask="url(#mask-4)"></path>
                    <path d="M18.6547016,47.9470203 L15.7799967,47.9470203 C15.5698389,47.9470203 15.4316607,47.9020577 15.4713799,47.8466038 L15.7464311,47.4623605 C15.7854045,47.4080306 15.9849332,47.3641921 16.1922939,47.3641921 L19.0269066,47.3641921 C19.2340807,47.3641921 19.3744967,47.4080306 19.3403717,47.4623605 L19.0986996,47.8466038 C19.0636422,47.9020577 18.8648594,47.9470203 18.6547016,47.9470203" id="Fill-47" fill="#D1D1D1" mask="url(#mask-4)"></path>
                    <path d="M28.0529504,47.9470203 L25.1782455,47.9470203 C24.9680877,47.9470203 24.8198398,47.9020577 24.8472516,47.8466038 L25.0361512,47.4623605 C25.0628172,47.4080306 25.2524627,47.3641921 25.4598234,47.3641921 L28.2944361,47.3641921 C28.5017967,47.3641921 28.6519094,47.4080306 28.6299053,47.4623605 L28.4743848,47.8466038 C28.4518213,47.9020577 28.2631082,47.9470203 28.0529504,47.9470203" id="Fill-48" fill="#D1D1D1" mask="url(#mask-4)"></path>
                    <path d="M32.7520748,47.9470203 L29.8775564,47.9470203 C29.6672121,47.9470203 29.5139293,47.9020577 29.535001,47.8466038 L29.6808248,47.4623605 C29.7015236,47.4080306 29.8863207,47.3641921 30.0936814,47.3641921 L32.9281076,47.3641921 C33.1354682,47.3641921 33.2906158,47.4080306 33.2747654,47.4623605 L33.1623207,47.8466038 C33.1459109,47.9020577 32.9622326,47.9470203 32.7520748,47.9470203" id="Fill-49" fill="#D1D1D1" mask="url(#mask-4)"></path>
                    <path d="M42.1503422,47.9470203 L39.2758238,47.9470203 C39.065666,47.9470203 38.902127,47.9020577 38.9107049,47.8466038 L38.9705635,47.4623605 C38.9789549,47.4080306 39.1538689,47.3641921 39.361043,47.3641921 L42.1958422,47.3641921 C42.4030164,47.3641921 42.5680471,47.4080306 42.5643176,47.4623605 L42.5380246,47.8466038 C42.5341086,47.9020577 42.3605,47.9470203 42.1503422,47.9470203" id="Fill-50" fill="#D1D1D1" mask="url(#mask-4)"></path>
                    <path d="M37.4511992,47.9470203 L34.5766807,47.9470203 C34.366523,47.9470203 34.2080189,47.9020577 34.2229369,47.8466038 L34.3256848,47.4623605 C34.3402299,47.4080306 34.5199922,47.3641921 34.7273529,47.3641921 L37.5619656,47.3641921 C37.7693262,47.3641921 37.9293221,47.4080306 37.9196254,47.4623605 L37.8500701,47.8466038 C37.8400004,47.9020577 37.661357,47.9470203 37.4511992,47.9470203" id="Fill-51" fill="#D1D1D1" mask="url(#mask-4)"></path>
                    <path d="M46.8495598,47.9470203 L43.9748549,47.9470203 C43.7646971,47.9470203 43.5963098,47.9020577 43.5985475,47.8466038 L43.6153303,47.4623605 C43.617568,47.4080306 43.7876336,47.3641921 43.9949943,47.3641921 L46.829607,47.3641921 C47.0367811,47.3641921 47.2068467,47.4080306 47.2092709,47.4623605 L47.2258672,47.8466038 C47.2282914,47.9020577 47.0597176,47.9470203 46.8495598,47.9470203" id="Fill-52" fill="#D1D1D1" mask="url(#mask-4)"></path>
                    <path d="M51.5486842,47.9470203 L48.6739793,47.9470203 C48.4638215,47.9470203 48.2902129,47.9020577 48.2864834,47.8466038 L48.2600039,47.4623605 C48.2562744,47.4080306 48.4213051,47.3641921 48.6286658,47.3641921 L51.4632785,47.3641921 C51.6706391,47.3641921 51.8455531,47.4080306 51.8539445,47.4623605 L51.9138031,47.8466038 C51.9223809,47.9020577 51.758842,47.9470203 51.5486842,47.9470203" id="Fill-53" fill="#D1D1D1" mask="url(#mask-4)"></path>
                    <path d="M56.2478086,47.9470203 L53.3731037,47.9470203 C53.1629459,47.9470203 52.9844889,47.9020577 52.9744193,47.8466038 L52.9048639,47.4623605 C52.8951672,47.4080306 53.0551631,47.3641921 53.2625238,47.3641921 L56.0971365,47.3641921 C56.3044971,47.3641921 56.4842594,47.4080306 56.4988045,47.4623605 L56.6015525,47.8466038 C56.6164705,47.9020577 56.4579664,47.9470203 56.2478086,47.9470203" id="Fill-54" fill="#D1D1D1" mask="url(#mask-4)"></path>
                    <path d="M60.946933,47.9470203 L58.0722281,47.9470203 C57.8622568,47.9470203 57.678392,47.9020577 57.6621686,47.8466038 L57.549724,47.4623605 C57.5336871,47.4080306 57.6890211,47.3641921 57.8963818,47.3641921 L60.730808,47.3641921 C60.9381686,47.3641921 61.1229658,47.4080306 61.1436645,47.4623605 L61.2894883,47.8466038 C61.31056,47.9020577 61.1570908,47.9470203 60.946933,47.9470203" id="Fill-55" fill="#D1D1D1" mask="url(#mask-4)"></path>
                    <path d="M65.6460574,47.9470203 L62.7715389,47.9470203 C62.5613811,47.9470203 62.3724816,47.9020577 62.3501045,47.8466038 L62.1943975,47.4623605 C62.1723934,47.4080306 62.3226926,47.3641921 62.5300533,47.3641921 L65.364666,47.3641921 C65.5720266,47.3641921 65.7616721,47.4080306 65.7883381,47.4623605 L65.9772377,47.8466038 C66.0046496,47.9020577 65.8562152,47.9470203 65.6460574,47.9470203" id="Fill-56" fill="#D1D1D1" mask="url(#mask-4)"></path>
                    <path d="M70.3451818,47.9470203 L67.4706633,47.9470203 C67.2605055,47.9470203 67.0665711,47.9020577 67.0380404,47.8466038 L66.8392576,47.4623605 C66.8110998,47.4080306 66.9565506,47.3641921 67.1637248,47.3641921 L69.998524,47.3641921 C70.2056982,47.3641921 70.4003785,47.4080306 70.4331982,47.4623605 L70.6651736,47.8466038 C70.6987391,47.9020577 70.555526,47.9470203 70.3451818,47.9470203" id="Fill-57" fill="#D1D1D1" mask="url(#mask-4)"></path>
                    <path d="M75.0443994,47.9470203 L72.1696945,47.9470203 C71.9595367,47.9470203 71.7607539,47.9020577 71.725883,47.8466038 L71.4840244,47.4623605 C71.4498994,47.4080306 71.5903154,47.3641921 71.7974895,47.3641921 L74.6322887,47.3641921 C74.8394629,47.3641921 75.0389916,47.4080306 75.077965,47.4623605 L75.3530162,47.8466038 C75.3927355,47.9020577 75.2545572,47.9470203 75.0443994,47.9470203" id="Fill-58" fill="#D1D1D1" mask="url(#mask-4)"></path>
                    <path d="M74.2785449,49.9088341 L72.1258727,49.9088341 C71.9058318,49.9088341 71.7626186,49.9674729 71.8060674,50.0401625 L72.4451186,51.1055898 C72.4909916,51.1820263 72.7121514,51.2442247 72.9387191,51.2442247 L75.1570305,51.2440373 L77.3751555,51.2440373 C77.6019096,51.2440373 77.7412068,51.1820263 77.6865695,51.1055898 L76.9236986,50.0401625 C76.8716719,49.9674729 76.651258,49.9088341 76.431217,49.9088341 L74.2785449,49.9088341 Z" id="Fill-59" fill="#D1D1D1" mask="url(#mask-4)"></path>
                    <path d="M17.8379766,48.2957244 L15.5337,48.2957244 C15.3216775,48.2957244 15.1107738,48.3502416 15.0626631,48.4174982 L14.3555484,49.4049903 C14.304827,49.4758064 14.4405811,49.5331338 14.6587574,49.5331338 L17.0305381,49.5331338 L18.2170811,49.5331338 C18.4354439,49.5331338 18.6476529,49.4758064 18.6912881,49.4049903 L19.2995709,48.4174982 C19.3411549,48.3502416 19.2027902,48.2957244 18.9907676,48.2957244 L17.8379766,48.2957244 Z" id="Fill-60" fill="#D1D1D1" mask="url(#mask-4)"></path>
                    <path d="M28.329307,49.5332275 L25.2073357,49.5332275 C24.9891594,49.5332275 24.8353172,49.4847053 24.8636615,49.4249424 L25.3496164,48.3984827 C25.3764689,48.3417174 25.5700303,48.295818 25.7820529,48.295818 L28.8152619,48.295818 C29.0272844,48.295818 29.1814996,48.3417174 29.159682,48.3984827 L28.7658459,49.4249424 C28.7429094,49.4847053 28.5474832,49.5332275 28.329307,49.5332275" id="Fill-61" fill="#D1D1D1" mask="url(#mask-4)"></path>
                    <path d="M23.2731568,49.5332275 L20.1511855,49.5332275 C19.9330092,49.5332275 19.7847613,49.4847053 19.8200051,49.4249424 L20.4254908,48.3984827 C20.4588699,48.3417174 20.6578391,48.295818 20.8698617,48.295818 L23.9028842,48.295818 C24.1149068,48.295818 24.2637141,48.3417174 24.2353699,48.3984827 L23.722376,49.4249424 C23.69254,49.4847053 23.491333,49.5332275 23.2731568,49.5332275" id="Fill-62" fill="#D1D1D1" mask="url(#mask-4)"></path>
                    <path d="M33.3853453,49.5332275 L30.263374,49.5332275 C30.0451977,49.5332275 29.8855748,49.4847053 29.9070195,49.4249424 L30.2736301,48.3984827 C30.2939559,48.3417174 30.4822961,48.295818 30.6943186,48.295818 L33.7273412,48.295818 C33.9395502,48.295818 34.0989867,48.3417174 34.0838822,48.3984827 L33.8093904,49.4249424 C33.7933535,49.4847053 33.6035215,49.5332275 33.3853453,49.5332275" id="Fill-63" fill="#D1D1D1" mask="url(#mask-4)"></path>
                    <path d="M38.4414023,49.5332275 L35.3194309,49.5332275 C35.1012547,49.5332275 34.9360375,49.4847053 34.9505826,49.4249424 L35.197849,48.3984827 C35.2116482,48.3417174 35.3945805,48.295818 35.6066031,48.295818 L38.6396256,48.295818 C38.8516482,48.295818 39.0164924,48.3417174 39.008101,48.3984827 L38.8529535,49.4249424 C38.8438162,49.4847053 38.6595785,49.5332275 38.4414023,49.5332275" id="Fill-64" fill="#D1D1D1" mask="url(#mask-4)"></path>
                    <path d="M48.5534975,49.5332275 L45.4315262,49.5332275 C45.21335,49.5332275 45.0369443,49.4847053 45.0375037,49.4249424 L45.046268,48.3984827 C45.0468275,48.3417174 45.2191307,48.295818 45.4309668,48.295818 L48.4641758,48.295818 C48.6761984,48.295818 48.8518582,48.3417174 48.8563336,48.3984827 L48.9398746,49.4249424 C48.944723,49.4845179 48.7716738,49.5332275 48.5534975,49.5332275" id="Fill-65" fill="#D1D1D1" mask="url(#mask-4)"></path>
                    <path d="M43.4974592,49.5332275 L40.3754879,49.5332275 C40.1573117,49.5332275 39.9865002,49.4847053 39.9939592,49.4249424 L40.1220678,48.3984827 C40.1293404,48.3417174 40.306865,48.295818 40.518701,48.295818 L43.55191,48.295818 C43.7639326,48.295818 43.9341846,48.3417174 43.9323199,48.3984827 L43.8963301,49.4249424 C43.8942789,49.4847053 43.7156355,49.5332275 43.4974592,49.5332275" id="Fill-66" fill="#D1D1D1" mask="url(#mask-4)"></path>
                    <path d="M53.6096477,49.5332275 L50.4876764,49.5332275 C50.2695002,49.5332275 50.0873137,49.4845179 50.0809736,49.4249424 L49.9703936,48.3984827 C49.9644264,48.3417174 50.1313219,48.295818 50.3433445,48.295818 L53.3765535,48.295818 C53.5883895,48.295818 53.7692707,48.3417174 53.7806457,48.3984827 L53.9833445,49.4249424 C53.9950924,49.4845179 53.827824,49.5332275 53.6096477,49.5332275" id="Fill-67" fill="#D1D1D1" mask="url(#mask-4)"></path>
                    <path d="M58.6657047,49.5332275 L55.5437334,49.5332275 C55.3255572,49.5332275 55.1377764,49.4845179 55.1243502,49.4249424 L54.8946125,48.3984827 C54.8819322,48.3417174 55.0436064,48.295818 55.2554424,48.295818 L58.2886514,48.295818 C58.500674,48.295818 58.6869629,48.3417174 58.7046781,48.3984827 L59.0269076,49.4249424 C59.0455551,49.4845179 58.8838809,49.5332275 58.6657047,49.5332275" id="Fill-68" fill="#D1D1D1" mask="url(#mask-4)"></path>
                    <path d="M63.721743,49.5332275 L60.5997717,49.5332275 C60.3815955,49.5332275 60.1882205,49.4845179 60.1678947,49.4249424 L59.8188127,48.3984827 C59.7996057,48.3417174 59.9558721,48.295818 60.1677082,48.295818 L63.2009172,48.295818 C63.4129398,48.295818 63.60445,48.3417174 63.6288783,48.3984827 L64.0702656,49.4249424 C64.0959992,49.4845179 63.9399193,49.5332275 63.721743,49.5332275" id="Fill-69" fill="#D1D1D1" mask="url(#mask-4)"></path>
                    <path d="M68.7778,49.5332275 L65.6558287,49.5332275 C65.4376525,49.5332275 65.2386832,49.4845179 65.2114578,49.4249424 L64.7430316,48.3984827 C64.7171115,48.3417174 64.8679701,48.295818 65.0799926,48.295818 L68.1132016,48.295818 C68.3252242,48.295818 68.5221422,48.3417174 68.5530971,48.3984827 L69.1136422,49.4249424 C69.1464619,49.4845179 68.9959762,49.5332275 68.7778,49.5332275" id="Fill-70" fill="#D1D1D1" mask="url(#mask-4)"></path>
                    <path d="M72.0657904,48.2957244 L69.9921838,48.2957244 C69.7803477,48.2957244 69.6395588,48.3502416 69.6781592,48.4174982 L70.2435527,49.4049903 C70.2838314,49.4758064 70.4938027,49.5331338 70.7119789,49.5331338 L72.84619,49.5331338 L76.1656387,49.5331338 C76.383815,49.5331338 76.5195691,49.4758064 76.4688477,49.4049903 L75.7619195,48.4174982 C75.7136223,48.3502416 75.5029051,48.2957244 75.2908826,48.2957244 L72.0657904,48.2957244 Z" id="Fill-71" fill="#D1D1D1" mask="url(#mask-4)"></path>
                    <path d="M58.5802057,55.1041552 L32.2442836,55.1041552 C31.9981361,55.1041552 31.8157631,55.0423316 31.8368348,54.9662698 L32.1978512,53.6649759 C32.2178041,53.593223 32.4270295,53.5351463 32.6653451,53.5351463 L58.1591443,53.5351463 C58.3974598,53.5351463 58.6066852,53.593223 58.6266381,53.6649759 L58.9876545,54.9662698 C59.0087262,55.0423316 58.8263533,55.1041552 58.5802057,55.1041552" id="Fill-72" fill="#D1D1D1" mask="url(#mask-4)"></path>
                </g>
                <g id="Page-1" transform="translate(0.815344, 48.399416)">
                    <g id="Group-3" transform="translate(21.568148, 46.578568)" fill="#FF6800">
                        <path d="M2.17253866,0.570864401 C2.1106172,0.346851203 2.23967822,0.114397948 2.46127354,0.0514491849 C2.68286887,-0.0111479095 2.91281315,0.119672984 2.97508248,0.343686182 C8.69133741,20.8259478 5.25887104,31.727689 2.83662889,39.4208015 C1.20579861,44.6001836 0.0452931105,48.2853238 2.58511646,52.4592839 C2.70548064,52.6576253 2.64425493,52.9178604 2.44805436,53.0395379 C2.25185378,53.1615671 1.99477538,53.0993216 1.87406332,52.901332 C-0.863699959,48.4013745 0.344812067,44.562555 2.04382552,39.1668965 C4.4344112,31.5740096 7.82234978,20.8143427 2.17253866,0.570864401" id="Fill-1"></path>
                    </g>
                    <path d="M23.8374997,44.8254628 C19.27688,46.0190276 14.1906237,43.1152961 9.8738633,38.5875568 C-0.347351542,27.8676286 -6.99625493,5.85630985 12.5486615,0.741634901 C32.0935779,-4.37304005 36.8441364,18.1344837 33.0526648,32.521617 C31.4514037,38.5977552 28.3981193,43.631898 23.8374997,44.8254628" id="Fill-4" fill="#FF6800"></path>
                    <path d="M20.7460535,38.1509597 C17.1233004,39.0990595 13.0830993,36.7921104 9.65341595,33.1955908 C1.53439978,24.6799243 -3.74736133,7.19493816 11.7785743,3.13175373 C27.3045099,-0.931079029 31.07824,16.9484798 28.0667004,28.3770212 C26.7941796,33.2040309 24.3691545,37.2028599 20.7460535,38.1509597" id="Fill-6" fill="#FF7C1B"></path>
                    <path d="M7.8302465,6.86528358 C9.08989591,7.19936919 7.39053458,9.65261262 6.6749591,12.4114565 C5.95938361,15.1703003 5.83275771,17.9790812 4.5731083,17.6453472 C3.31345889,17.3112616 2.96001957,14.2985127 3.67559505,11.5396688 C4.39117054,8.78047333 6.57059709,6.53154963 7.8302465,6.86528358" id="Fill-8" fill="#FFAC73"></path>
                    <polygon id="Fill-10" fill="#FF6800" points="23.3370838 43.4802583 23.1001821 49.0791815 24.8388531 48.6237701 26.2313901 48.2594409"></polygon>
                </g>
                <g id="Page-1" transform="translate(42.188341, 0.000000)">
                    <path d="M16.0614502,48.2127882 C15.9977549,47.9902587 16.1244531,47.7571993 16.3439248,47.6929676 C16.5633965,47.6283848 16.7929071,47.7564973 16.8566023,47.9790269 C18.928775,55.1887746 17.7334505,58.6843142 16.5678967,62.0917545 C15.9070584,64.0239711 15.2562591,65.9274063 15.2614517,68.4868474 C15.2676827,71.480467 16.9794926,74.7682186 18.6130681,77.9053943 C19.9433989,80.4606235 21.223535,82.9189787 21.5461653,85.1270758 C21.9317985,87.7679474 21.7659831,90.4748056 21.3502331,92.8878826 C20.756898,96.3328792 19.6443081,99.2015452 18.9014276,100.420193 C18.7813067,100.6171 18.5265257,100.678173 18.3319782,100.556378 C18.1374308,100.434935 18.0771972,100.176253 18.196972,99.9789948 C18.8996968,98.8266847 19.9575918,96.0801642 20.5325799,92.7429225 C20.9348293,90.4063619 21.0961445,87.7907619 20.7250504,85.2492214 C20.4228441,83.1815215 19.1759403,80.7866961 17.8795342,78.2971025 C16.2002643,75.0718276 14.4406829,71.6917648 14.4337595,68.4868474 C14.4282208,65.7880621 15.1018674,63.8182892 15.785899,61.8186819 C16.9085278,58.5361951 18.0605811,55.1677151 16.0614502,48.2127882" id="Fill-1" fill="#B9C100"></path>
                    <g id="Group-5" transform="translate(0.000000, 0.235165)">
                        <mask id="mask-6" fill="white">
                            <use xlink:href="#path-5"></use>
                        </mask>
                        <g id="Clip-4"></g>
                        <path d="M16.6184028,45.5653882 C11.9302246,45.5653882 7.74710813,41.4731605 4.70531367,36.0071461 C-2.49675003,23.0649803 -3.4719105,0.116003195 16.6184028,0.116003195 C36.7087162,0.116003195 35.7328634,23.0649803 28.5311459,36.0071461 C25.4893514,41.4731605 21.3062349,45.5653882 16.6184028,45.5653882" id="Fill-3" fill="#B9C100" mask="url(#mask-6)"></path>
                    </g>
                    <path d="M15.2866182,38.5697462 C11.5628691,38.5697462 8.23963859,35.3191998 5.82337305,30.9770651 C0.102223956,20.6957773 -0.672504165,2.46590151 15.2866182,2.46590151 C31.2460867,2.46590151 30.4706663,20.6957773 24.7498634,30.9770651 C22.3335978,35.3188488 19.0107134,38.5697462 15.2866182,38.5697462" id="Fill-6" fill="#C7CF00"></path>
                    <path d="M10.5622652,5.07490287 C11.6935483,5.71581614 9.45105998,7.65645658 8.08126589,10.1414872 C6.71112563,12.6261668 5.8962418,15.3081046 4.76495874,14.6671913 C3.63402184,14.025927 4.03696354,11.0256386 5.40675763,8.54060802 C6.77655173,6.05557739 9.4313283,4.43363861 10.5622652,5.07490287" id="Fill-8" fill="#EAF15C"></path>
                    <polygon id="Fill-10" fill="#B9C100" points="16.4681305 44.3743285 14.8587869 49.7238132 16.6460618 49.7238132 18.0774741 49.7238132"></polygon>
                </g>
                <g id="Page-1" transform="translate(75.766816, 55.102905)">
                    <path d="M13.5769412,34.2487315 C13.6012974,34.0862061 13.7531506,33.9742992 13.9156906,33.998616 C14.0787278,34.0229328 14.1908158,34.1745405 14.1662111,34.337066 C13.7387357,37.141933 14.3809429,39.0331836 15.1059113,41.1688427 C15.662872,42.8084889 16.2673023,44.5888252 16.4954549,47.0326623 C16.7017366,49.2410237 15.7190403,53.0843168 14.7987255,56.6846902 C14.0508921,59.6089079 13.3448122,62.3710965 13.3646947,63.8841962 C13.3883053,65.650389 13.7576242,67.0845833 14.2621445,68.2408713 C14.7659193,69.3959187 15.4066353,70.2760376 15.9732887,70.9338315 C16.079909,71.058393 16.0652456,71.2459797 15.9404825,71.3524276 C15.8157193,71.4591237 15.6278289,71.444484 15.5209601,71.3199225 C14.9247314,70.6276385 14.2497179,69.6993823 13.7166163,68.4783322 C13.1847574,67.2587709 12.7953075,65.7479043 12.7707028,63.8911439 C12.7495776,62.2929354 13.4641076,59.4974974 14.2208882,56.538045 C15.1297704,52.9830796 16.0997916,49.1879238 15.9036997,47.0857623 C15.6827546,44.7181012 15.0890111,42.9697738 14.5422403,41.3594069 C13.7921701,39.1505493 13.1278436,37.1940404 13.5769412,34.2487315" id="Fill-1" fill="#FF3F3F"></path>
                    <g id="Group-5" transform="translate(0.000000, 0.210415)">
                        <mask id="mask-8" fill="white">
                            <use xlink:href="#path-7"></use>
                        </mask>
                        <g id="Clip-4"></g>
                        <path d="M13.6679537,32.1136183 C10.3152544,32.4081492 7.06942385,29.7886357 4.55527212,26.1301998 C-1.39781965,17.4679645 -3.51804784,1.36801781 10.8503442,0.107018679 C25.2189848,-1.15373233 25.9437046,15.0687908 21.5951368,24.6349654 C19.7589809,28.6752742 17.0206531,31.8193356 13.6679537,32.1136183" id="Fill-3" fill="#FF3F3F" mask="url(#mask-8)"></path>
                    </g>
                    <path d="M12.2673008,27.3156183 C9.60378124,27.5491091 7.02575674,25.4687831 5.02855199,22.5624307 C0.299729832,15.6812761 -1.38482141,2.89188639 10.0290198,1.89043174 C21.4431096,0.888977095 22.0187102,13.7753858 18.5648582,21.3746301 C17.1059742,24.5841979 14.9308204,27.0818794 12.2673008,27.3156183" id="Fill-6" fill="#FF4D4E"></path>
                    <path d="M6.81196934,4.02418024 C7.6607068,4.4048124 6.1772181,5.91195698 5.35159414,7.74787445 C4.52597017,9.58379193 4.10918167,11.5236761 3.26044421,11.1430439 C2.41195529,10.7626599 2.51385349,8.62451946 3.33947745,6.78860199 C4.16534995,4.95268452 5.96323188,3.6437962 6.81196934,4.02418024" id="Fill-8" fill="#FF7F7F"></path>
                    <polygon id="Fill-10" fill="#FF3F3F" points="13.4720855 31.3292034 12.6526748 35.1975577 13.9311245 35.0854027 14.9548286 34.9955795"></polygon>
                </g>
                <g id="Page-1" transform="translate(125.357008, 84.913160) rotate(8.000000) translate(-125.357008, -84.913160) translate(104.857008, 22.913160)">
                    <g id="Group-3" transform="translate(21.728815, 58.372823)" fill="#FFC72C">
                        <path d="M0.171913273,0.982997922 C0.0769029633,0.717519228 0.214944848,0.424680411 0.479525126,0.329774984 C0.744105404,0.234869557 1.03595322,0.372952678 1.13053747,0.638431372 C2.88375461,5.54016842 5.69912736,18.7961481 5.95731681,33.9395487 C6.12560862,43.8041556 5.21129416,54.4797336 2.21697823,64.1912948 C2.13432352,64.461476 1.84929259,64.6128117 1.5800257,64.5303038 C1.31075882,64.4473684 1.15993528,64.1609421 1.24258999,63.8907609 C4.2019694,54.2920602 5.10520642,43.7250677 4.93861883,33.9553663 C4.68255966,18.9355137 1.90254949,5.82231969 0.171913273,0.982997922" id="Fill-1"></path>
                    </g>
                    <g id="Group-6" transform="translate(-0.000000, 0.232561)">
                        <mask id="mask-10" fill="white">
                            <use xlink:href="#path-9"></use>
                        </mask>
                        <g id="Clip-5"></g>
                    </g>
                    <path d="M22.6531845,55.733725 C16.8954745,56.1099267 11.4347251,51.4719583 7.26790521,45.072682 C-2.59825502,29.9203039 -5.60620472,2.10660123 19.06793,0.494063973 C43.7429168,-1.11804578 44.354306,26.8525501 36.5302284,43.1604659 C33.2257442,50.0479494 28.4108944,55.3575233 22.6531845,55.733725" id="Fill-4" fill="#FFC72C"></path>
                    <path d="M8.22601814,38.5831601 C0.388306708,26.5468434 -2.00058479,4.45226153 17.5996586,3.17146577 C37.200328,1.89067001 37.686457,24.109655 31.4711637,37.0642457 C28.8462376,42.5358429 25.0211141,46.7531493 20.4474115,47.0519732 C15.874135,47.350797 11.5356149,43.6670129 8.22601814,38.5831601 Z" id="Fill-7" fill="#FFDB81"></path>
                    <path d="M12.0030827,6.72152724 C13.4427232,7.40980534 10.8416562,9.94831176 9.35557568,13.0784808 C7.86864304,16.2082224 7.07958881,19.5337599 5.6399483,18.8450543 C4.20030778,18.1567762 4.45849723,14.4776946 5.94457776,11.3475256 C7.43108435,8.21778397 10.5634422,6.03324914 12.0030827,6.72152724" id="Fill-9" fill="#FFEEC2"></path>
                    <polygon id="Fill-11" fill="#FFC72C" points="22.3561388 54.012474 20.8018894 60.6434563 22.9964998 60.4998157 24.7548296 60.3848177"></polygon>
                </g>
                <g id="Page-1" transform="translate(170.905830, 63.712734)">
                    <path d="M6.17727602,28.3435011 C6.21743915,28.2118375 6.35614687,28.1380892 6.48698759,28.1782966 C6.61762128,28.2187123 6.69090865,28.3582924 6.65095254,28.4897476 C5.88764601,30.9796892 6.84949091,34.0839913 7.95687541,37.657449 C9.8217697,43.6750161 12.0914007,50.9990107 7.41674339,59.2073596 C7.34883872,59.3271485 7.19708833,59.3686059 7.07825514,59.3002741 C6.95921493,59.2319424 6.91801667,59.0790293 6.98592134,58.9594488 C11.553546,50.9394288 9.31910947,43.7293898 7.48340591,37.8057789 C6.35159229,34.1539896 5.36842366,30.9815641 6.17727602,28.3435011" id="Fill-1" fill="#00A596"></path>
                    <g id="Group-5" transform="translate(0.000000, 0.167913)">
                        <mask id="mask-12" fill="white">
                            <use xlink:href="#path-11"></use>
                        </mask>
                        <g id="Clip-4"></g>
                    </g>
                    <path d="M6.80380017,26.9077848 C4.06049264,26.3255068 2.11051048,23.4297415 0.995673025,19.8773249 C-1.6435002,11.4664807 0.578721748,-1.98257844 12.335133,0.511946311 C24.0915442,3.00667939 20.7275713,16.2136609 14.9382836,22.8357971 C12.4930941,25.6326064 9.54710771,27.4898545 6.80380017,26.9077848" id="Fill-3" fill="#00A596"></path>
                    <path d="M2.29089262,16.9581018 C0.194335732,10.2770087 1.9596503,-0.406698783 11.2986136,1.57492135 C20.6375769,3.55674981 17.9652795,14.0479618 13.3663938,19.3084633 C11.4238646,21.5300777 9.08384461,23.0052514 6.90468416,22.5429706 C4.72552372,22.0804815 3.17634477,19.7801188 2.29089262,16.9581018 Z" id="Fill-6" fill="#1FB4A6"></path>
                    <path d="M8.21640377,2.50356621 C8.80021837,3.0162625 7.25186753,3.86499257 6.14779545,5.13787935 C5.04372337,6.41097445 4.24046074,7.86739859 3.65664614,7.35470229 C3.07262451,6.84179767 3.67362231,5.14933741 4.77769438,3.87624231 C5.88176646,2.6031472 7.63258917,1.99086992 8.21640377,2.50356621" id="Fill-8" fill="#6DD3C6"></path>
                    <polygon id="Fill-10" fill="#00A596" points="6.88952983 26.0608464 5.29687532 28.9678614 6.34256594 29.1897312 7.18019497 29.3674354"></polygon>
                </g>
                <path d="M13.3995336,73.4487288 C12.3353489,72.4155441 11.8032646,71.1008364 11.8032646,69.5045661 C11.8032646,67.9082958 12.3353489,66.5910052 13.3995336,65.5526546 C14.4637183,64.5143041 15.765517,63.9951366 17.3049686,63.9951366 C18.4518084,63.9951366 19.4720673,64.2766752 20.3657758,64.8397608 C21.2594843,65.4028464 21.9078007,66.2009696 22.3107444,67.2341542 L20.1875516,67.2341542 C19.6089657,66.1493104 18.6481143,65.6068966 17.3049686,65.6068966 C16.2201201,65.6068966 15.3341738,65.9633399 14.6471031,66.6762373 C13.9600324,67.3891347 13.6165022,68.3319015 13.6165022,69.5045661 C13.6165022,70.6772307 13.9600324,71.6199975 14.6471031,72.3328949 C15.3341738,73.0457923 16.1891249,73.4022357 17.2119821,73.4022357 C18.2348392,73.4022357 19.0484633,73.1310288 19.6528789,72.5886068 C20.2572945,72.0461849 20.6214882,71.3100519 20.7454709,70.3801857 L16.7005561,70.3801857 L16.7005561,69.0008911 L22.6361973,69.0008911 L22.6361973,70.3801857 C22.4708871,71.6716665 21.8923099,72.7642429 20.9004484,73.6579476 C19.908587,74.5516523 18.6765275,74.998498 17.2042332,74.998498 C15.7319388,74.998498 14.4637183,74.4819134 13.3995336,73.4487288 L13.3995336,73.4487288 Z" id="G" fill="#FFFFFF"></path>
                <polygon id="L" fill="#FFFFFF" points="55.4079283 14.1976079 57.1746726 14.1976079 57.1746726 23.6202047 60.8166457 23.6202047 60.8166457 24.9685039 55.4079283 24.9685039"></polygon>
                <path d="M91.3429238,65.9022137 C92.0041647,66.5066267 92.3347803,67.2608402 92.3347803,68.1648767 C92.3347803,69.0689133 92.0222453,69.8334585 91.3971659,70.4585352 C90.7720866,71.0836119 89.8138181,71.3961455 88.5223318,71.3961455 L86.5696143,71.3961455 L86.5696143,75.7664947 L84.80287,75.7664947 L84.80287,64.9955987 L88.5223318,64.9955987 C89.7414949,64.9955987 90.6816828,65.2978007 91.3429238,65.9022137 L91.3429238,65.9022137 Z M86.5696143,70.0168509 L88.5223318,70.0168509 C89.1939047,70.0168509 89.6949939,69.8567097 90.0256143,69.5364225 C90.3562348,69.2161352 90.5215426,68.7692896 90.5215426,68.1958721 C90.5215426,67.6224546 90.3562348,67.175609 90.0256143,66.8553217 C89.6949939,66.5350345 89.1939047,66.3748933 88.5223318,66.3748933 L86.5696143,66.3748933 L86.5696143,70.0168509 Z" id="P" fill="#FFFFFF"></path>
                <path d="M127.013596,49.4496916 L128.764843,49.4496916 C130.015002,49.4496916 130.978436,49.0932482 131.655175,48.3803508 C132.331914,47.6674534 132.670278,46.6885256 132.670278,45.4435381 C132.670278,44.1985507 132.331914,43.2222058 131.655175,42.5144743 C130.978436,41.8067429 130.015002,41.4528824 128.764843,41.4528824 L127.013596,41.4528824 L127.013596,49.4496916 Z M128.764843,40.0270948 C130.500601,40.0270948 131.887636,40.5152672 132.925991,41.4916267 C133.964346,42.4679861 134.483516,43.7852768 134.483516,45.4435381 C134.483516,47.1017995 133.964346,48.4087585 132.925991,49.3644542 C131.887636,50.32015 130.500601,50.7979908 128.764843,50.7979908 L125.246852,50.7979908 L125.246852,40.0270948 L128.764843,40.0270948 Z" id="D" fill="#FF8B25"></path>
                <path d="M182.302709,80.9323921 L181.700018,79.2207581 L178.192359,79.2207581 L177.589668,80.9323921 L176.155265,80.9323921 L179.156664,72.5429747 L180.747767,72.5429747 L183.749166,80.9323921 L182.302709,80.9323921 Z M178.566027,78.1479734 L181.32635,78.1479734 L179.952215,74.2063937 L178.566027,78.1479734 Z" id="A" fill="#FFFFFF"></path>
                <path d="M26.2041328,95.6410845 C26.292093,95.5755939 26.3860816,95.5155837 26.4841805,95.4618759 C26.7508012,95.3158236 27.0522224,95.2141625 27.3629602,95.1714155 C27.6756162,95.1283945 27.9984108,95.1453837 28.3055864,95.2363581 C29.0205026,95.448723 29.6419783,96.0493732 29.8461226,97.2106668 C29.8707844,97.3534308 29.7751517,97.4896184 29.6321136,97.5145541 C29.4890756,97.5397639 29.352888,97.4438571 29.3279522,97.3010931 C29.1646368,96.3721679 28.6944197,95.8992106 28.157616,95.7400054 C27.9238776,95.6704045 27.6753421,95.6580737 27.4325611,95.691504 C27.1878619,95.7252084 26.9491911,95.8057701 26.7368262,95.9219542 C26.5047319,96.0493732 26.306342,96.218169 26.1707024,96.4127227 C26.3912879,96.2968126 26.6220121,96.2252935 26.8557506,96.1948774 C27.3089784,96.1356892 27.7690567,96.232418 28.1839219,96.45958 C28.5916625,96.6829057 28.9561081,97.0311841 29.2265651,97.4794796 C29.6129323,98.1204107 29.8113222,98.9682262 29.6721204,99.947023 C29.651843,100.090609 29.5186696,100.190626 29.3750836,100.170075 C29.2314975,100.149523 29.1317545,100.016624 29.1520319,99.8730378 C29.2728744,99.0241262 29.1051746,98.295783 28.7763515,97.7507587 C28.5541219,97.3822028 28.2595512,97.0983189 27.9331943,96.9199323 C27.6142358,96.7451081 27.2643133,96.6703008 26.9237073,96.7146919 C26.8417756,96.7253787 26.7601178,96.7429159 26.6792822,96.7678516 C26.8428717,96.8369045 27.0102974,96.9352774 27.1766271,97.0605042 C27.5136708,97.3147941 27.8540027,97.6869122 28.1409008,98.1546631 C28.740455,99.1315417 29.1153133,100.537809 28.7530599,102.180828 C28.7218217,102.32277 28.5815238,102.412374 28.4398558,102.381136 C28.2979139,102.349898 28.2080356,102.2096 28.2395478,102.067658 C28.5680969,100.576171 28.2321493,99.306366 27.6928794,98.4278603 C27.4424258,98.0198456 27.1489512,97.697873 26.8601349,97.4797537 C26.5929661,97.2783495 26.3403203,97.170934 26.1435745,97.1736742 C26.0599987,97.1747702 25.9884796,97.199158 25.936142,97.2482074 L25.9251812,97.2597162 C25.8769538,97.3189044 25.8037907,97.356445 25.7218589,97.356445 L25.7161045,97.356445 L25.7106241,97.356445 C25.6286924,97.356445 25.5555292,97.3189044 25.5073018,97.2597162 L25.4963411,97.2482074 C25.4437294,97.199158 25.3724844,97.1747702 25.2889085,97.1736742 C25.0921627,97.170934 24.8395169,97.2783495 24.5723481,97.4797537 C24.2835318,97.697873 23.9900572,98.0198456 23.7393296,98.4278603 C23.2003338,99.306366 22.8643861,100.576171 23.1929352,102.067658 C23.2241734,102.2096 23.1345691,102.349898 22.9926272,102.381136 C22.8509592,102.412374 22.7103873,102.32277 22.6794232,102.180828 C22.3171697,100.537809 22.692028,99.1315417 23.2915822,98.1546631 C23.5784803,97.6869122 23.9188122,97.3147941 24.2558559,97.0605042 C24.4221856,96.9352774 24.5896114,96.8369045 24.7532008,96.7678516 C24.6723652,96.7429159 24.5907074,96.7253787 24.5087757,96.7146919 C24.1681697,96.6703008 23.8182472,96.7451081 23.4992888,96.9199323 C23.1729318,97.0983189 22.8783611,97.3822028 22.6561315,97.7507587 C22.3273084,98.295783 22.1596086,99.0241262 22.2804511,99.8730378 C22.3007286,100.016624 22.2009855,100.149523 22.0573995,100.170075 C21.9138134,100.190626 21.78064,100.090609 21.7603626,99.947023 C21.6211608,98.9682262 21.8195507,98.1204107 22.2059179,97.4794796 C22.4763749,97.0311841 22.8408205,96.6829057 23.2485611,96.45958 C23.6634263,96.232418 24.1232306,96.1356892 24.5767324,96.1948774 C24.8104709,96.2252935 25.0409211,96.2968126 25.2617806,96.4127227 C25.126141,96.218169 24.9277511,96.0493732 24.6956568,95.9219542 C24.4832919,95.8057701 24.2446211,95.7252084 23.9999219,95.691504 C23.7571409,95.6580737 23.5086054,95.6704045 23.274867,95.7400054 C22.7380633,95.8992106 22.2678462,96.3721679 22.1045308,97.3010931 C22.079595,97.4438571 21.9431334,97.5397639 21.8003694,97.5145541 C21.6573313,97.4896184 21.5616986,97.3534308 21.5863604,97.2106668 C21.7905047,96.0493732 22.4119804,95.448723 23.1268966,95.2363581 C23.4340722,95.1453837 23.7568668,95.1283945 24.0695228,95.1714155 C24.3802606,95.2141625 24.6816818,95.3158236 24.9483026,95.4618759 C25.0464014,95.5155837 25.14039,95.5755939 25.2283502,95.6410845 C25.1727243,95.4892778 25.1050416,95.3462398 25.0231098,95.2147105 C24.7800547,94.8242331 24.4060185,94.5334987 23.8478412,94.4321116 C23.7053512,94.4066278 23.6108146,94.2704402 23.6360244,94.1279502 C23.6617822,93.9854602 23.7979697,93.8906495 23.9401857,93.9161333 C24.6646926,94.0479366 25.1518989,94.4271792 25.4692131,94.9374031 C25.5681341,95.0960602 25.6495178,95.2670482 25.7161045,95.4462568 C25.7829652,95.2670482 25.8643489,95.0960602 25.9632699,94.9374031 C26.2805842,94.4271792 26.7677904,94.0479366 27.4922973,93.9161333 C27.6345133,93.8906495 27.7707008,93.9854602 27.7964586,94.1279502 C27.8216684,94.2704402 27.7271318,94.4066278 27.5846418,94.4321116 C27.0264646,94.5334987 26.6524283,94.8242331 26.4093732,95.2147105 C26.3274414,95.3462398 26.2597587,95.4892778 26.2041328,95.6410845" id="Fill-1" fill="#FF7C1B" transform="translate(25.716242, 98.149671) rotate(-11.000000) translate(-25.716242, -98.149671) "></path>
                <path d="M106.229341,105.894733 C106.324569,105.565998 106.357406,105.228871 106.332961,104.909987 C106.318002,104.918014 106.302678,104.92677 106.287718,104.935892 C106.029036,105.095699 105.807203,105.377732 105.680233,105.680563 L105.679868,105.680563 C105.537574,106.020609 105.572965,106.339128 105.693368,106.522651 C105.723286,106.568258 105.754664,106.6 105.783852,106.612405 L105.783852,106.61277 C105.794433,106.616784 105.807203,106.616784 105.821797,106.611676 C105.950227,106.562785 106.097264,106.350074 106.229341,105.894733 M107.089672,100.485378 C107.017066,100.338341 106.940446,100.208452 106.860907,100.094617 C106.72664,100.259532 106.602224,100.460932 106.492038,100.702102 C106.158924,101.428166 106.190667,101.916708 106.378568,102.186701 C106.490943,102.348333 106.664615,102.427506 106.835732,102.423128 C107.008309,102.419479 107.180886,102.330455 107.289978,102.157148 C107.482257,101.852128 107.495027,101.30375 107.089672,100.485378 M103.782982,103.631896 C103.772401,103.638464 103.76109,103.644666 103.74978,103.650139 C103.575014,103.731502 103.367411,103.655977 103.285683,103.48194 C102.702278,102.235957 103.076255,100.78383 103.831872,99.8246233 C104.083258,99.5057391 104.379156,99.2382996 104.69877,99.047115 C105.031154,98.8486333 105.390537,98.7322442 105.754664,98.7264065 C106.153816,98.7198391 106.54932,98.841701 106.910893,99.1262888 C106.975107,99.0865195 107.040416,99.0503987 107.10682,99.0186562 C107.589525,98.7873375 108.117836,98.7676353 108.646513,98.9391176 C109.14746,99.1011137 109.646218,99.4360516 110.100829,99.9238641 C111.008956,100.897665 111.760924,102.504856 111.997716,104.575049 C112.019607,104.766598 111.881691,104.94027 111.689777,104.962161 C111.497863,104.984053 111.324556,104.846137 111.302665,104.654588 C111.083751,102.742742 110.405119,101.275291 109.588936,100.399636 C109.216418,99.9997542 108.819819,99.729031 108.433072,99.6038853 C108.074054,99.4871314 107.721603,99.4977122 107.407462,99.6483978 L107.403448,99.6502221 C107.514,99.8041913 107.618713,99.9785925 107.71613,100.17598 C108.24882,101.25121 108.187159,102.042948 107.881045,102.528936 C107.638416,102.914589 107.246925,103.111611 106.852151,103.120733 C106.456282,103.130584 106.058224,102.951804 105.803919,102.586219 C105.491238,102.136716 105.402213,101.403355 105.856823,100.412041 C106.004225,100.090968 106.176073,99.8206098 106.366163,99.5995071 C106.16987,99.4750912 105.966645,99.4207276 105.765609,99.4243762 C105.529912,99.4276599 105.288013,99.5082931 105.057059,99.6462086 C104.813335,99.7921511 104.582381,100.003038 104.382075,100.257343 C103.836251,100.949474 103.530136,101.947356 103.791738,102.851104 C104.220444,102.663933 104.615948,102.585489 104.972777,102.59461 C105.492332,102.607745 105.925781,102.802578 106.262179,103.117449 C106.547861,103.384159 106.758748,103.73588 106.887907,104.132479 C107.156076,104.17991 107.421326,104.31965 107.66578,104.577968 C108.036838,104.970188 108.364114,105.656118 108.573177,106.748497 C108.609298,106.937857 108.484882,107.121015 108.295521,107.1575 C108.105796,107.193986 107.922638,107.06957 107.886518,106.879845 C107.70409,105.928665 107.444677,105.357665 107.15936,105.056659 C107.118131,105.012876 107.076172,104.975296 107.034579,104.944283 C107.053186,105.318991 107.009769,105.709022 106.899582,106.088837 C106.697452,106.786806 106.383311,107.14619 106.068075,107.265498 C105.873972,107.338834 105.682057,107.328983 105.506197,107.252728 L105.505102,107.252363 L105.505102,107.252728 C105.347849,107.184135 105.211393,107.063732 105.107774,106.90575 C104.877915,106.555488 104.794727,105.983393 105.034438,105.411299 L105.035168,105.40984 L105.034438,105.40984 C105.213217,104.983323 105.536115,104.579427 105.921038,104.342271 C106.003131,104.291556 106.087777,104.248138 106.175343,104.213477 C106.08194,103.982523 105.951321,103.780757 105.786041,103.626058 C105.571141,103.425023 105.292391,103.300972 104.956359,103.292215 C104.629083,103.284188 104.24416,103.382335 103.805603,103.62095 C103.798306,103.624964 103.790644,103.628612 103.782982,103.631896" id="Fill-1" fill="#FF4D4E"></path>
                <g id="Page-1" transform="translate(51.000000, 46.000000)">
                    <path d="M12.4114759,1.62646129 C11.2649931,1.79700968 9.84651034,2.79671935 8.55878621,5.25788065 C11.6043034,5.34013871 13.2710621,4.70126774 13.9987862,3.89678387 C14.4859586,3.35826774 14.4953379,2.74407419 14.1979586,2.29549355 C13.8801655,1.81565484 13.2230621,1.50581613 12.4114759,1.62646129 M7.26664828,5.49697742 C8.81809655,2.15126774 10.7121655,0.815396774 12.2586483,0.586170968 C13.5094069,0.400267742 14.5505103,0.922332258 15.0796138,1.7196871 C15.6296828,2.54939677 15.6363034,3.65933226 14.7849931,4.60036452 C13.8134069,5.67410645 11.6329931,6.51917097 7.69864828,6.27075161 C7.40733793,6.25265484 7.18609655,6.00259032 7.20430345,5.71304194 C7.20926897,5.63517097 7.23133793,5.5616871 7.26664828,5.49697742" id="Fill-1" fill="#B9C100"></path>
                    <g id="Group-5" transform="translate(0.000000, 0.335065)">
                        <mask id="mask-14" fill="white">
                            <use xlink:href="#path-13"></use>
                        </mask>
                        <g id="Clip-4"></g>
                        <path d="M3.20485517,0.250887097 C4.75133793,0.480112903 6.64485517,1.81598387 8.19685517,5.16169355 C8.23216552,5.22640323 8.25423448,5.2998871 8.2592,5.37830645 C8.2774069,5.66785484 8.05616552,5.91737097 7.76485517,5.93546774 C3.83051034,6.1838871 1.65064828,5.33882258 0.678510345,4.26508065 C-0.173351724,3.32404839 -0.16617931,2.2141129 0.383889655,1.38440323 C0.912993103,0.587048387 1.95409655,0.064983871 3.20485517,0.250887097 M6.90526897,4.92314516 C5.6169931,2.46143548 4.19851034,1.46172581 3.05202759,1.29117742 C2.24044138,1.17108065 1.58388966,1.48037097 1.26554483,1.96020968 C0.968165517,2.40933871 0.977544828,3.02408065 1.46471724,3.5615 C2.19244138,4.36653226 3.85975172,5.00540323 6.90526897,4.92314516" id="Fill-3" fill="#B9C100" mask="url(#mask-14)"></path>
                    </g>
                    <path d="M7.55183448,6.23960323 C7.27762759,6.14089355 7.13583448,5.83982903 7.23514483,5.56728065 C7.33445517,5.29473226 7.63735172,5.15434516 7.91155862,5.25250645 C12.1659034,6.79950645 12.3545931,9.17950645 12.5416276,11.5364742 C12.6663172,13.1092484 12.7904552,14.6705065 14.4649379,15.8287 C14.7043862,15.9948613 14.7639724,16.3227968 14.5973517,16.5607968 C14.4301793,16.7993452 14.1008,16.8580226 13.8608,16.6929581 C11.7741793,15.2501516 11.6312828,13.4404742 11.4861793,11.6192806 C11.3261793,9.59573226 11.1639724,7.55353871 7.55183448,6.23960323" id="Fill-6" fill="#B9C100"></path>
                    <path d="M7.59928276,5.23813871 C7.88121379,5.16575161 8.16976552,5.33410645 8.24314483,5.61488065 C8.31597241,5.89510645 8.1465931,6.1819129 7.86411034,6.2543 C7.72011034,6.29159032 7.5750069,6.33381613 7.42990345,6.37988065 C5.38135172,7.03355806 3.88231724,8.41823548 3.01831724,10.1078161 L3.00452414,10.1324935 C2.1488,11.823171 1.92369655,13.8149129 2.41528276,15.6865581 C2.4505931,15.8220097 2.49142069,15.9602032 2.53666207,16.1005903 C2.62548966,16.376429 2.47266207,16.6725581 2.19514483,16.7608484 C1.91762759,16.8491387 1.62024828,16.6972355 1.53086897,16.4213968 C1.48176552,16.2678484 1.43542069,16.1104613 1.39348966,15.9492355 C0.8368,13.8297194 1.09114483,11.5753 2.05997241,9.66197742 L2.07486897,9.63071935 C3.05969655,7.70478387 4.77004138,6.12652581 7.10714483,5.38017097 C7.26493793,5.33026774 7.42935172,5.28255806 7.59928276,5.23813871" id="Fill-8" fill="#B9C100"></path>
                </g>
                <g id="Page-1" transform="translate(164.000000, 46.000000)">
                    <g id="Group-3" transform="translate(0.000000, 0.260766)">
                        <mask id="mask-16" fill="white">
                            <use xlink:href="#path-15"></use>
                        </mask>
                        <g id="Clip-2"></g>
                        <path d="M3.93392,7.79205195 C6.10032,7.79205195 7.86792,6.07075325 7.86792,3.96062338 C7.86792,1.8501039 6.10032,0.128805195 3.93392,0.128805195 C1.76712,0.128805195 -7.99999998e-05,1.8501039 -7.99999998e-05,3.96062338 C-7.99999998e-05,6.07075325 1.76712,7.79205195 3.93392,7.79205195" id="Fill-1" fill="#FEB301" mask="url(#mask-16)"></path>
                    </g>
                    <path d="M3.48704,5.66949351 C4.77304,5.66949351 5.82144,4.64793506 5.82144,3.39572727 C5.82144,2.14312987 4.77304,1.12157143 3.48704,1.12157143 C2.20104,1.12157143 1.15264,2.14312987 1.15264,3.39572727 C1.15264,4.64793506 2.20104,5.66949351 3.48704,5.66949351" id="Fill-4" fill="#FFC72C"></path>
                </g>
                <g id="Page-1" transform="translate(152.000000, 140.000000)">
                    <path d="M2.95230178,3.12568547 C3.05245562,3.00195897 3.23760355,2.9801812 3.36608876,3.07662564 C3.49457396,3.17307009 3.51718935,3.3516 3.4170355,3.4753265 C2.9754142,4.01809573 2.41400592,3.98004444 1.85110651,3.94175385 C1.40053846,3.91112137 0.94847929,3.88024957 0.687035503,4.32944615 C0.607011834,4.46681368 0.42683432,4.51563419 0.284680473,4.43857436 C0.142029586,4.36175385 0.0913313609,4.18824957 0.17135503,4.05112137 C0.61595858,3.28698462 1.25540237,3.33030085 1.89260947,3.37385641 C2.29943787,3.40137778 2.70527219,3.42913846 2.95230178,3.12568547" id="Fill-1" fill="#00A596"></path>
                    <path d="M2.91176805,3.1925265 C2.9736497,3.04750085 3.14587456,2.97809915 3.29697515,3.03792821 C3.44733018,3.09751795 3.51940118,3.2633641 3.45751953,3.40838974 C3.21819408,3.96671453 2.89412308,4.39078291 2.49176805,4.71529573 C2.0916497,5.03789402 1.61921183,5.25878291 1.07942485,5.4133812 C0.922856805,5.45837265 0.758336095,5.37245812 0.711614201,5.22168889 C0.665140828,5.07139829 0.753862722,4.91249231 0.910430769,4.86774017 C1.37615858,4.73420171 1.77876213,4.54777436 2.11227692,4.27878291 C2.44330651,4.0119453 2.71146036,3.65967179 2.91176805,3.1925265" id="Fill-3" fill="#6DD3C6"></path>
                    <g id="Group-7" transform="translate(1.988166, 2.995856)" fill="#00A596">
                        <path d="M0.906131361,0.359094017 C0.874817751,0.204735043 0.979693491,0.0551623932 1.13974083,0.025008547 C1.30003669,-0.00490598291 1.45536213,0.0956068376 1.48667574,0.249965812 C1.65119645,1.05765812 1.29108994,1.52384615 0.981184615,1.92517949 C0.748817751,2.226 0.55919645,2.47129915 0.94067574,2.87430769 C1.05052189,2.99037607 1.04182367,3.1705812 0.921042604,3.27611966 C0.800261538,3.38213675 0.613373964,3.37376068 0.503527811,3.25721368 C-0.205253254,2.50863248 0.11484142,2.09437607 0.507007101,1.58678632 C0.74484142,1.27902564 1.02069941,0.921726496 0.906131361,0.359094017" id="Fill-5"></path>
                    </g>
                    <path d="M2.91636568,3.41968547 C2.84802249,3.27681368 2.91263787,3.10785641 3.06100473,3.04228376 C3.20912308,2.97623248 3.3845787,3.03869402 3.45292189,3.1813265 C3.69970296,3.69513846 3.88932426,4.22091624 4.00240118,4.71773675 C4.11274438,5.20283077 4.15126509,5.66471111 4.10031834,6.06795897 C4.08118225,6.22447179 3.93405799,6.33623248 3.77177396,6.31756581 C3.60973846,6.29913846 3.49367929,6.15746325 3.51281538,6.00142906 C3.55556095,5.66207863 3.52101657,5.26361709 3.42409349,4.83811282 C3.32021183,4.38054017 3.14500473,3.89520684 2.91636568,3.41968547" id="Fill-8" fill="#6DD3C6"></path>
                    <g id="Group-12" transform="translate(0.000000, 2.277908)">
                        <mask id="mask-18" fill="white">
                            <use xlink:href="#path-17"></use>
                        </mask>
                        <g id="Clip-11"></g>
                        <path d="M3.37312189,0.804317949 C3.49837633,0.904591453 3.51527574,1.0836 3.41114556,1.20421538 C3.30701538,1.32459145 3.12112189,1.34110427 2.99611598,1.24083077 C2.67552426,0.984523077 2.20457751,0.790437607 1.70231716,0.737548718 C1.27511006,0.692078632 0.829015385,0.751189744 0.44256568,0.964420513 C0.300908876,1.04243761 0.119985799,0.995292308 0.0389680473,0.858882051 C-0.0420497041,0.722232479 0.00715739645,0.548249573 0.148814201,0.470232479 C0.65231716,0.192147009 1.22316923,0.114369231 1.76469586,0.171565812 C2.38276686,0.236899145 2.9687787,0.480762393 3.37312189,0.804317949" id="Fill-10" fill="#6DD3C6" mask="url(#mask-18)"></path>
                    </g>
                    <path d="M3.4643787,3.21145641 C3.51557396,3.36031111 3.43157396,3.52089231 3.27699408,3.56995214 C3.12266272,3.61925128 2.95590533,3.53836239 2.90471006,3.38950769 C2.7707574,3.00133675 2.39673373,2.81467009 2.04830769,2.6409265 C1.42004734,2.32766154 0.851431953,2.04407179 1.1123787,1.02410598 C1.15114793,0.871661538 1.31119527,0.778567521 1.46975148,0.815900855 C1.62781065,0.853473504 1.72498225,1.00759316 1.6859645,1.16003761 C1.53635503,1.74516581 1.90814201,1.93039658 2.31894675,2.1354906 C2.77001183,2.36044786 3.25388166,2.60191795 3.4643787,3.21145641" id="Fill-13" fill="#00A596"></path>
                    <path d="M3.03431361,3.54542222 C2.89389941,3.4654906 2.84717751,3.29102906 2.93018343,3.15557607 C3.01318935,3.02060171 3.19460947,2.97561026 3.33502367,3.05554188 C4.01547337,3.44514872 4.26200592,3.92737094 4.46355621,4.32128547 C4.64174556,4.66996923 4.76873964,4.91790085 5.37761538,4.78579829 C5.53642012,4.75109744 5.69447929,4.84730256 5.73026627,5.00046496 C5.76605325,5.15386667 5.66614793,5.30559316 5.50684615,5.34029402 C4.4441716,5.57123419 4.23193491,5.15625983 3.93395858,4.57304615 C3.76720118,4.24733675 3.5634142,3.8486359 3.03431361,3.54542222" id="Fill-15" fill="#00A596"></path>
                    <g id="Group-19" transform="translate(2.485207, 0.124062)">
                        <mask id="mask-20" fill="white">
                            <use xlink:href="#path-19"></use>
                        </mask>
                        <g id="Clip-18"></g>
                        <path d="M0.929417751,2.99836923 C1.03155976,3.12065983 1.01142959,3.29966838 0.884186982,3.39802735 C0.75744142,3.49638632 0.571547929,3.47700171 0.469157396,3.35447179 C0.100352663,2.9110188 -0.0497538462,2.30842051 0.0270390533,1.71611282 C0.0998556213,1.15276239 0.377453254,0.593480342 0.866293491,0.184488889 C0.989559763,0.0818222222 1.1759503,0.0947452991 1.28256568,0.213446154 C1.38942959,0.332147009 1.37576095,0.511634188 1.25249467,0.614540171 C0.881701775,0.924933333 0.670459172,1.35259145 0.614542012,1.7850359 C0.556636686,2.23183932 0.663500592,2.6781641 0.929417751,2.99836923" id="Fill-17" fill="#6DD3C6" mask="url(#mask-20)"></path>
                    </g>
                    <path d="M3.39958935,3.49425641 C3.28874911,3.60864957 3.10211006,3.61463248 2.98331716,3.50765812 C2.86477278,3.40044444 2.85831124,3.22095726 2.96964852,3.10680342 C3.23979053,2.82847863 3.28750651,2.44054701 3.3317432,2.07822222 C3.4169858,1.37965812 3.49402722,0.751692308 4.60640592,0.600205128 C4.7681929,0.578666667 4.91730533,0.687316239 4.93967219,0.842871795 C4.96203905,0.99842735 4.84896213,1.14225641 4.68767219,1.16379487 C4.0278497,1.25353846 3.97640592,1.67449573 3.91924615,2.14283761 C3.86382604,2.59394872 3.80467811,3.07736752 3.39958935,3.49425641" id="Fill-20" fill="#00A596"></path>
                    <path d="M3.38477751,3.50873504 C3.26548757,3.61499145 3.07884852,3.60805128 2.9682568,3.49317949 C2.85791361,3.37806838 2.86512071,3.1985812 2.98465917,3.09232479 C3.51028047,2.62350427 3.91611479,2.28798291 4.28616213,2.02976068 C4.66813846,1.76364103 5.01805562,1.57386325 5.42364142,1.4022735 C5.57300237,1.33981197 5.74696686,1.40538462 5.81232781,1.54921368 C5.87719172,1.69328205 5.80909704,1.86080342 5.65948757,1.92350427 C5.29639882,2.0771453 4.98077751,2.24849573 4.63309704,2.49092308 C4.27373609,2.74148718 3.8850497,3.06264957 3.38477751,3.50873504" id="Fill-22" fill="#6DD3C6"></path>
                    <path d="M3.02390059,3.53888889 C2.8872142,3.45345299 2.84844497,3.27731624 2.93716686,3.14569231 C3.02588876,3.01430769 3.2088,2.97673504 3.34548639,3.06217094 C3.46651598,3.13779487 3.54579408,3.18805128 3.6215929,3.23639316 C4.46184142,3.77150427 5.22206627,4.25516239 5.82398343,3.61953846 C5.93382959,3.50347009 6.12071716,3.4948547 6.2412497,3.60063248 C6.36203077,3.70641026 6.37097751,3.88637607 6.26113136,4.00244444 C5.31774675,4.99847863 4.35746272,4.38678632 3.29553373,3.71095726 C3.19040947,3.64394872 3.08702485,3.57813675 3.02390059,3.53888889" id="Fill-24" fill="#6DD3C6"></path>
                    <g id="Group-28" transform="translate(2.733728, 2.277908)">
                        <mask id="mask-22" fill="white">
                            <use xlink:href="#path-21"></use>
                        </mask>
                        <g id="Clip-27"></g>
                        <path d="M0.412718343,1.30444103 C0.251179882,1.28409915 0.137357396,1.14122735 0.158481657,0.985911111 C0.179605917,0.830355556 0.32747574,0.720748718 0.489262722,0.741090598 C0.903795266,0.793261538 1.27235148,0.620475214 1.61033964,0.461808547 C2.26767692,0.153329915 2.83828047,-0.114464957 3.57738107,0.707347009 C3.68399645,0.826047863 3.67057633,1.00577436 3.54731006,1.10844103 C3.42404379,1.21086838 3.23765325,1.19818462 3.13103787,1.07948376 C2.68991361,0.589124786 2.30868284,0.767894017 1.86929822,0.973945299 C1.4562568,1.16803077 1.00568876,1.37910769 0.412718343,1.30444103" id="Fill-26" fill="#00A596" mask="url(#mask-22)"></path>
                    </g>
                </g>
                <polygon id="Page-1" fill="#FF4D4E" transform="translate(51.300599, 124.154157) rotate(-23.000000) translate(-51.300599, -124.154157) " points="51.3010336 118.780487 49.9729792 122.894069 45.6505049 122.885383 49.152608 125.419457 47.8084849 129.527827 51.3010336 126.98029 54.7931481 129.527827 53.4485906 125.419457 56.9506937 122.885383 52.6282195 122.894069"></polygon>
            </g>
        </g>
    </g>
</svg>