<?xml version="1.0" encoding="UTF-8"?>
<svg width="164px" height="127px" viewBox="0 0 164 127" version="1.1" xmlns="http://www.w3.org/2000/svg" xmlns:xlink="http://www.w3.org/1999/xlink">
    <!-- Generator: Sketch 39.1 (31720) - http://www.bohemiancoding.com/sketch -->
    <title>Grey balloons</title>
    <desc>Created with Sketch.</desc>
    <defs>
        <polygon id="path-1" points="1.00182566e-20 0.0988034908 1.00182566e-20 38.8094432 28.3894829 38.8094432 28.3894829 0.0988034908 0 0.0988034908"></polygon>
        <polygon id="path-3" points="20.4446004 27.3713846 20.4446004 0.0321237363 3.56337641e-05 0.0321237363 3.56337641e-05 27.3713846 20.4446004 27.3713846"></polygon>
        <polygon id="path-5" points="3.05472282e-13 47.2902285 3.05472282e-13 104.501448 34.9998487 104.501448 34.9998487 0.166037143 3.05472282e-13 0.166037143 3.05472282e-13 47.2902285 -0.000175185578 0.165878737 34.9998387 0.165878737 34.9998387 47.2902285 3.0587574e-13 47.2902285"></polygon>
        <polygon id="path-7" points="-2.9273086e-14 22.866195 -2.9273086e-14 50.3928872 17.2707764 50.3928872 17.2707764 0.0344233102 -2.9273086e-14 0.0344233102 -2.9273086e-14 22.866195 -4.54805515e-05 0.0344123335 17.2707565 0.0344123335 17.2707565 22.866195 -2.95537791e-14 22.866195"></polygon>
    </defs>
    <g id="Page-1" stroke="none" stroke-width="1" fill="none" fill-rule="evenodd">
        <g id="Group-10" transform="translate(-934.000000, -315.000000)">
            <g id="气球们-copy" transform="translate(934.000000, 315.000000)">
                <g id="Page-1" transform="translate(0.696439, 41.223272)">
                    <g id="Group-3" transform="translate(18.422793, 39.672400)" fill="#D8D8D8">
                        <path d="M1.85571011,0.486222775 C1.80281886,0.295423842 1.91305848,0.0974362525 2.10233782,0.0438208538 C2.29161716,-0.00949501754 2.4880279,0.101929163 2.54121629,0.292728096 C7.4238507,17.7381005 4.49195235,27.0234489 2.42295384,33.5759096 C1.02995298,37.9873487 0.0386878652,41.1260959 2.20812031,44.6811863 C2.31093138,44.8501197 2.25863442,45.07177 2.09104643,45.1754064 C1.92345844,45.2793424 1.70387063,45.2263261 1.60076242,45.0576922 C-0.737743715,41.22494 0.294526974,37.9552992 1.74576763,33.3596508 C3.78772623,26.8925555 6.68159043,17.7282161 1.85571011,0.486222775" id="Fill-1"></path>
                    </g>
                    <path d="M20.3611976,38.1792259 C16.4656683,39.1958218 12.1211578,36.7226243 8.4339249,32.8662095 C-0.296696109,23.7357167 -5.97596775,4.98799929 10.7186484,0.631673264 C27.4132645,-3.72465276 31.4710332,15.4456978 28.2324845,27.6996619 C26.8647407,32.8748958 24.2567269,37.16263 20.3611976,38.1792259" id="Fill-4" fill="#EAEAEA"></path>
                    <path d="M17.7205874,32.4943462 C14.6261525,33.301872 11.1751473,31.3369725 8.24562613,28.2737061 C1.31063315,21.0206509 -3.20087113,6.12815021 10.0608655,2.66741102 C23.3226022,-0.793028657 26.5459966,14.4355417 23.9736399,24.1695821 C22.8866951,28.2808948 20.8153195,31.6868205 17.7205874,32.4943462" id="Fill-6" fill="#F4F4F4"></path>
                    <path d="M6.68833555,5.84737326 C7.76428609,6.13192426 6.31274829,8.22142717 5.70152756,10.5712194 C5.09030684,12.9210116 4.98214721,15.3133366 3.90619668,15.0290852 C2.83024614,14.7445342 2.52835005,12.1784832 3.13957078,9.82869102 C3.7507915,7.4785993 5.61238502,5.56312179 6.68833555,5.84737326" id="Fill-8" fill="#FFFFFF"></path>
                    <polygon id="Fill-10" fill="#EAEAEA" points="19.9337591 37.0334738 19.7314055 41.802249 21.2165204 41.4143611 22.4059791 41.1040507"></polygon>
                </g>
                <g id="Page-1" transform="translate(36.035874, 0.000000)">
                    <path d="M13.7191554,41.0643152 C13.664749,40.8747799 13.7729703,40.6762761 13.9604357,40.6215679 C14.1479011,40.5665609 14.3439415,40.6756782 14.3983478,40.8652135 C16.1683287,47.0059775 15.1473223,49.9832361 14.1517451,52.8854578 C13.5872791,54.5311862 13.031388,56.1524005 13.0358233,58.3323552 C13.0411457,60.8821131 14.5033166,63.6823924 15.8986624,66.3544214 C17.0349865,68.5307888 18.1284361,70.6246455 18.4040162,72.5053498 C18.7334112,74.7546613 18.5917772,77.0601758 18.2366575,79.1154677 C17.7298504,82.0496773 16.7795132,84.4930084 16.1449694,85.5309682 C16.0423661,85.6986801 15.8247407,85.7506976 15.6585647,85.6469614 C15.4923888,85.5435242 15.4409393,85.3231969 15.5432469,85.1551861 C16.143491,84.1737281 17.0471097,81.8344322 17.5382454,78.9920007 C17.8818334,77.0018802 18.0196234,74.7740932 17.7026472,72.6093849 C17.4445127,70.8482613 16.379449,68.8085148 15.2721021,66.6880514 C13.8377257,63.9409855 12.33475,61.0620819 12.3288363,58.3323552 C12.3241053,56.0337167 12.8995117,54.3560005 13.4837887,52.6528735 C14.4427008,49.8570785 15.4267463,46.9880404 13.7191554,41.0643152" id="Fill-1" fill="#D8D8D8"></path>
                    <g id="Group-5" transform="translate(0.000000, 0.200298)">
                        <mask id="mask-2" fill="white">
                            <use xlink:href="#path-1"></use>
                        </mask>
                        <g id="Clip-4"></g>
                        <path d="M14.1948858,38.8094432 C10.1904002,38.8094432 6.61732153,35.3239669 4.01912209,30.6683943 C-2.13264065,19.6451534 -2.96559022,0.0988034908 14.1948858,0.0988034908 C31.3553617,0.0988034908 30.5218208,19.6451534 24.3703538,30.6683943 C21.7721543,35.3239669 18.1990757,38.8094432 14.1948858,38.8094432" id="Fill-3" fill="#EAEAEA" mask="url(#mask-2)"></path>
                    </g>
                    <path d="M13.0573197,32.8510396 C9.87661739,32.8510396 7.03802463,30.0824492 4.97413115,26.3841195 C0.0873162961,17.6272303 -0.574430641,2.10028419 13.0573197,2.10028419 C26.6893658,2.10028419 26.0270275,17.6272303 21.1405083,26.3841195 C19.0766148,30.0821503 16.2383177,32.8510396 13.0573197,32.8510396" id="Fill-6" fill="#F3F3F3"></path>
                    <path d="M9.02193485,4.32245093 C9.98823914,4.86833648 8.0727804,6.52123966 6.90274795,8.63781671 C5.7324198,10.7540948 5.03637321,13.0383837 4.07006892,12.4924981 C3.10406032,11.9463136 3.44823969,9.39087569 4.61827215,7.27429864 C5.7883046,5.15772159 8.05592625,3.77626643 9.02193485,4.32245093" id="Fill-8" fill="#FFFFFF"></path>
                    <polygon id="Fill-10" fill="#EAEAEA" points="14.0665281 37.7949809 12.6918805 42.3513017 14.2185111 42.3513017 15.4411758 42.3513017"></polygon>
                </g>
                <g id="Page-1" transform="translate(64.717489, 46.932840)">
                    <path d="M11.5969706,29.1706985 C11.6177749,29.0322705 11.7474828,28.936956 11.8863191,28.9576674 C12.02558,28.9783787 12.1213218,29.1075077 12.1003053,29.2459356 C11.7351701,31.6349272 12.2837221,33.2457635 12.9029659,35.06477 C13.3787032,36.4613072 13.8949874,37.9776744 14.0898677,40.0591657 C14.2660667,41.940095 13.4266802,45.213546 12.6405781,48.2800948 C12.0018037,50.770741 11.3986937,53.123382 11.4156768,54.4121356 C11.4358441,55.9164564 11.751304,57.1380037 12.1822484,58.1228498 C12.6125561,59.1066393 13.1598343,59.8562635 13.6438508,60.4165269 C13.7349223,60.5226197 13.7223973,60.6823931 13.6158288,60.7730581 C13.5092602,60.8639344 13.3487706,60.8514654 13.2574868,60.7453725 C12.748208,60.1557329 12.171634,59.3651085 11.7162765,58.3251026 C11.2619803,57.2863646 10.9293251,55.9995131 10.9083086,54.4180531 C10.8902642,53.0568098 11.5005919,50.6758492 12.1470086,48.1551926 C12.9233456,45.1273191 13.7519053,41.8948681 13.5844102,40.1043925 C13.3956862,38.0877827 12.8885303,36.5986785 12.4214969,35.2270794 C11.780812,33.3457275 11.2133664,31.6793087 11.5969706,29.1706985" id="Fill-1" fill="#D8D8D8"></path>
                    <g id="Group-5" transform="translate(0.000000, 0.179217)">
                        <mask id="mask-4" fill="white">
                            <use xlink:href="#path-3"></use>
                        </mask>
                        <g id="Clip-4"></g>
                        <path d="M11.6747105,27.3521568 C8.81094644,27.6030179 6.0384662,25.3718976 3.8909616,22.2558951 C-1.19397095,14.8780028 -3.0049992,1.16518286 9.26800233,0.0911511018 C21.5412161,-0.982669321 22.1602477,12.8345528 18.445846,20.9823581 C16.8774628,24.4236133 14.5384745,27.1015072 11.6747105,27.3521568" id="Fill-3" fill="#EAEAEA" mask="url(#mask-4)"></path>
                    </g>
                    <path d="M10.4783194,23.2655526 C8.20322981,23.4644239 6.00116721,21.6925462 4.29522149,19.2171165 C0.256019232,13.3562253 -1.18286829,2.46310862 8.56645444,1.61013888 C18.3159895,0.757169145 18.8076483,11.7329199 15.8574831,18.2054301 C14.611353,20.9391178 12.7534091,23.06647 10.4783194,23.2655526" id="Fill-6" fill="#F3F3F3"></path>
                    <path d="M5.81855714,3.42751813 C6.54352039,3.75171426 5.2763738,5.03539567 4.57115333,6.59910307 C3.86593286,8.16281047 3.50992601,9.81506949 2.78496277,9.49087336 C2.06021181,9.16688857 2.14724985,7.3457686 2.85247032,5.7820612 C3.55790308,4.2183538 5.0935939,3.10353334 5.81855714,3.42751813" id="Fill-8" fill="#FFFFFF"></path>
                    <polygon id="Fill-10" fill="#EAEAEA" points="11.5074064 26.6840465 10.8074931 29.9788429 11.8995022 29.883317 12.7739161 29.8068118"></polygon>
                </g>
                <g id="Page-1" transform="translate(107.038524, 72.512403) rotate(8.000000) translate(-107.038524, -72.512403) translate(89.538524, 19.512403)">
                    <g id="Group-3" transform="translate(18.560030, 49.717929)" fill="#D8D8D8">
                        <path d="M0.146842587,0.837249577 C0.0656879479,0.611133204 0.183598724,0.361713373 0.409594378,0.2808795 C0.635590033,0.200045628 0.884876705,0.317655271 0.965667422,0.543771644 C2.46320706,4.71873191 4.86800462,16.0092576 5.08854145,28.9073579 C5.23229069,37.3093471 4.45131376,46.4020654 1.8936689,54.6737009 C1.823068,54.9038225 1.57960409,55.0327198 1.34960529,54.9624453 C1.11960649,54.8918067 0.99077805,54.6478486 1.06137895,54.417727 C3.58918219,46.2422182 4.36069715,37.2419856 4.21840359,28.9208302 C3.99968638,16.1279596 1.62509436,4.95904883 0.146842587,0.837249577" id="Fill-1"></path>
                    </g>
                    <g id="Group-6" transform="translate(-0.000000, 0.198079)">
                        <mask id="mask-6" fill="white">
                            <use xlink:href="#path-5"></use>
                        </mask>
                        <g id="Clip-5"></g>
                    </g>
                    <path d="M19.3495951,47.4701285 C14.4315512,47.790551 9.76716098,43.8402506 6.20800237,38.3897901 C-2.21934283,25.4840434 -4.7886332,1.79425708 16.2871902,0.420809488 C37.3637414,-0.952273992 37.8859697,22.8711431 31.2029034,36.7610968 C28.3803232,42.6273784 24.267639,47.1497059 19.3495951,47.4701285" id="Fill-4" fill="#EAEAEA"></path>
                    <path d="M7.0263905,32.8624646 C0.331678646,22.6107634 -1.70883284,3.79212814 15.0330417,2.70123498 C31.7752801,1.61034182 32.1905153,20.534935 26.881619,31.5687585 C24.6394947,36.2290862 21.3722016,39.8210958 17.4654973,40.0756133 C13.559157,40.3301308 9.85333775,37.1925385 7.0263905,32.8624646 Z" id="Fill-7" fill="#F3F3F3"></path>
                    <path d="M10.2526331,5.72493157 C11.4823261,6.3111592 9.26058135,8.47328322 7.9912209,11.1393445 C6.7211326,13.8050417 6.04714878,16.6375043 4.81745584,16.0509126 C3.5877629,15.4646849 3.80829972,12.331098 5.07766017,9.66503667 C6.34738455,6.99933946 9.02294019,5.13870393 10.2526331,5.72493157" id="Fill-9" fill="#FFFFFF"></path>
                    <polygon id="Fill-11" fill="#EAEAEA" points="19.0958686 46.004086 17.7682806 51.6518977 19.6428435 51.5295545 21.1447503 51.4316072"></polygon>
                </g>
                <g id="Page-1" transform="translate(145.982063, 54.266096)">
                    <path d="M5.27642326,24.141032 C5.31072927,24.0288901 5.42920879,23.9660764 5.54096857,24.0003223 C5.65255151,24.0347456 5.71515114,24.1536302 5.68102196,24.2655947 C5.02903097,26.3863545 5.85060682,29.0303841 6.79649775,32.074008 C8.38942829,37.199355 10.3280714,43.4374266 6.33513498,50.42873 C6.27713307,50.5307578 6.14751294,50.5660683 6.0460096,50.5078681 C5.94432942,50.4496679 5.90913924,50.3194271 5.96714115,50.2175767 C9.86865386,43.3866789 7.96007267,37.2456668 6.39207588,32.2003451 C5.42531841,29.0900039 4.58552855,26.3879515 5.27642326,24.141032" id="Fill-1" fill="#D8D8D8"></path>
                    <g id="Group-5" transform="translate(0.000000, 0.143016)">
                        <mask id="mask-8" fill="white">
                            <use xlink:href="#path-7"></use>
                        </mask>
                        <g id="Clip-4"></g>
                    </g>
                    <path d="M5.81157931,22.9181882 C3.46833746,22.4222442 1.8027277,19.9558317 0.850470708,16.9301292 C-1.40382309,9.76635446 0.494324826,-1.68862306 10.5362594,0.436040426 C20.578194,2.56088135 17.7048005,13.8096739 12.7597839,19.449951 C10.6711846,21.8320796 8.15482116,23.4139549 5.81157931,22.9181882" id="Fill-3" fill="#EAEAEA"></path>
                    <path d="M1.95680412,14.4437371 C0.165995104,8.7532445 1.67386796,-0.346397867 9.65089912,1.34140897 C17.6279303,3.02939325 15.3453429,11.9650813 11.4171281,16.4456123 C9.75788436,18.3378297 7.75911727,19.5942805 5.89775106,19.2005417 C4.03638484,18.8066255 2.71312782,16.8473358 1.95680412,14.4437371 Z" id="Fill-6" fill="#F3F3F3"></path>
                    <path d="M7.01817822,2.13236437 C7.51685319,2.56904358 6.19430351,3.2919331 5.25124195,4.37608993 C4.30818038,5.4604242 3.62206021,6.70090545 3.12338524,6.26422624 C2.62453344,5.82736959 3.13788572,4.38584912 4.08094728,3.30151484 C5.02400885,2.21718057 6.51950325,1.69568516 7.01817822,2.13236437" id="Fill-8" fill="#FFFFFF"></path>
                    <polygon id="Fill-10" fill="#EAEAEA" points="5.88480673 22.1968247 4.52441434 24.6728189 5.4176084 24.8617922 6.1330832 25.0131483"></polygon>
                </g>
                <path d="M15.544125,53.5704585 C14.406375,53.5704585 13.514625,53.8924127 12.868875,54.5516523 C12.223125,55.1955608 11.90025,56.0694365 11.90025,57.1886108 L13.514625,57.1886108 C13.514625,56.51404 13.653,55.9927808 13.92975,55.6248331 C14.23725,55.1802296 14.744625,54.9655935 15.4365,54.9655935 C15.99,54.9655935 16.435875,55.118905 16.743375,55.4255281 C17.0355,55.7321512 17.18925,56.1460923 17.18925,56.6826827 C17.18925,57.0812927 17.0355,57.4492404 16.75875,57.8018569 L16.497375,58.0931488 C15.544125,58.9363623 14.959875,59.5649396 14.76,59.9942119 C14.54475,60.3928219 14.4525,60.8834188 14.4525,61.4506715 L14.4525,61.7113012 L16.097625,61.7113012 L16.097625,61.4506715 C16.097625,61.0827238 16.1745,60.7454385 16.343625,60.4388154 C16.482,60.1628546 16.69725,59.8868938 16.989375,59.6415954 C17.712,59.0130181 18.1425,58.6144081 18.280875,58.4457654 C18.66525,57.9551685 18.865125,57.3265912 18.865125,56.5753646 C18.865125,55.6554954 18.557625,54.9196 17.942625,54.3830096 C17.327625,53.8310881 16.528125,53.5704585 15.544125,53.5704585 L15.544125,53.5704585 Z M15.267375,62.5391835 C14.959875,62.5391835 14.683125,62.6311704 14.467875,62.8458065 C14.252625,63.0451115 14.145,63.3057412 14.145,63.6276954 C14.145,63.9343185 14.252625,64.1949481 14.467875,64.4095842 C14.683125,64.6242204 14.959875,64.7315385 15.267375,64.7315385 C15.574875,64.7315385 15.851625,64.6242204 16.066875,64.4249154 C16.282125,64.2102792 16.405125,63.9496496 16.405125,63.6276954 C16.405125,63.3057412 16.2975,63.0451115 16.08225,62.8458065 C15.867,62.6311704 15.59025,62.5391835 15.267375,62.5391835 L15.267375,62.5391835 Z" id="？" fill="#CFCFCF"></path>
                <path d="M48.856625,10.98392 C47.718875,10.98392 46.827125,11.3058742 46.181375,11.9651138 C45.535625,12.6090223 45.21275,13.4828981 45.21275,14.6020723 L46.827125,14.6020723 C46.827125,13.9275015 46.9655,13.4062423 47.24225,13.0382946 C47.54975,12.5936912 48.057125,12.379055 48.749,12.379055 C49.3025,12.379055 49.748375,12.5323665 50.055875,12.8389896 C50.348,13.1456127 50.50175,13.5595538 50.50175,14.0961442 C50.50175,14.4947542 50.348,14.8627019 50.07125,15.2153185 L49.809875,15.5066104 C48.856625,16.3498238 48.272375,16.9784012 48.0725,17.4076735 C47.85725,17.8062835 47.765,18.2968804 47.765,18.8641331 L47.765,19.1247627 L49.410125,19.1247627 L49.410125,18.8641331 C49.410125,18.4961854 49.487,18.1589 49.656125,17.8522769 C49.7945,17.5763162 50.00975,17.3003554 50.301875,17.0550569 C51.0245,16.4264796 51.455,16.0278696 51.593375,15.8592269 C51.97775,15.36863 52.177625,14.7400527 52.177625,13.9888262 C52.177625,13.0689569 51.870125,12.3330615 51.255125,11.7964712 C50.640125,11.2445496 49.840625,10.98392 48.856625,10.98392 L48.856625,10.98392 Z M48.579875,19.952645 C48.272375,19.952645 47.995625,20.0446319 47.780375,20.2592681 C47.565125,20.4585731 47.4575,20.7192027 47.4575,21.0411569 C47.4575,21.34778 47.565125,21.6084096 47.780375,21.8230458 C47.995625,22.0376819 48.272375,22.145 48.579875,22.145 C48.887375,22.145 49.164125,22.0376819 49.379375,21.8383769 C49.594625,21.6237408 49.717625,21.3631112 49.717625,21.0411569 C49.717625,20.7192027 49.61,20.4585731 49.39475,20.2592681 C49.1795,20.0446319 48.90275,19.952645 48.579875,19.952645 L48.579875,19.952645 Z" id="？-copy" fill="#CFCFCF"></path>
                <path d="M109.502458,35.6841123 C108.364708,35.6841123 107.472958,36.0060665 106.827208,36.6653062 C106.181458,37.3092146 105.858583,38.1830904 105.858583,39.3022646 L107.472958,39.3022646 C107.472958,38.6276938 107.611333,38.1064346 107.888083,37.7384869 C108.195583,37.2938835 108.702958,37.0792473 109.394833,37.0792473 C109.948333,37.0792473 110.394208,37.2325588 110.701708,37.5391819 C110.993833,37.845805 111.147583,38.2597462 111.147583,38.7963365 C111.147583,39.1949465 110.993833,39.5628942 110.717083,39.9155108 L110.455708,40.2068027 C109.502458,41.0500162 108.918208,41.6785935 108.718333,42.1078658 C108.503083,42.5064758 108.410833,42.9970727 108.410833,43.5643254 L108.410833,43.824955 L110.055958,43.824955 L110.055958,43.5643254 C110.055958,43.1963777 110.132833,42.8590923 110.301958,42.5524692 C110.440333,42.2765085 110.655583,42.0005477 110.947708,41.7552492 C111.670333,41.1266719 112.100833,40.7280619 112.239208,40.5594192 C112.623583,40.0688223 112.823458,39.440245 112.823458,38.6890185 C112.823458,37.7691492 112.515958,37.0332538 111.900958,36.4966635 C111.285958,35.9447419 110.486458,35.6841123 109.502458,35.6841123 L109.502458,35.6841123 Z M109.225708,44.6528373 C108.918208,44.6528373 108.641458,44.7448242 108.426208,44.9594604 C108.210958,45.1587654 108.103333,45.419395 108.103333,45.7413492 C108.103333,46.0479723 108.210958,46.3086019 108.426208,46.5232381 C108.641458,46.7378742 108.918208,46.8451923 109.225708,46.8451923 C109.533208,46.8451923 109.809958,46.7378742 110.025208,46.5385692 C110.240458,46.3239331 110.363458,46.0633035 110.363458,45.7413492 C110.363458,45.419395 110.255833,45.1587654 110.040583,44.9594604 C109.825333,44.7448242 109.548583,44.6528373 109.225708,44.6528373 L109.225708,44.6528373 Z" id="？-copy-2" fill="#CFCFCF"></path>
                <path d="M74.0169583,56.0506985 C73.1320417,56.0506985 72.4384583,56.3011073 71.9362083,56.8138492 C71.4339583,57.3146669 71.1828333,57.9943481 71.1828333,58.8648169 L72.4384583,58.8648169 C72.4384583,58.3401508 72.5460833,57.9347269 72.7613333,57.6485454 C73.0005,57.3027427 73.395125,57.1358035 73.93325,57.1358035 C74.36375,57.1358035 74.7105417,57.2550458 74.9497083,57.4935304 C75.1769167,57.732015 75.2965,58.0539692 75.2965,58.4713173 C75.2965,58.7813473 75.1769167,59.0675288 74.9616667,59.3417862 L74.758375,59.5683465 C74.0169583,60.2241792 73.5625417,60.7130727 73.4070833,61.0469512 C73.2396667,61.3569812 73.1679167,61.7385565 73.1679167,62.1797531 L73.1679167,62.382465 L74.4474583,62.382465 L74.4474583,62.1797531 C74.4474583,61.8935715 74.50725,61.6312385 74.6387917,61.3927538 C74.7464167,61.1781177 74.9138333,60.9634815 75.1410417,60.7726938 C75.7030833,60.2838004 76.0379167,59.9737704 76.1455417,59.8426038 C76.4445,59.4610285 76.5999583,58.972135 76.5999583,58.3878477 C76.5999583,57.6723938 76.3607917,57.1000308 75.8824583,56.6826827 C75.404125,56.2534104 74.7822917,56.0506985 74.0169583,56.0506985 L74.0169583,56.0506985 Z M73.8017083,63.0263735 C73.5625417,63.0263735 73.3472917,63.0979188 73.179875,63.2648581 C73.0124583,63.4198731 72.92875,63.622585 72.92875,63.8729938 C72.92875,64.1114785 73.0124583,64.3141904 73.179875,64.4811296 C73.3472917,64.6480688 73.5625417,64.7315385 73.8017083,64.7315385 C74.040875,64.7315385 74.256125,64.6480688 74.4235417,64.4930538 C74.5909583,64.3261146 74.686625,64.1234027 74.686625,63.8729938 C74.686625,63.622585 74.6029167,63.4198731 74.4355,63.2648581 C74.2680833,63.0979188 74.0528333,63.0263735 73.8017083,63.0263735 L73.8017083,63.0263735 Z" id="？-copy-3" fill="#CFCFCF"></path>
                <path d="M153.801104,60.3093523 C152.916188,60.3093523 152.222604,60.5597612 151.720354,61.0725031 C151.218104,61.5733208 150.966979,62.2530019 150.966979,63.1234708 L152.222604,63.1234708 C152.222604,62.5988046 152.330229,62.1933808 152.545479,61.9071992 C152.784646,61.5613965 153.179271,61.3944573 153.717396,61.3944573 C154.147896,61.3944573 154.494688,61.5136996 154.733854,61.7521842 C154.961063,61.9906688 155.080646,62.3126231 155.080646,62.7299712 C155.080646,63.0400012 154.961063,63.3261827 154.745813,63.60044 L154.542521,63.8270004 C153.801104,64.4828331 153.346688,64.9717265 153.191229,65.305605 C153.023813,65.615635 152.952063,65.9972104 152.952063,66.4384069 L152.952063,66.6411188 L154.231604,66.6411188 L154.231604,66.4384069 C154.231604,66.1522254 154.291396,65.8898923 154.422938,65.6514077 C154.530563,65.4367715 154.697979,65.2221354 154.925188,65.0313477 C155.487229,64.5424542 155.822063,64.2324242 155.929688,64.1012577 C156.228646,63.7196823 156.384104,63.2307888 156.384104,62.6465015 C156.384104,61.9310477 156.144938,61.3586846 155.666604,60.9413365 C155.188271,60.5120642 154.566438,60.3093523 153.801104,60.3093523 L153.801104,60.3093523 Z M153.585854,67.2850273 C153.346688,67.2850273 153.131438,67.3565727 152.964021,67.5235119 C152.796604,67.6785269 152.712896,67.8812388 152.712896,68.1316477 C152.712896,68.3701323 152.796604,68.5728442 152.964021,68.7397835 C153.131438,68.9067227 153.346688,68.9901923 153.585854,68.9901923 C153.825021,68.9901923 154.040271,68.9067227 154.207688,68.7517077 C154.375104,68.5847685 154.470771,68.3820565 154.470771,68.1316477 C154.470771,67.8812388 154.387063,67.6785269 154.219646,67.5235119 C154.052229,67.3565727 153.836979,67.2850273 153.585854,67.2850273 L153.585854,67.2850273 Z" id="？-copy-4" fill="#CFCFCF"></path>
            </g>
        </g>
    </g>
</svg>