<?xml version="1.0" standalone="no"?><!DOCTYPE svg PUBLIC "-//W3C//DTD SVG 1.1//EN" "http://www.w3.org/Graphics/SVG/1.1/DTD/svg11.dtd"><svg t="1500558455616" class="icon" style="" viewBox="0 0 1024 1024" version="1.1" xmlns="http://www.w3.org/2000/svg" p-id="20887" xmlns:xlink="http://www.w3.org/1999/xlink" width="12" height="12"><defs><style type="text/css"></style></defs><path d="M15.515152 15.515152 15.515152 15.515152 15.515152 15.515152Z" p-id="20888" fill="#bfbfbf"></path><path d="M505.88703 55.296c-252.214303 3.382303-453.973333 210.602667-450.622061 462.87903 3.382303 252.121212 210.602667 453.942303 462.81697 450.56s453.973333-210.602667 450.622061-462.87903c-3.320242-252.152242-210.602667-453.942303-462.81697-450.56zM556.528485 207.499636c46.421333 0 60.136727 26.903273 60.136727 57.747394 0 38.477576-30.844121 74.069333-83.409455 74.069333-44.00097 0-64.884364-22.155636-63.643152-58.678303 0-30.844121 25.817212-73.138424 86.946909-73.138424zM437.465212 797.478788c-31.71297 0-54.954667-19.269818-32.768-103.951515l36.398545-150.124606c6.299152-24.079515 7.354182-33.698909 0-33.698909-9.495273 0-50.703515 16.632242-75.062303 33.016242l-15.825455-25.972364c77.203394-64.449939 165.981091-102.275879 203.993212-102.275879 31.71297 0 36.988121 37.546667 21.162667 95.26303l-41.704727 157.882182c-7.354182 27.896242-4.158061 37.546667 3.165091 37.546667 9.495273 0 40.711758-11.512242 71.400727-35.653818l17.935515 24.079515c-75.031273 75.031273-156.889212 103.920485-188.664242 103.920485z" p-id="20889" fill="#bfbfbf"></path></svg>