<?xml version="1.0" standalone="no"?><!DOCTYPE svg PUBLIC "-//W3C//DTD SVG 1.1//EN" "http://www.w3.org/Graphics/SVG/1.1/DTD/svg11.dtd"><svg t="1523283155227" class="icon" style="" viewBox="0 0 1024 1024" version="1.1" xmlns="http://www.w3.org/2000/svg" p-id="4332" xmlns:xlink="http://www.w3.org/1999/xlink" width="30" height="30"><defs><style type="text/css"></style></defs><path d="M896 819.2l-819.2 0c-42.3424 0-76.8-34.4576-76.8-76.8l0-409.6c0-42.3424 34.4576-76.8 76.8-76.8l819.2 0c42.3424 0 76.8 34.4576 76.8 76.8l0 409.6c0 42.3424-34.4576 76.8-76.8 76.8zM76.8 307.2c-14.1312 0-25.6 11.4688-25.6 25.6l0 409.6c0 14.1312 11.4688 25.6 25.6 25.6l819.2 0c14.1312 0 25.6-11.4688 25.6-25.6l0-409.6c0-14.1312-11.4688-25.6-25.6-25.6l-819.2 0z" p-id="4333" fill="#fefefe"></path><path d="M179.2 409.6l-51.2 0c-14.1312 0-25.6-11.4688-25.6-25.6s11.4688-25.6 25.6-25.6l51.2 0c14.1312 0 25.6 11.4688 25.6 25.6s-11.4688 25.6-25.6 25.6z" p-id="4334" fill="#fefefe"></path><path d="M844.8 409.6l-51.2 0c-14.1312 0-25.6-11.4688-25.6-25.6s11.4688-25.6 25.6-25.6l51.2 0c14.1312 0 25.6 11.4688 25.6 25.6s-11.4688 25.6-25.6 25.6z" p-id="4335" fill="#fefefe"></path><path d="M230.4 512l-102.4 0c-14.1312 0-25.6-11.4688-25.6-25.6s11.4688-25.6 25.6-25.6l102.4 0c14.1312 0 25.6 11.4688 25.6 25.6s-11.4688 25.6-25.6 25.6z" p-id="4336" fill="#fefefe"></path><path d="M179.2 716.8l-51.2 0c-14.1312 0-25.6-11.4688-25.6-25.6s11.4688-25.6 25.6-25.6l51.2 0c14.1312 0 25.6 11.4688 25.6 25.6s-11.4688 25.6-25.6 25.6z" p-id="4337" fill="#fefefe"></path><path d="M588.8 716.8l-307.2 0c-14.1312 0-25.6-11.4688-25.6-25.6s11.4688-25.6 25.6-25.6l307.2 0c14.1312 0 25.6 11.4688 25.6 25.6s-11.4688 25.6-25.6 25.6z" p-id="4338" fill="#fefefe"></path><path d="M742.4 716.8l-51.2 0c-14.1312 0-25.6-11.4688-25.6-25.6s11.4688-25.6 25.6-25.6l51.2 0c14.1312 0 25.6 11.4688 25.6 25.6s-11.4688 25.6-25.6 25.6z" p-id="4339" fill="#fefefe"></path><path d="M844.8 614.4l-153.6 0c-14.1312 0-25.6-11.4688-25.6-25.6s11.4688-25.6 25.6-25.6l128 0 0-76.8c0-14.1312 11.4688-25.6 25.6-25.6s25.6 11.4688 25.6 25.6l0 102.4c0 14.1312-11.4688 25.6-25.6 25.6z" p-id="4340" fill="#fefefe"></path><path d="M281.6 614.4l-153.6 0c-14.1312 0-25.6-11.4688-25.6-25.6s11.4688-25.6 25.6-25.6l153.6 0c14.1312 0 25.6 11.4688 25.6 25.6s-11.4688 25.6-25.6 25.6z" p-id="4341" fill="#fefefe"></path><path d="M307.2 384c0 14.1312-11.4688 25.6-25.6 25.6s-25.6-11.4688-25.6-25.6c0-14.1312 11.4688-25.6 25.6-25.6s25.6 11.4688 25.6 25.6z" p-id="4342" fill="#fefefe"></path><path d="M409.6 384c0 14.1312-11.4688 25.6-25.6 25.6s-25.6-11.4688-25.6-25.6c0-14.1312 11.4688-25.6 25.6-25.6s25.6 11.4688 25.6 25.6z" p-id="4343" fill="#fefefe"></path><path d="M512 384c0 14.1312-11.4688 25.6-25.6 25.6s-25.6-11.4688-25.6-25.6c0-14.1312 11.4688-25.6 25.6-25.6s25.6 11.4688 25.6 25.6z" p-id="4344" fill="#fefefe"></path><path d="M614.4 384c0 14.1312-11.4688 25.6-25.6 25.6s-25.6-11.4688-25.6-25.6c0-14.1312 11.4688-25.6 25.6-25.6s25.6 11.4688 25.6 25.6z" p-id="4345" fill="#fefefe"></path><path d="M716.8 384c0 14.1312-11.4688 25.6-25.6 25.6s-25.6-11.4688-25.6-25.6c0-14.1312 11.4688-25.6 25.6-25.6s25.6 11.4688 25.6 25.6z" p-id="4346" fill="#fefefe"></path><path d="M358.4 486.4c0 14.1312-11.4688 25.6-25.6 25.6s-25.6-11.4688-25.6-25.6c0-14.1312 11.4688-25.6 25.6-25.6s25.6 11.4688 25.6 25.6z" p-id="4347" fill="#fefefe"></path><path d="M460.8 486.4c0 14.1312-11.4688 25.6-25.6 25.6s-25.6-11.4688-25.6-25.6c0-14.1312 11.4688-25.6 25.6-25.6s25.6 11.4688 25.6 25.6z" p-id="4348" fill="#fefefe"></path><path d="M563.2 486.4c0 14.1312-11.4688 25.6-25.6 25.6s-25.6-11.4688-25.6-25.6c0-14.1312 11.4688-25.6 25.6-25.6s25.6 11.4688 25.6 25.6z" p-id="4349" fill="#fefefe"></path><path d="M665.6 486.4c0 14.1312-11.4688 25.6-25.6 25.6s-25.6-11.4688-25.6-25.6c0-14.1312 11.4688-25.6 25.6-25.6s25.6 11.4688 25.6 25.6z" p-id="4350" fill="#fefefe"></path><path d="M768 486.4c0 14.1312-11.4688 25.6-25.6 25.6s-25.6-11.4688-25.6-25.6c0-14.1312 11.4688-25.6 25.6-25.6s25.6 11.4688 25.6 25.6z" p-id="4351" fill="#fefefe"></path><path d="M409.6 588.8c0 14.1312-11.4688 25.6-25.6 25.6s-25.6-11.4688-25.6-25.6c0-14.1312 11.4688-25.6 25.6-25.6s25.6 11.4688 25.6 25.6z" p-id="4352" fill="#fefefe"></path><path d="M512 588.8c0 14.1312-11.4688 25.6-25.6 25.6s-25.6-11.4688-25.6-25.6c0-14.1312 11.4688-25.6 25.6-25.6s25.6 11.4688 25.6 25.6z" p-id="4353" fill="#fefefe"></path><path d="M614.4 588.8c0 14.1312-11.4688 25.6-25.6 25.6s-25.6-11.4688-25.6-25.6c0-14.1312 11.4688-25.6 25.6-25.6s25.6 11.4688 25.6 25.6z" p-id="4354" fill="#fefefe"></path></svg>