<?xml version="1.0" standalone="no"?><!DOCTYPE svg PUBLIC "-//W3C//DTD SVG 1.1//EN" "http://www.w3.org/Graphics/SVG/1.1/DTD/svg11.dtd"><svg t="1523696938749" class="icon" style="" viewBox="0 0 1024 1024" version="1.1" xmlns="http://www.w3.org/2000/svg" p-id="5500" xmlns:xlink="http://www.w3.org/1999/xlink" width="36" height="36"><defs><style type="text/css"></style></defs><path d="M451.86048 13.59872C283.136 34.10944 137.02144 138.0352 61.8496 290.97984-59.27936 537.94816 39.936 834.88768 285.02016 959.31392c143.27808 72.58112 310.59968 72.81664 453.64224 0.23552 198.43072-100.864 307.06688-320.26624 266.77248-538.48064-32.768-178.40128-162.37568-327.81312-333.4656-384.60416-71.63904-23.808-147.28192-31.58016-220.1088-22.86592z m187.35104 260.88448c55.84896 17.2032 113.12128 84.8384 113.12128 133.61152 0 14.61248-8.2432 30.40256-18.85184 36.05504-6.83008 3.76832-11.55072 4.47488-29.46048 3.5328l-21.20704-1.1776-31.10912 30.63808-31.10912 30.8736 9.19552 17.90976c12.96384 25.91744 18.85184 47.13472 18.85184 67.6352 0 26.39872-7.54688 41.00096-26.39872 50.66752-58.20416 29.696-184.27904-51.6096-231.64928-149.64736-26.63424-55.1424-23.32672-98.03776 8.94976-115.24096 8.01792-4.23936 13.6704-5.18144 29.93152-5.18144 22.85568 0.23552 42.65984 5.888 69.04832 19.5584l16.0256 8.25344 31.81568-31.58016c24.97536-24.97536 31.58016-32.52224 30.40256-36.29056-8.94976-31.10912 1.41312-56.55552 25.69216-62.68928 8.2432-2.11968 24.49408-0.70656 36.75136 3.072zM423.58784 598.03648c7.77216 8.01792 19.5584 19.08736 26.39872 24.73984l12.25728 10.60864-93.55264 57.96864c-51.37408 31.81568-94.03392 57.73312-94.49472 57.27232-0.70656-0.47104 108.16512-177.44896 113.82784-184.5248 1.88416-2.3552 4.23936-0.70656 11.78624 8.2432 5.16096 6.36928 15.75936 17.92 23.77728 25.69216z" p-id="5501" fill="#dd4814"></path></svg>