<?xml version="1.0" encoding="UTF-8"?>
<svg width="650px" height="650px" viewBox="0 0 650 650" version="1.1" xmlns="http://www.w3.org/2000/svg" xmlns:xlink="http://www.w3.org/1999/xlink">
    <!-- Generator: Sketch 43 (38999) - http://www.bohemiancoding.com/sketch -->
    <title>Pin</title>
    <desc>Created with Sketch.</desc>
    <defs></defs>
    <g id="Page-1" stroke="none" stroke-width="1" fill="none" fill-rule="evenodd">
        <g id="Pin">
            <circle id="Oval" fill="#DD4010" cx="325" cy="325" r="325"></circle>
            <g id="Group-2" transform="translate(324.528181, 325.432494) rotate(39.000000) translate(-324.528181, -325.432494) translate(160.028181, 93.932494)" fill="#FFFFFF">
                <path d="M244,151.340581 L244,101.247781 C270.315686,90.7013548 287,75.0152396 287,57.5 C287,25.7436269 232.154882,0 164.5,0 C96.8451181,0 42,25.7436269 42,57.5 C42,75.0152396 58.6843138,90.7013548 85,101.247781 L85,151.340581 C34.3182576,160.030999 0,176.772981 0,196 C0,224.166522 73.6491587,247 164.5,247 C255.350841,247 329,224.166522 329,196 C329,176.772981 294.681742,160.030999 244.000032,151.340587 Z" id="Combined-Shape"></path>
                <polygon id="Triangle" transform="translate(164.500000, 370.500000) rotate(180.000000) translate(-164.500000, -370.500000) " points="164.5 278 211 463 118 463"></polygon>
            </g>
        </g>
    </g>
</svg>