<?xml version="1.0" standalone="no"?><!DOCTYPE svg PUBLIC "-//W3C//DTD SVG 1.1//EN" "http://www.w3.org/Graphics/SVG/1.1/DTD/svg11.dtd"><svg t="1501314750072" class="icon" style="" viewBox="0 0 1024 1024" version="1.1" xmlns="http://www.w3.org/2000/svg" p-id="10420" xmlns:xlink="http://www.w3.org/1999/xlink" width="14" height="14"><defs><style type="text/css"></style></defs><path d="M278.983224 177.503894 613.339649 511.862365l-338.72697 338.72697 0.017396 0.019443c-11.070138 11.47639-17.891503 27.074662-17.891503 44.285667 0 35.247817 28.572784 63.815485 63.813438 63.815485 17.208958 0 32.814393-6.822389 44.28976-17.89355l0.019443 0.021489 382.893933-382.895979-0.019443-0.017396c12.031023-11.606351 19.527772-27.885122 19.527772-45.926028 0-0.042979-0.004093-0.093121-0.004093-0.1361 0-0.051165 0.004093-0.100284 0.004093-0.144286 0-18.03886-7.495725-34.317631-19.527772-45.923981l0.019443-0.017396L364.86019 82.880722l-0.163729 0.167822c-11.463087-10.995436-27.009171-17.75745-44.145474-17.75745-35.240654 0-63.813438 28.572784-63.813438 63.813438C256.737549 148.461412 265.371192 165.800329 278.983224 177.503894z" p-id="10421" fill="#515151"></path></svg>