<?xml version="1.0" standalone="no"?><!DOCTYPE svg PUBLIC "-//W3C//DTD SVG 1.1//EN" "http://www.w3.org/Graphics/SVG/1.1/DTD/svg11.dtd"><svg t="1508341381028" class="icon" style="" viewBox="0 0 1024 1024" version="1.1" xmlns="http://www.w3.org/2000/svg" p-id="9027" xmlns:xlink="http://www.w3.org/1999/xlink" width="42" height="42"><defs><style type="text/css"></style></defs><path d="M1001.6 560c-6.4 72-30.4 142.4-67.2 204.8C795.2 996.8 492.8 1072 260.8 932.8c-112-67.2-192-174.4-224-302.4-32-126.4-12.8-259.2 54.4-371.2C230.4 27.2 532.8-48 764.8 91.2l8-14.4c-240-144-552-65.6-696 174.4C8 368-12.8 504 20.8 635.2c33.6 131.2 115.2 241.6 232 312 81.6 48 171.2 72 259.2 72 172.8 0 340.8-88 435.2-246.4 38.4-65.6 62.4-136 70.4-211.2l-16-1.6z" fill="#2b72dc" p-id="9028"></path><path d="M528 587.2l-88-169.6-198.4 97.6c84.8 30.4 212.8 137.6 297.6 241.6 49.6-91.2 224-254.4 348.8-337.6l49.6-30.4c19.2-11.2 36.8-17.6 49.6-20.8-38.4-88-4.8-158.4 0-240-46.4 24-92.8 57.6-137.6 96l-52.8 46.4C648 412.8 528 587.2 528 587.2z" fill="#2b72dc" p-id="9029"></path></svg>