<?xml version="1.0" encoding="utf-8"?>
<!-- Generator: Adobe Illustrator 16.0.0, SVG Export Plug-In . SVG Version: 6.00 Build 0)  -->
<!DOCTYPE svg PUBLIC "-//W3C//DTD SVG 1.1//EN" "http://www.w3.org/Graphics/SVG/1.1/DTD/svg11.dtd">
<svg version="1.1" id="telegram" xmlns="http://www.w3.org/2000/svg" xmlns:xlink="http://www.w3.org/1999/xlink" x="0px" y="0px"
	 width="18px" height="18px" viewBox="0 0 18 18" enable-background="new 0 0 18 18" xml:space="preserve">
<circle fill="#132542" cx="9" cy="8.974" r="8.633"/>
<path fill="#C6D7E6" d="M7.35,13.125c-0.292,0-0.242-0.109-0.343-0.388L6.15,9.916L12.75,6"/>
<path fill="#A7C5D7" d="M7.35,13.125c0.225,0,0.324-0.104,0.45-0.225L9,11.733L7.503,10.83"/>
<linearGradient id="SVGID_1_" gradientUnits="userSpaceOnUse" x1="31.001" y1="-31.5273" x2="31.1924" y2="-31.8927" gradientTransform="matrix(9.787 0 0 -8.2087 -293.7734 -249.5859)">
	<stop  offset="0" style="stop-color:#EEF6FC"/>
	<stop  offset="1" style="stop-color:#FFFFFF"/>
</linearGradient>
<path fill="url(#SVGID_1_)" d="M7.503,10.83l3.627,2.68c0.414,0.229,0.713,0.111,0.815-0.384l1.477-6.957
	c0.151-0.606-0.23-0.881-0.627-0.701L4.126,8.811C3.534,9.048,3.538,9.378,4.018,9.525l2.225,0.694l5.15-3.25
	c0.244-0.147,0.467-0.068,0.283,0.094"/>
</svg>
