<?xml version="1.0" encoding="utf-8"?>
<!-- Generator: Adobe Illustrator 16.0.0, SVG Export Plug-In . SVG Version: 6.00 Build 0)  -->
<!DOCTYPE svg PUBLIC "-//W3C//DTD SVG 1.1//EN" "http://www.w3.org/Graphics/SVG/1.1/DTD/svg11.dtd">
<svg version="1.1" id="twitter" xmlns="http://www.w3.org/2000/svg" xmlns:xlink="http://www.w3.org/1999/xlink" x="0px" y="0px"
	 width="18px" height="18px" viewBox="0 0 18 18" enable-background="new 0 0 18 18" xml:space="preserve">
<path fill="#162744" d="M17.417,4.553c-0.619,0.275-1.285,0.461-1.983,0.544c0.713-0.428,1.261-1.104,1.519-1.91
	c-0.668,0.396-1.407,0.683-2.193,0.838c-0.63-0.671-1.527-1.091-2.521-1.091c-1.908,0-3.454,1.546-3.454,3.454
	c0,0.271,0.03,0.534,0.089,0.786C6.003,7.03,3.458,5.655,1.755,3.565C1.458,4.076,1.287,4.669,1.287,5.302
	c0,1.198,0.609,2.256,1.536,2.875C2.258,8.158,1.725,8.003,1.26,7.745C1.259,7.759,1.259,7.773,1.259,7.788
	c0,1.674,1.191,3.069,2.771,3.386c-0.289,0.079-0.595,0.122-0.91,0.122c-0.223,0-0.438-0.022-0.649-0.063
	c0.439,1.372,1.715,2.371,3.227,2.398c-1.183,0.927-2.672,1.479-4.289,1.479c-0.279,0-0.555-0.017-0.824-0.048
	c1.528,0.979,3.344,1.552,5.294,1.552c6.353,0,9.826-5.263,9.826-9.827c0-0.149-0.003-0.298-0.01-0.446
	C16.368,5.854,16.954,5.246,17.417,4.553z"/>
</svg>
