<svg height="32" viewBox="0 0 1024 1024" width="32" xmlns="http://www.w3.org/2000/svg"><path d="m852.159772 825.305659h-680.320567c-59.235103 0-107.419522-48.185442-107.419522-107.419522v-411.773298c0-59.235103 48.184419-107.419522 107.419522-107.419522h680.320567c59.235103 0 107.419522 48.184419 107.419522 107.419522v411.773298c-.000001 59.234079-48.18442 107.419522-107.419522 107.419522zm71.611991-519.19282c0-39.48734-32.099069-71.613014-71.611991-71.613014h-680.320567c-39.47813 0-71.613014 32.126698-71.613014 71.613014v69.610404h821.309648v37.379329h-821.310672v304.782541c0 39.477107 32.134885 71.610968 71.613014 71.610968h680.320567c39.512922 0 71.611991-32.133861 71.611991-71.610968v-411.772274zm-107.785865 320.613089h-124.954897c-9.895371 0-17.902742-8.006348-17.902742-17.901719v-70.879304c0-9.887184 8.007371-17.901719 17.902742-17.901719h124.954897c9.877975 0 17.902742 8.014534 17.902742 17.901719v70.880327c0 9.894348-8.023744 17.900696-17.902742 17.900696zm-299.825647-72.600505h-334.565868c-9.388834 0-16.993023-7.605212-16.993023-16.984836 0-9.389858 7.605212-16.994046 16.993023-16.994046h334.565868c9.370415 0 16.993023 7.605212 16.993023 16.994046.001023 9.379624-7.622608 16.984836-16.993023 16.984836zm-334.565868 73.440639h173.437098c9.370415 0 16.993023 7.605212 16.993023 16.994046 0 9.371438-7.622608 16.994046-16.993023 16.994046h-173.437098c-9.388834 0-16.993023-7.622608-16.993023-16.994046 0-9.389857 7.604189-16.994046 16.993023-16.994046z" fill="#fff"/></svg>