<svg height="178" viewBox="0 0 192 178" width="192" xmlns="http://www.w3.org/2000/svg" xmlns:xlink="http://www.w3.org/1999/xlink"><mask id="a" fill="#fff"><path d="m.00006348 16.673647h90.82443602v-16.52725613h-90.82443602z" fill="#fff" fill-rule="evenodd"/></mask><mask id="b" fill="#fff"><path d="m0 65.2415452h90.8245266v-65.05420085h-90.8245266z" fill="#fff" fill-rule="evenodd"/></mask><mask id="c" fill="#fff"><path d="m0 .1160032v45.449385h33.2364678v-45.449385z" fill="#fff" fill-rule="evenodd"/></mask><mask id="d" fill="#fff"><path d="m23.935142 32.1361933v-32.09847747h-23.93510028v32.09847747z" fill="#fff" fill-rule="evenodd"/></mask><g fill="none" fill-rule="evenodd"><g opacity=".795913" transform="translate(53 112)"><path d="m88.5002225 16.6737219h-86.17606758c-1.70289345 0-2.68412705-.4893434-2.20096926-1.0815389l12.14514344-14.88544518c.254166-.31136631 1.4345553-.56034695 2.6401189-.56034695h61.0074815c1.2055635 0 2.3861394.24898064 2.6401189.56034695l12.1453299 14.88544518c.4831578.5920082-.4980758 1.0815389-2.2011558 1.0815389" fill="#e6e7e8" mask="url(#a)" transform="translate(0 48.567898)"/><path d="m64.2996676 46.574723-63.13553891.0001873c-.61797951 0-1.11885246-.5033942-1.11885246-1.1240661v-44.18497717c0-.62085917.50087295-1.12406609 1.11885246-1.12406609l63.13553891-.00018735c.6179795 0 1.1188525.50339427 1.1188525 1.12406609v44.18497722c0 .6208592-.500873 1.1240661-1.1188525 1.1240661" fill="#fff" transform="translate(12.680328 .045712)"/><path d="m12.9075668 45.3737895v-43.93955611c0-.56896478.4591025-1.03039391 1.0256148-1.03039391h62.9580143c.5665123 0 1.0256148.46142913 1.0256148 1.03039391v43.93955611c0 .5689648-.4591025 1.0303939-1.0256148 1.0303939h-62.9580143c-.5665123 0-1.0256148-.4612418-1.0256148-1.0303939" fill="#d8d8d8"/><path d="m15.6150779 42.9803531h59.5943709v-39.15272072h-59.5943709z" fill="#fff" mask="url(#b)"/><path d="m21.8024811 42.9803905h53.4069304v-39.15272065h-6.7578689z" fill="#f7f8f8" mask="url(#b)"/><path d="m90.8236875 61.8364868h-.6133176v.4404465l-11.6543402-14.2836951c-.2539795-.3113663-1.4345553-.560347-2.6401188-.560347h-61.0072951c-1.20575 0-2.3861394.2489807-2.6403053.560347l-11.31439554 13.8672287h-.95251639v1.3252739h.00055942c.01603689.4451301.92566394.7744815 2.32217828.7744815h86.17606763c1.4000574 0 2.3102438-.3312248 2.3221783-.7776664h.0013053z" fill="#ededed" mask="url(#b)"/><path d="m88.5002225 62.6187993h-86.17606758c-1.70289345 0-2.68412705-.4893434-2.20096926-1.0815389l12.14514344-14.8854452c.254166-.3113663 1.4345553-.5601596 2.6401189-.5601596l61.0074815-.0001874c1.2055635 0 2.3861394.2489807 2.6401189.560347l12.1453299 14.8854452c.4831578.5921955-.4980758 1.0815389-2.2011558 1.0815389" fill="#fff" mask="url(#b)"/><path d="m81.4514893 55.6965568h-72.0785266c-.49826229 0-.80799795-.1264575-.69275614-.2815786l6.09215164-8.1906949c.0799979-.107161.47775-.193714.8889283-.193714h59.5018791c.4111783 0 .8091168.086553.8887418.193714l6.0923381 8.1906949c.1152418.1551211-.1944939.2815786-.6927562.2815786" fill="#ededed" mask="url(#b)"/><path d="m56.2047328 61.7157433h-21.5849017c-.5586803 0-.977877-.1590553-.9364795-.3537061l.9571783-4.5163102c.0346844-.1631769.4732746-.2945053.9801148-.2945053l19.5830881-.0001874c.5068402 0 .9456168.1315158.9801147.2946927l.9573648 4.5163102c.0412111.1946508-.3777992.3537061-.9364795.3537061" fill="#ededed" mask="url(#b)"/><g fill="#d1d1d1"><path d="m16.8504961 51.6499938h-3.6881106c-.2288054 0-.4598484.0635097-.5159775.142007l-.8257131 1.1529171c-.0591127.0828062.0841004.1502502.3201783.1502502h3.8048442 3.8050308c.2360778 0 .4635778-.067444.507959-.1502502l.618166-1.1529171c.0421434-.0784973-.1094611-.142007-.3382664-.142007z" mask="url(#b)"/><path d="m25.2207619 53.0951494h-3.3774426c-.2360779 0-.398498-.0569527-.3628812-.1268322l.6110799-1.1984418c.0337521-.0663199.2465205-.1199003.4755123-.1199003h3.2737623c.2288054 0 .3917849.0535804.364.1199003l-.5032971 1.1984418c-.0294631.0698795-.2446557.1268322-.4807336.1268322" mask="url(#b)"/><path d="m30.6908316 53.0951494h-3.3774427c-.2360778 0-.405211-.0569527-.3776127-.1268322l.4717828-1.1984418c.0261066-.0663199.2327213-.1199003.4615267-.1199003h3.2737623c.2288053 0 .398125.0535804.3779856.1199003l-.364 1.1984418c-.0212582.0698795-.2299242.1268322-.466002.1268322" mask="url(#b)"/><path d="m36.1609012 53.0951494h-3.3774426c-.2360779 0-.4117377-.0569527-.3923443-.1268322l.3324857-1.1984418c.0184611-.0663199.2187357-.1199003.447541-.1199003h3.2737623c.2288053 0 .4042787.0535804.3919713.1199003l-.2248894 1.1984418c-.0130532.0698795-.2150061.1268322-.451084.1268322" mask="url(#b)"/><path d="m47.1010406 53.0951494h-3.3776291c-.2360779 0-.424791-.0569527-.4218074-.1268322l.0540779-1.1984418c.0029836-.0663199.1907643-.1199003.4197561-.1199003h3.2737623c.2288053 0 .4167726.0535804.4195697.1199003l.0538914 1.1984418c.0031701.0698795-.1855431.1268322-.4216209.1268322" mask="url(#b)"/><path d="m41.6309709 53.0951494h-3.3776291c-.2358914 0-.4182643-.0569527-.4068893-.1268322l.1931885-1.1984418c.0106291-.0663199.20475-.1199003.4335553-.1199003h3.2739488c.2288053 0 .4104324.0535804.405584.1199003l-.0852193 1.1984418c-.0050348.0698795-.200461.1268322-.4365389.1268322" mask="url(#b)"/><path d="m52.571017 53.0951494h-3.3774426c-.2360779 0-.4315041-.0569527-.4365389-.1268322l-.0854058-1.1984418c-.0048483-.0663199.1769652-.1199003.4057705-.1199003h3.2737623c.2289918 0 .4229262.0535804.4337418.1199003l.1931885 1.1984418c.0111886.0698795-.1709979.1268322-.4070758.1268322" mask="url(#b)"/><path d="m58.0410867 53.0951494h-3.3774426c-.2360779 0-.4382173-.0569527-.4512705-.1268322l-.2247029-1.1984418c-.0124939-.0663199.1629795-.1199003.3917848-.1199003h3.2739488c.2288053 0 .4290799.0535804.447541.1199003l.3324856 1.1984418c.0193935.0698795-.1562664.1268322-.3923442.1268322" mask="url(#b)"/><path d="m63.5111377 53.0951494h-3.3776291c-.2358914 0-.4447438-.0569527-.4658156-.1268322l-.364-1.1984418c-.0201393-.0663199.1489939-.1199003.3777992-.1199003h3.2739488c.2288053 0 .4354201.0535804.4615266.1199003l.4715963 1.1984418c.0275984.0698795-.1413483.1268322-.3774262.1268322" mask="url(#b)"/><path d="m68.9812074 53.0951494h-3.3776291c-.2358914 0-.4512705-.0569527-.4805472-.1268322l-.5032971-1.1984418c-.0279713-.0663199.1350082-.1199003.364-.1199003h3.2737623c.2288053 0 .4415738.0535804.4753258.1199003l.6110799 1.1984418c.0358033.0698795-.1266168.1268322-.3626946.1268322" mask="url(#b)"/><path d="m19.1087879 55.1041552h-3.0792684c-.2461476 0-.4081947-.0618236-.3619488-.1378854l.7910287-1.3012939c.0434488-.0717529.2720676-.1298296.5101967-.1298296h2.9809959c.2383156 0 .4009221.0580767.3630676.1298296l-.6858565 1.3012939c-.0399058.0760618-.2720676.1378854-.5182152.1378854" mask="url(#b)"/><path d="m13.8476826 55.1041552h-3.1271926c-.2461476 0-.4012951-.0618236-.3468443-.1378854l.9316311-1.3012939c.0514673-.0717529.2862398-.1298296.5243689-.1298296h3.0272418c.2381291 0 .394582.0580767.349082.1298296l-.8253402 1.3012939c-.0481107.0760618-.2867992.1378854-.5329467.1378854" mask="url(#b)"/><path d="m24.3589658 55.1041552h-3.0684529c-.2459611 0-.4147213-.0618236-.3766803-.1378854l.6515451-1.3012939c.0359897-.0717529.2580819-.1298296.4963975-.1298296h2.9701803c.2383156 0 .4070759.0580767.3770533.1298296l-.5465594 1.3012939c-.0318873.0760618-.2573361.1378854-.5034836.1378854" mask="url(#b)"/><path d="m74.8537283 55.1041552h-3.0792685c-.2461475 0-.4783094-.0618236-.5184016-.1378854l-.6873484-1.3012939c-.0378545-.0717529.1245656-.1298296.3628812-.1298296h2.9808094c.2383156 0 .4669344.0580767.5105697.1298296l.7925205 1.3012939c.0462459.0760618-.1156148.1378854-.3617623.1378854" mask="url(#b)"/><path d="m69.592623 55.1041552h-3.1271927c-.245961 0-.4715963-.0618236-.5034836-.1378854l-.2206004-.5253136c-.0311414-.0741883.140043-.1341385.3820881-.1341385h3.0764713c.2420451 0 .4684263.0599502.5055349.1341385l.2636762.5253136c.0382275.0760618-.1303463.1378854-.3764938.1378854" mask="url(#b)"/><path d="m80.1039061 55.1041552h-3.0682663c-.2461476 0-.4850226-.0618236-.5333197-.1378854l-.333791-.5253136c-.0469918-.0741883.1111393-.1341385.3533709-.1341385h3.0184775c.242045 0 .481293.0599502.5344385.1341385l.3761209.5253136c.0544508.0760618-.1008832.1378854-.3470308.1378854" mask="url(#b)"/><path d="m30.062484 55.1041552h-3.5217746c-.2461475 0-.4214344-.0618236-.3914119-.1378854l.512248-1.3012939c.0283443-.0717529.2442828-.1298296.4825984-.1298296h3.4091434c.2383156 0 .4137889.0580767.3919713.1298296l-.3953279 1.3012939c-.0229364.0760618-.2412991.1378854-.4874467.1378854" mask="url(#b)"/><path d="m64.283724 55.1041552h-3.5217746c-.2461476 0-.4643238-.0618236-.4874467-.1378854l-.3953279-1.3012939c-.0218176-.0717529.1538422-.1298296.3919713-.1298296h3.4091434c.2383156 0 .4544406.0580767.4825984.1298296l.512248 1.3012939c.0300225.0760618-.1452644.1378854-.3914119.1378854" mask="url(#b)"/><path d="m73.9739746 51.6499938h-3.6881107c-.2288053 0-.3804098.0635097-.3382664.142007l.618166 1.1529171c.0443812.0828062.2718812.1502502.507959.1502502h3.8050308 3.8048442c.2360779 0 .379291-.067444.3199918-.1502502l-.8255266-1.1529171c-.0561291-.0784973-.2871721-.142007-.5159775-.142007z" mask="url(#b)"/><path d="m16.7854908 49.9088341h-2.3922931c-.2200409 0-.4404549.0586388-.4924815.1313284l-.7628709 1.0654273c-.0546373.0764365.0846598.1386349.3114139.1386349h2.4652049 2.4650185c.2267541 0 .447168-.0621984.4922951-.1386349l.6273032-1.0654273c.0427029-.0726896-.1012561-.1313284-.3212971-.1313284z" mask="url(#b)"/><path d="m28.889274 51.2442059h-3.2446722c-.2267541 0-.3873094-.0524564-.3584057-.1170902l.4941598-1.1073924c.0274119-.0612616.227873-.1109079.447914-.1109079h3.1490102c.220041 0 .3807828.0496463.3589652.1109079l-.394582 1.1073924c-.0231229.0646338-.2256352.1170902-.4523893.1170902" mask="url(#b)"/><path d="m23.6343596 51.2442059h-3.2446721c-.2267541 0-.3811557-.0524564-.344793-.1170902l.6228278-1.1073924c.034498-.0612616.2407398-.1109079.4607808-.1109079h3.1490102c.220041 0 .3750021.0496463.3460984.1109079l-.52325 1.1073924c-.030582.0646338-.239248.1170902-.4660021.1170902" mask="url(#b)"/><path d="m34.1441883 51.2442059h-3.2446721c-.2267541 0-.3932767-.0524564-.3720185-.1170902l.3654918-1.1073924c.0203259-.0612616.2150062-.1109079.4350472-.1109079h3.1490102c.220041 0 .3865636.0496463.371832.1109079l-.2659139 1.1073924c-.0154775.0646338-.2120226.1170902-.4387767.1170902" mask="url(#b)"/><path d="m39.3991027 51.2442059h-3.2446722c-.2267541 0-.3994303-.0524564-.3856311-.1170902l.2368238-1.1073924c.0132397-.0612616.2021393-.1109079.4221803-.1109079h3.1490102c.220041 0 .3923443.0496463.3846988.1109079l-.1372459 1.1073924c-.0080184.0646338-.1984098.1170902-.4251639.1170902" mask="url(#b)"/><path d="m49.9090059 51.2442059h-3.2446721c-.2269406 0-.4117377-.0524564-.4128565-.1170902l-.0206988-1.1073924c-.0011189-.0612616.1764057-.1109079.3964467-.1109079h3.1490103c.2200409 0 .4039057.0496463.4104323.1109079l.1202767 1.1073924c.0068996.0646338-.1711845.1170902-.3979386.1170902" mask="url(#b)"/><path d="m44.6540916 51.2442059h-3.2446721c-.2269406 0-.405584-.0524564-.3992439-.1170902l.1081558-1.1073924c.0059672-.0612616.189086-.1109079.409127-.1109079h3.1490102c.220041 0 .398125.0496463.3975656.1109079l-.0083914 1.1073924c-.0005594.0646338-.1847971.1170902-.4115512.1170902" mask="url(#b)"/><path d="m55.1639203 51.2442059h-3.2446721c-.2269406 0-.4178914-.0524564-.4264693-.1170902l-.1493668-1.1073924c-.0082049-.0612616.1635389-.1109079.3835799-.1109079h3.1490103c.2200409 0 .4095.0496463.4232991.1109079l.2489447 1.1073924c.0145451.0646338-.1575717.1170902-.3843258.1170902" mask="url(#b)"/><path d="m60.418816 51.2442059h-3.2446721c-.2269406 0-.4238587-.0524564-.440082-.1170902l-.2780349-1.1073924c-.0152909-.0612616.1506722-.1109079.3707132-.1109079h3.1490102c.220041 0 .4152807.0496463.436166.1109079l.3776127 1.1073924c.0220041.0646338-.143959.1170902-.3707131.1170902" mask="url(#b)"/><path d="m65.6737303 51.2442059h-3.2446721c-.2267541 0-.4300123-.0524564-.4536947-.1170902l-.4067028-1.1073924c-.0225636-.0612616.1378053-.1109079.3578463-.1109079h3.1488237c.2202275 0 .421248.0496463.4492193.1109079l.5062807 1.1073924c.0294632.0646338-.1303463.1170902-.3571004.1170902" mask="url(#b)"/><path d="m70.9286447 51.2442059h-3.2446722c-.2267541 0-.4359795-.0524564-.4673073-.1170902l-.5353709-1.1073924c-.0296496-.0612616.1249385-.1109079.3449795-.1109079h3.1488237c.220041 0 .4268423.0496463.4620861.1109079l.6349488 1.1073924c.0371086.0646338-.1167336.1170902-.3434877.1170902" mask="url(#b)"/><path d="m23.353826 47.9470203h-2.8747049c-.2101578 0-.3533709-.0449626-.3198053-.1004165l.2319754-.3842433c.0328197-.0543299.2275-.0981684.4346742-.0981684h2.8346127c.2073606 0 .3528114.0438385.3246537.0981684l-.1987828.3842433c-.0285308.0554539-.2224652.1004165-.432623.1004165" mask="url(#b)"/><path d="m18.6547016 47.9470203h-2.8747049c-.2101578 0-.348336-.0449626-.3086168-.1004165l.2750512-.3842433c.0389734-.0543299.2385021-.0981684.4458628-.0981684h2.8346127c.2071741 0 .3475901.0438385.3134651.0981684l-.2416721.3842433c-.0350574.0554539-.2338402.1004165-.443998.1004165" mask="url(#b)"/><path d="m28.0529504 47.9470203h-2.8747049c-.2101578 0-.3584057-.0449626-.3309939-.1004165l.1888996-.3842433c.026666-.0543299.2163115-.0981684.4236722-.0981684h2.8346127c.2073606 0 .3574733.0438385.3354692.0981684l-.1555205.3842433c-.0225635.0554539-.2112766.1004165-.4214344.1004165" mask="url(#b)"/><path d="m32.7520748 47.9470203h-2.8745184c-.2103443 0-.3636271-.0449626-.3425554-.1004165l.1458238-.3842433c.0206988-.0543299.2054959-.0981684.4128566-.0981684h2.8344262c.2073606 0 .3625082.0438385.3466578.0981684l-.1124447.3842433c-.0164098.0554539-.2000881.1004165-.4102459.1004165" mask="url(#b)"/><path d="m42.1503422 47.9470203h-2.8745184c-.2101578 0-.3736968-.0449626-.3651189-.1004165l.0598586-.3842433c.0083914-.0543299.1833054-.0981684.3904795-.0981684h2.8347992c.2071742 0 .3722049.0438385.3684754.0981684l-.026293.3842433c-.003916.0554539-.1775246.1004165-.3876824.1004165" mask="url(#b)"/><path d="m37.4511992 47.9470203h-2.8745185c-.2101577 0-.3686618-.0449626-.3537438-.1004165l.1027479-.3842433c.0145451-.0543299.1943074-.0981684.4016681-.0981684h2.8346127c.2073606 0 .3673565.0438385.3576598.0981684l-.0695553.3842433c-.0100697.0554539-.1887131.1004165-.3988709.1004165" mask="url(#b)"/><path d="m46.8495598 47.9470203h-2.8747049c-.2101578 0-.3785451-.0449626-.3763074-.1004165l.0167828-.3842433c.0022377-.0543299.1723033-.0981684.379664-.0981684h2.8346127c.2071741 0 .3772397.0438385.3796639.0981684l.0165963.3842433c.0024242.0554539-.1661496.1004165-.3763074.1004165" mask="url(#b)"/><path d="m51.5486842 47.9470203h-2.8747049c-.2101578 0-.3837664-.0449626-.3874959-.1004165l-.0264795-.3842433c-.0037295-.0543299.1613012-.0981684.3686619-.0981684h2.8346127c.2073606 0 .3822746.0438385.390666.0981684l.0598586.3842433c.0085778.0554539-.1549611.1004165-.3651189.1004165" mask="url(#b)"/><path d="m56.2478086 47.9470203h-2.8747049c-.2101578 0-.3886148-.0449626-.3986844-.1004165l-.0695554-.3842433c-.0096967-.0543299.1502992-.0981684.3576599-.0981684h2.8346127c.2073606 0 .3871229.0438385.401668.0981684l.102748.3842433c.014918.0554539-.1435861.1004165-.3537439.1004165" mask="url(#b)"/><path d="m60.946933 47.9470203h-2.8747049c-.2099713 0-.3938361-.0449626-.4100595-.1004165l-.1124446-.3842433c-.0160369-.0543299.1392971-.0981684.3466578-.0981684h2.8344262c.2073606 0 .3921578.0438385.4128565.0981684l.1458238.3842433c.0210717.0554539-.1323975.1004165-.3425553.1004165" mask="url(#b)"/><path d="m65.6460574 47.9470203h-2.8745185c-.2101578 0-.3990573-.0449626-.4214344-.1004165l-.155707-.3842433c-.0220041-.0543299.1282951-.0981684.3356558-.0981684h2.8346127c.2073606 0 .3970061.0438385.4236721.0981684l.1888996.3842433c.0274119.0554539-.1210225.1004165-.3311803.1004165" mask="url(#b)"/><path d="m70.3451818 47.9470203h-2.8745185c-.2101578 0-.4040922-.0449626-.4326229-.1004165l-.1987828-.3842433c-.0281578-.0543299.117293-.0981684.3244672-.0981684h2.8347992c.2071742 0 .4018545.0438385.4346742.0981684l.2319754.3842433c.0335655.0554539-.1096476.1004165-.3199918.1004165" mask="url(#b)"/><path d="m75.0443994 47.9470203h-2.8747049c-.2101578 0-.4089406-.0449626-.4438115-.1004165l-.2418586-.3842433c-.034125-.0543299.106291-.0981684.3134651-.0981684h2.8347992c.2071742 0 .4067029.0438385.4456763.0981684l.2750512.3842433c.0397193.0554539-.098459.1004165-.3086168.1004165" mask="url(#b)"/><path d="m74.2785449 49.9088341h-2.1526722c-.2200409 0-.3632541.0586388-.3198053.1313284l.6390512 1.0654273c.045873.0764365.2670328.1386349.4936005.1386349l2.2183114-.0001874h2.218125c.2267541 0 .3660513-.062011.311414-.1384475l-.7628709-1.0654273c-.0520267-.0726896-.2724406-.1313284-.4924816-.1313284z" mask="url(#b)"/><path d="m17.8379766 48.2957244h-2.3042766c-.2120225 0-.4229262.0545172-.4710369.1217738l-.7071147.9874921c-.0507214.0708161.0850327.1281435.303209.1281435h2.3717807 1.186543c.2183628 0 .4305718-.0573274.474207-.1281435l.6082828-.9874921c.041584-.0672566-.0967807-.1217738-.3088033-.1217738z" mask="url(#b)"/><path d="m28.329307 49.5332275h-3.1219713c-.2181763 0-.3720185-.0485222-.3436742-.1082851l.4859549-1.0264597c.0268525-.0567653.2204139-.1026647.4324365-.1026647h3.033209c.2120225 0 .3662377.0458994.3444201.1026647l-.3938361 1.0264597c-.0229365.0597629-.2183627.1082851-.4365389.1082851" mask="url(#b)"/><path d="m23.2731568 49.5332275h-3.1219713c-.2181763 0-.3664242-.0485222-.3311804-.1082851l.6054857-1.0264597c.0333791-.0567653.2323483-.1026647.4443709-.1026647h3.0330225c.2120226 0 .3608299.0458994.3324857.1026647l-.5129939 1.0264597c-.029836.0597629-.231043.1082851-.4492192.1082851" mask="url(#b)"/><path d="m33.3853453 49.5332275h-3.1219713c-.2181763 0-.3777992-.0485222-.3563545-.1082851l.3666106-1.0264597c.0203258-.0567653.208666-.1026647.4206885-.1026647h3.0330226c.212209 0 .3716455.0458994.356541.1026647l-.2744918 1.0264597c-.0160369.0597629-.2058689.1082851-.4240451.1082851" mask="url(#b)"/><path d="m38.4414023 49.5332275h-3.1219714c-.2181762 0-.3833934-.0485222-.3688483-.1082851l.2472664-1.0264597c.0137992-.0567653.1967315-.1026647.4087541-.1026647h3.0330225c.2120226 0 .3768668.0458994.3684754.1026647l-.1551475 1.0264597c-.0091373.0597629-.193375.1082851-.4115512.1082851" mask="url(#b)"/><path d="m48.5534975 49.5332275h-3.1219713c-.2181762 0-.3945819-.0485222-.3940225-.1082851l.0087643-1.0264597c.0005595-.0567653.1728627-.1026647.3846988-.1026647h3.033209c.2120226 0 .3876824.0458994.3921578.1026647l.083541 1.0264597c.0048484.0595755-.1682008.1082851-.3863771.1082851" mask="url(#b)"/><path d="m43.4974592 49.5332275h-3.1219713c-.2181762 0-.3889877-.0485222-.3815287-.1082851l.1281086-1.0264597c.0072726-.0567653.1847972-.1026647.3966332-.1026647h3.033209c.2120226 0 .3822746.0458994.3804099.1026647l-.0359898 1.0264597c-.0020512.0597629-.1806946.1082851-.3988709.1082851" mask="url(#b)"/><path d="m53.6096477 49.5332275h-3.1219713c-.2181762 0-.4003627-.0487096-.4067028-.1082851l-.11058-1.0264597c-.0059672-.0567653.1609283-.1026647.3729509-.1026647h3.033209c.211836 0 .3927172.0458994.4040922.1026647l.2026988 1.0264597c.0117479.0595755-.1555205.1082851-.3736968.1082851" mask="url(#b)"/><path d="m58.6657047 49.5332275h-3.1219713c-.2181762 0-.405957-.0487096-.4193832-.1082851l-.2297377-1.0264597c-.0126803-.0567653.1489939-.1026647.3608299-.1026647h3.033209c.2120226 0 .3983115.0458994.4160267.1026647l.3222295 1.0264597c.0186475.0595755-.1430267.1082851-.3612029.1082851" mask="url(#b)"/><path d="m63.721743 49.5332275h-3.1219713c-.2181762 0-.4115512-.0487096-.431877-.1082851l-.349082-1.0264597c-.019207-.0567653.1370594-.1026647.3488955-.1026647h3.033209c.2120226 0 .4035328.0458994.4279611.1026647l.4413873 1.0264597c.0257336.0595755-.1303463.1082851-.3485226.1082851" mask="url(#b)"/><path d="m68.7778 49.5332275h-3.1219713c-.2181762 0-.4171455-.0487096-.4443709-.1082851l-.4684262-1.0264597c-.0259201-.0567653.1249385-.1026647.336961-.1026647h3.033209c.2120226 0 .4089406.0458994.4398955.1026647l.5605451 1.0264597c.0328197.0595755-.117666.1082851-.3358422.1082851" mask="url(#b)"/><path d="m72.0657904 48.2957244h-2.0736066c-.2118361 0-.352625.0545172-.3140246.1217738l.5653935.9874921c.0402787.0708161.25025.1281435.4684262.1281435h2.1342111 3.3194487c.2181763 0 .3539304-.0573274.303209-.1281435l-.7069282-.9874921c-.0482972-.0672566-.2590144-.1217738-.4710369-.1217738z" mask="url(#b)"/><path d="m58.5802057 55.1041552h-26.3359221c-.2461475 0-.4285205-.0618236-.4074488-.1378854l.3610164-1.3012939c.0199529-.0717529.2291783-.1298296.4674939-.1298296h25.4937992c.2383155 0 .4475409.0580767.4674938.1298296l.3610164 1.3012939c.0210717.0760618-.1613012.1378854-.4074488.1378854" mask="url(#b)"/></g></g><g transform="translate(.815344 48.399416)"><path d="m2.17253866.5708644c-.06192146-.2240132.06713956-.45646645.28873488-.51941522.22159533-.06259709.45153961.0682238.51380894.292237 5.71625493 20.48226162 2.28378856 31.38400282-.13845359 39.07711532-1.63083028 5.1793821-2.79133578 8.8645223-.25151243 13.0384824.12036418.1983414.05913847.4585765-.1370621.580254-.19620058.1220292-.45327898.0597837-.57399104-.1382059-2.73776328-4.4999575-1.52925125-8.338777.1697622-13.7344355 2.39058568-7.5928869 5.77852426-18.3525538.12871314-38.5960321" fill="#ff6800" transform="translate(21.568148 46.578568)"/><path d="m23.8374997 44.8254628c-4.5606197 1.1935648-9.646876-1.7101667-13.9636364-6.237906-10.22121484-10.7199282-16.87011823-32.73124695 2.6747982-37.8459219 19.5449164-5.11467495 24.2954749 17.3928488 20.5040033 31.7799821-1.6012611 6.0761382-4.6545455 11.110281-9.2151651 12.3038458" fill="#ff6800"/><path d="m20.7460535 38.1509597c-3.6227531.9480998-7.6629542-1.3588493-11.09263755-4.9553689-8.11901617-8.5156665-13.40077728-26.00065264 2.12515835-30.06383707 15.5259356-4.06283276 19.2996657 13.81672607 16.2881261 25.24526747-1.2725208 4.8270097-3.6975459 8.8258387-7.3206469 9.7739385" fill="#ff7c1b"/><path d="m7.8302465 6.86528358c1.25964941.33408561-.43971192 2.78732904-1.1552874 5.54617292-.71557549 2.7588438-.84220139 5.5676247-2.1018508 5.2338907-1.25964941-.3340856-1.61308873-3.3468345-.89751325-6.1056784.71557549-2.75919547 2.89500204-5.00811917 4.15465145-4.67438522" fill="#ffac73"/><path d="m23.3370838 43.4802583-.2369017 5.5989232 1.738671-.4554114 1.392537-.3643292z" fill="#ff6800"/></g><g transform="translate(42.188341)"><path d="m16.0614502 48.2127882c-.0636953-.2225295.0630029-.4555889.2824746-.5198206.2194717-.0645828.4489823.0635297.5126775.2860593 2.0721727 7.2097477.8768482 10.7052873-.2887056 14.1127276-.6608383 1.9322166-1.3116376 3.8356518-1.306445 6.3950929.006231 2.9936196 1.7180409 6.2813712 3.3516164 9.4185469 1.3303308 2.5552292 2.6104669 5.0135844 2.9330972 7.2216815.3856332 2.6408716.2198178 5.3477298-.1959322 7.7608068-.5933351 3.4449966-1.705925 6.3136626-2.4488055 7.5323104-.1201209.196907-.3749019.25798-.5694494.136185-.1945474-.121443-.254781-.380125-.1350062-.5773832.7027248-1.1523101 1.7606198-3.8988306 2.3356079-7.2360723.4022494-2.3365606.5635646-4.9521606.1924705-7.4937011-.3022063-2.0676999-1.5491101-4.4625253-2.8455162-6.9521189-1.6792699-3.2252749-3.4388513-6.6053377-3.4457747-9.8102551-.0055387-2.6987853.6681079-4.6685582 1.3521395-6.6681655 1.1226288-3.2824868 2.2746821-6.6509668.2755512-13.6058937" fill="#b9c100"/><path d="m16.6184028 45.5653882c-4.6881782 0-8.87129467-4.0922277-11.91308913-9.5582421-7.2020637-12.9421658-8.17722417-35.8911429 11.91308913-35.8911429 20.0903134 0 19.1144606 22.9489771 11.9127431 35.8911429-3.0417945 5.4660144-7.224911 9.5582421-11.9127431 9.5582421" fill="#b9c100" mask="url(#c)" transform="translate(0 .235165)"/><path d="m15.2866182 38.5697462c-3.7237491 0-7.04697961-3.2505464-9.46324515-7.5926811-5.72114909-10.2812878-6.49587722-28.51116359 9.46324515-28.51116359 15.9594685 0 15.1840481 18.22987579 9.4632452 28.51116359-2.4162656 4.3417837-5.73915 7.5926811-9.4632452 7.5926811" fill="#c7cf00"/><path d="m10.5622652 5.07490287c1.1312831.64091327-1.11120522 2.58155371-2.48099931 5.06658433-1.37014026 2.4846796-2.18502409 5.1666174-3.31630715 4.5257041-1.1309369-.6412643-.7279952-3.6415527.64179889-6.12658328 1.3697941-2.48503063 4.02457067-4.10696941 5.15550757-3.46570515" fill="#eaf15c"/><path d="m16.4681305 44.3743285-1.6093436 5.3494847h1.7872749 1.4314123z" fill="#b9c100"/></g><g transform="translate(75.766816 55.102905)"><path d="m13.5769412 34.2487315c.0243562-.1625254.1762094-.2744323.3387494-.2501155.1630372.0243168.2751252.1759245.2505205.33845-.4274754 2.804867.2147318 4.6961176.9397002 6.8317767.5569607 1.6396462 1.161391 3.4199825 1.3895436 5.8638196.2062817 2.2083614-.7764146 6.0516545-1.6967294 9.6520279-.7478334 2.9242177-1.4539133 5.6864063-1.4340308 7.199506.0236106 1.7661928.3929295 3.2003871.8974498 4.3566751.5037748 1.1550474 1.1444908 2.0351663 1.7111442 2.6929602.1066203.1245615.0919569.3121482-.0328062.4185961-.1247632.1066961-.3126536.0920564-.4195224-.0325051-.5962287-.692284-1.2712422-1.6205402-1.8043438-2.8415903-.5318589-1.2195613-.9213088-2.7304279-.9459135-4.5871883-.0211252-1.5982085.6934048-4.3936465 1.4501854-7.3530989.9088822-3.5549654 1.8789034-7.3501212 1.6828115-9.4522827-.2209451-2.3676611-.8146886-4.1159885-1.3614594-5.7263554-.7500702-2.2088576-1.4143967-4.1653665-.9652991-7.1106754" fill="#ff3f3f"/><path d="m13.6679537 32.1136183c-3.3526993.2945309-6.59852985-2.3249826-9.11268158-5.9834185-5.95309177-8.6622353-8.07331996-24.76218199 6.29507208-26.02318112 14.3686406-1.26075101 15.0933604 14.96177212 10.7447926 24.52794672-1.8361559 4.0403088-4.5744837 7.1843702-7.9271831 7.4786529" fill="#ff3f3f" mask="url(#d)" transform="translate(0 .210415)"/><path d="m12.2673008 27.3156183c-2.66351956.2334908-5.24154406-1.8468352-7.23874881-4.7531876-4.72882216-6.8811546-6.4133734-19.67054431 5.00046781-20.67199896 11.4140898-1.00145464 11.9896904 11.88495406 8.5358384 19.48419836-1.458884 3.2095678-3.6340378 5.7072493-6.2975574 5.9409882" fill="#ff4d4e"/><path d="m6.81196934 4.02418024c.84873746.38063216-.63475124 1.88777674-1.4603752 3.72369421-.82562397 1.83591748-1.24241247 3.77580165-2.09114993 3.39516945-.84848892-.380384-.74659072-2.51852444.07903324-4.35444191.8258725-1.83591747 2.62375443-3.14480579 3.47249189-2.76442175" fill="#ff7f7f"/><path d="m13.4720855 31.3292034-.8194107 3.8683543 1.2784497-.112155 1.0237041-.0898232z" fill="#ff3f3f"/></g><g transform="matrix(.99026807 .1391731 -.1391731 .99026807 113.685245 20.663491)"><path d="m.17191327.98299792c-.09501031-.26547869.04303158-.55831751.30761186-.65322294.26458027-.09490542.55642809.0431777.65101234.30865639 1.75321714 4.90173705 4.56858989 18.15771673 4.82677934 33.30111733.16829181 9.8646069-.74602265 20.5401849-3.74033858 30.2517461-.08265471.2701812-.36768564.4215169-.63695253.339009-.26926688-.0829354-.42009042-.3693617-.33743571-.6395429 2.95937941-9.5987007 3.86261643-20.1656932 3.69602884-29.9353946-.25605917-15.0198526-3.03606934-28.13304661-4.76670556-32.97236838" fill="#ffc72c" transform="translate(21.728815 58.372823)"/><path d="m22.6531845 55.733725c-5.75771.3762017-11.2184594-4.2617667-15.38527929-10.661043-9.86616023-15.1523781-12.87410993-42.96608077 11.80002479-44.57861803 24.6749868-1.61210975 25.286376 26.35848613 17.4622984 42.66640193-3.3044842 6.8874835-8.119334 12.1970574-13.8770439 12.5732591" fill="#ffc72c"/><path d="m8.22601814 38.5831601c-7.83771143-12.0363167-10.22660293-34.13089857 9.37364046-35.41169433 19.6006694-1.28079576 20.0867984 20.93818923 13.8715051 33.89277993-2.6249261 5.4715972-6.4500496 9.6889036-11.0237522 9.9877275-4.5732765.2988238-8.9117966-3.3849603-12.22139336-8.4688131z" fill="#ffdb81"/><path d="m12.0030827 6.72152724c1.4396405.6882781-1.1614265 3.22678452-2.64750702 6.35695356-1.48693264 3.1297416-2.27598687 6.4552791-3.71562738 5.7665735-1.43964052-.6882781-1.18145107-4.3673597.30462946-7.4975287 1.48650659-3.12974163 4.61886444-5.31427646 6.05850494-4.62599836" fill="#ffeec2"/><path d="m22.3561388 54.012474-1.5542494 6.6309823 2.1946104-.1436406 1.7583298-.114998z" fill="#ffc72c"/></g><g transform="translate(170.90583 63.712734)"><path d="m6.17727602 28.3435011c.04016313-.1316636.17887085-.2054119.30971157-.1652045.13063369.0404157.20392106.1799958.16396495.311451-.76330653 2.4899416.19853837 5.5942437 1.30592287 9.1677014 1.86489429 6.0175671 4.13452529 13.3415617-.54013202 21.5499106-.06790467.1197889-.21965506.1612463-.33848825.0929145-.11904021-.0683317-.16023847-.2212448-.0923338-.3408253 4.56762466-8.02002 2.33318813-15.230059.49748457-21.1536699-1.13181362-3.6517893-2.11498225-6.8242148-1.30612989-9.4622778" fill="#00a596"/><path d="m6.80380017 26.9077848c-2.74330753-.582278-4.69328969-3.4780433-5.80812714-7.0304599-2.63917323-8.4108442-.41695128-21.85990334 11.33945997-19.36537859 11.7564112 2.49473308 8.3924383 15.70171459 2.6031506 22.32385079-2.4451895 2.7968093-5.39117589 4.6540574-8.13448343 4.0719877" fill="#00a596"/><path d="m2.29089262 16.9581018c-2.09655689-6.6810931-.33124232-17.36480058 9.00772098-15.38318045 9.3389633 1.98182846 6.6666659 12.47304045 2.0677802 17.73354195-1.9425292 2.2216144-4.28254919 3.6967881-6.46170964 3.2345073-2.17916044-.4624891-3.72833939-2.7628518-4.61379154-5.5848688z" fill="#1fb4a6"/><path d="m8.21640377 2.50356621c.5838146.51269629-.96453624 1.36142636-2.06860832 2.63431314-1.10407208 1.2730951-1.90733471 2.72951924-2.49114931 2.21682294-.58402163-.51290462.01697617-2.20536488 1.12104824-3.47845998 1.10407208-1.27309511 2.85489479-1.88537239 3.43870939-1.3726761" fill="#6dd3c6"/><path d="m6.88952983 26.0608464-1.59265451 2.907015 1.04569062.2218698.83762903.1777042z" fill="#00a596"/></g><g fill="#fff"><path d="m13.3995336 73.4487288c-1.0641847-1.0331847-1.596269-2.3478924-1.596269-3.9441627s.5320843-2.9135609 1.596269-3.9519115c1.0641847-1.0383505 2.3659834-1.557518 3.905435-1.557518 1.1468398 0 2.1670987.2815386 3.0608072.8446242s1.5420249 1.3612088 1.9449686 2.3943934h-2.1231928c-.5785859-1.0848438-1.5394373-1.6272576-2.882583-1.6272576-1.0848485 0-1.9707948.3564433-2.6578655 1.0693407s-1.0306009 1.6556642-1.0306009 2.8283288.3435302 2.1154314 1.0306009 2.8283288 1.5420218 1.0693408 2.564879 1.0693408c1.0228571 0 1.8364812-.2712069 2.4408968-.8136289.6044156-.5424219.9686093-1.2785549 1.092592-2.2084211h-4.0449148v-1.3792946h5.9356412v1.3792946c-.1653102 1.2914808-.7438874 2.3840572-1.7357489 3.2777619-.9918614.8937047-2.2239209 1.3405504-3.6962152 1.3405504-1.4722944 0-2.7405149-.5165846-3.8046996-1.5497692z"/><path d="m55.4079283 14.1976079h1.7667443v9.4225968h3.6419731v1.3482992h-5.4087174z"/><path d="m91.3429238 65.9022137c.6612409.604413.9918565 1.3586265.9918565 2.262663 0 .9040366-.312535 1.6685818-.9376144 2.2936585-.6250793.6250767-1.5833478.9376103-2.8748341.9376103h-1.9527175v4.3703492h-1.7667443v-10.770896h3.7194618c1.2191631 0 2.159351.302202 2.820592.906615zm-4.7733095 4.1146372h1.9527175c.6715729 0 1.1726621-.1601412 1.5032825-.4804284.3306205-.3202873.4959283-.7671329.4959283-1.3405504s-.1653078-1.0202631-.4959283-1.3405504c-.3306204-.3202872-.8317096-.4804284-1.5032825-.4804284h-1.9527175z"/></g><path d="m127.013596 49.4496916h1.751247c1.250159 0 2.213593-.3564434 2.890332-1.0693408s1.015103-1.6918252 1.015103-2.9368127c0-1.2449874-.338364-2.2213323-1.015103-2.9290638-.676739-.7077314-1.640173-1.0615919-2.890332-1.0615919h-1.751247zm1.751247-9.4225968c1.735758 0 3.122793.4881724 4.161148 1.4645319 1.038355.9763594 1.557525 2.2936501 1.557525 3.9519114 0 1.6582614-.51917 2.9652204-1.557525 3.9209161-1.038355.9556958-2.42539 1.4335366-4.161148 1.4335366h-3.517991v-10.770896z" fill="#ff8b25"/><path d="m182.302709 80.9323921-.602691-1.711634h-3.507659l-.602691 1.711634h-1.434403l3.001399-8.3894174h1.591103l3.001399 8.3894174zm-3.736682-2.7844187h2.760323l-1.374135-3.9415797z" fill="#fff"/></g></svg>