<svg height="72" viewBox="0 0 1536 1024" width="108" xmlns="http://www.w3.org/2000/svg"><path d="m1407.911994 1023.967998h-1279.919995c-70.715579 0-127.991999-57.27642-127.991999-127.992v-383.975998-63.996-127.991999-63.996-127.991999c0-70.71558 57.27642-127.992 127.991999-127.992h1279.919995c70.71558 0 127.992 57.27642 127.992 127.992v127.991999 63.996 127.991999 63.996 383.975998c0 70.71558-57.27642 127.992-127.992 127.992zm68.923692-895.943996c0-35.325792-28.670208-63.996-63.996-63.996h-1289.775378c-35.325792 0-63.996 28.670208-63.996 63.996v127.991999h1417.767378zm0 191.987999h-1417.767378v127.991999h1417.767378zm0 191.987999h-1417.767378v383.975998c0 35.325792 28.670208 63.996 63.996 63.996h1289.775378c35.325792 0 63.996-28.670208 63.996-63.996zm-452.89969 319.979999h383.975998v63.995999h-383.975998z" fill="#2b72dc"/></svg>