<svg height="72" viewBox="0 0 1088 1024" width="76.5" xmlns="http://www.w3.org/2000/svg"><g fill="#2b72dc"><path d="m855.552.512h-681.792a173.312 173.312 0 0 0 -173.504 172.608v677.76a173.248 173.248 0 0 0 173.504 172.608h681.792a173.248 173.248 0 0 0 173.504-172.544v-677.824a173.248 173.248 0 0 0 -173.504-172.608zm123.904 850.432a123.648 123.648 0 0 1 -123.904 123.072h-681.792a123.648 123.648 0 0 1 -123.84-123.072v-677.824a123.712 123.712 0 0 1 123.84-123.136h681.792c68.288 0 123.712 55.04 123.904 123.136v677.76z"/><path d="m850.56 266.816a56.704 56.704 0 0 0 -55.68 57.408 56.256 56.256 0 0 0 33.6 50.176 291.84 291.84 0 0 1 -582.464-3.968 55.872 55.872 0 0 0 30.4-49.152 56.512 56.512 0 0 0 -56.576-56.448 56.192 56.192 0 1 0 -23.296 107.52 341.44 341.44 0 0 0 340.8 322.368 341.44 341.44 0 0 0 340.864-322.496 55.872 55.872 0 0 0 29.888-49.984 56.32 56.32 0 0 0 -57.6-55.424z"/></g></svg>